<svg width="12" height="12" viewBox="0 0 12 12" fill="none" xmlns="http://www.w3.org/2000/svg">
    <path d="M11.8335 1.00008C11.8335 0.779068 11.7457 0.567106 11.5894 0.410826C11.4331 0.254546 11.2212 0.166748 11.0002 0.166748H4.33349C4.11247 0.166748 3.90051 0.254546 3.74423 0.410826C3.58795 0.567106 3.50015 0.779068 3.50015 1.00008C3.50015 1.22109 3.58795 1.43305 3.74423 1.58933C3.90051 1.74562 4.11247 1.83341 4.33349 1.83341H8.98849L0.696817 10.1251C0.545019 10.2822 0.461023 10.4927 0.462922 10.7112C0.46482 10.9297 0.552462 11.1387 0.706969 11.2932C0.861475 11.4477 1.07049 11.5354 1.28898 11.5373C1.50748 11.5392 1.71798 11.4552 1.87515 11.3034L10.1668 3.01175V7.66675C10.1668 7.88776 10.2546 8.09972 10.4109 8.256C10.5672 8.41228 10.7791 8.50008 11.0002 8.50008C11.2212 8.50008 11.4331 8.41228 11.5894 8.256C11.7457 8.09972 11.8335 7.88776 11.8335 7.66675V1.00008Z" fill="#919191"/>
    </svg>
    