<svg width="9" height="10" viewBox="0 0 9 10" fill="none" xmlns="http://www.w3.org/2000/svg">
    <path d="M8.87511 1.25C8.87511 1.08424 8.80926 0.925269 8.69205 0.808058C8.57484 0.690848 8.41587 0.625 8.25011 0.625H3.25011C3.08435 0.625 2.92538 0.690848 2.80817 0.808058C2.69096 0.925269 2.62511 1.08424 2.62511 1.25C2.62511 1.41576 2.69096 1.57473 2.80817 1.69194C2.92538 1.80915 3.08435 1.875 3.25011 1.875H6.74136L0.522614 8.09375C0.408765 8.21163 0.345768 8.3695 0.347192 8.53338C0.348616 8.69725 0.414347 8.85401 0.530227 8.96989C0.646108 9.08577 0.802866 9.1515 0.966739 9.15292C1.13061 9.15435 1.28848 9.09135 1.40636 8.9775L7.62511 2.75875V6.25C7.62511 6.41576 7.69096 6.57473 7.80817 6.69194C7.92538 6.80915 8.08435 6.875 8.25011 6.875C8.41587 6.875 8.57484 6.80915 8.69205 6.69194C8.80926 6.57473 8.87511 6.41576 8.87511 6.25V1.25Z" fill="#040404"/>
    </svg>
    