<svg width="230" height="230" viewBox="0 0 230 230" fill="none" xmlns="http://www.w3.org/2000/svg">
    <path d="M115 178.082C81.2885 178.082 53.8527 150.646 53.8527 116.934C53.8527 83.2229 81.2885 55.7871 115 55.7871C148.711 55.7871 176.147 83.2229 176.147 116.934C176.147 150.646 148.711 178.082 115 178.082ZM115 56.1563C81.4952 56.1563 54.2218 83.4149 54.2218 116.934C54.2218 150.454 81.4804 177.713 115 177.713C148.505 177.713 175.778 150.454 175.778 116.934C175.778 83.4149 148.505 56.1563 115 56.1563Z" fill="#6FFFE9"/>
    <path d="M115 230C84.2861 230 55.4032 218.039 33.6819 196.318C11.9607 174.597 0 145.714 0 115C0 84.2861 11.9607 55.4032 33.6819 33.6819C55.4032 11.9607 84.2861 0 115 0C145.714 0 174.597 11.9607 196.318 33.6819C218.039 55.4032 230 84.2861 230 115C230 145.714 218.039 174.597 196.318 196.318C174.597 218.039 145.714 230 115 230ZM115 0.369158C51.7854 0.369158 0.369158 51.8002 0.369158 115C0.369158 178.2 51.8002 229.631 115 229.631C178.215 229.631 229.631 178.2 229.631 115C229.631 51.8002 178.2 0.369158 115 0.369158Z" fill="#6FFFE9"/>
    </svg>
    