<svg width="24" height="24" viewBox="0 0 24 24" fill="none" xmlns="http://www.w3.org/2000/svg">
    <g clip-path="url(#clip0_1079_480)">
    <mask id="mask0_1079_480" style="mask-type:luminance" maskUnits="userSpaceOnUse" x="0" y="0" width="24" height="24">
    <path d="M24 0H0V24H24V0Z" fill="white"/>
    </mask>
    <g mask="url(#mask0_1079_480)">
    <path d="M21.3332 12H11.9998C11.6462 12 11.3071 12.1405 11.057 12.3905C10.807 12.6406 10.6665 12.9797 10.6665 13.3333V21.3333C10.6665 21.687 10.807 22.0261 11.057 22.2761C11.3071 22.5262 11.6462 22.6667 11.9998 22.6667H21.3332C21.6868 22.6667 22.0259 22.5262 22.276 22.2761C22.526 22.0261 22.6665 21.687 22.6665 21.3333V13.3333C22.6665 12.9797 22.526 12.6406 22.276 12.3905C22.0259 12.1405 21.6868 12 21.3332 12ZM11.9998 21.3333V13.3333H21.3332V21.3333H11.9998Z" fill="#6FFFE9"/>
    <path d="M13.9999 14.4666C13.8761 14.4666 13.7574 14.5157 13.6699 14.6032C13.5824 14.6908 13.5332 14.8095 13.5332 14.9332V19.9266C13.5332 20.0503 13.5824 20.169 13.6699 20.2565C13.7574 20.3441 13.8761 20.3932 13.9999 20.3932C14.1236 20.3932 14.2423 20.3441 14.3299 20.2565C14.4174 20.169 14.4665 20.0503 14.4665 19.9266V14.9332C14.4665 14.8095 14.4174 14.6908 14.3299 14.6032C14.2423 14.5157 14.1236 14.4666 13.9999 14.4666Z" fill="#6FFFE9"/>
    <path d="M16.6669 14.5466C16.5431 14.5466 16.4244 14.5958 16.3369 14.6833C16.2494 14.7708 16.2002 14.8895 16.2002 15.0133V20C16.2002 20.1237 16.2494 20.2424 16.3369 20.3299C16.4244 20.4175 16.5431 20.4666 16.6669 20.4666C16.7906 20.4666 16.9093 20.4175 16.9968 20.3299C17.0844 20.2424 17.1335 20.1237 17.1335 20V15.0133C17.1335 14.8895 17.0844 14.7708 16.9968 14.6833C16.9093 14.5958 16.7906 14.5466 16.6669 14.5466Z" fill="#6FFFE9"/>
    <path d="M19.3334 14.4666C19.2096 14.4666 19.0909 14.5157 19.0034 14.6032C18.9159 14.6908 18.8667 14.8095 18.8667 14.9332V19.9266C18.8667 20.0503 18.9159 20.169 19.0034 20.2565C19.0909 20.3441 19.2096 20.3932 19.3334 20.3932C19.4571 20.3932 19.5758 20.3441 19.6633 20.2565C19.7509 20.169 19.8 20.0503 19.8 19.9266V14.9332C19.8 14.8095 19.7509 14.6908 19.6633 14.6032C19.5758 14.5157 19.4571 14.4666 19.3334 14.4666Z" fill="#6FFFE9"/>
    <path d="M11.9998 10.6667H18.6665V5.41333C18.6665 4.29333 15.0798 3.41333 10.6665 3.41333C6.25317 3.41333 2.6665 4.29333 2.6665 5.41333V18.6667C2.6665 19.6667 5.55317 20.5 9.33317 20.6667V16.8133C7.52404 16.7762 5.72895 16.4867 3.99984 15.9533V14.96L4.15984 15.0267C5.83254 15.5656 7.576 15.8532 9.33317 15.88V13.3333C9.33531 12.9974 9.40091 12.6649 9.5265 12.3533C7.65216 12.3321 5.7907 12.0402 3.99984 11.4867V10.5L4.15984 10.56C6.10109 11.1671 8.126 11.4641 10.1598 11.44C10.6499 10.9538 11.3095 10.6765 11.9998 10.6667ZM3.99984 7.02666V6.03333L4.15984 6.09333C6.26538 6.74393 8.46365 7.04349 10.6665 6.98C12.9275 7.06632 15.1856 6.74567 17.3332 6.03333V7.03333C15.1702 7.6715 12.921 7.9684 10.6665 7.91333C8.41164 7.96723 6.16223 7.66805 3.99984 7.02666Z" fill="#6FFFE9"/>
    </g>
    </g>
    <defs>
    <clipPath id="clip0_1079_480">
    <rect width="24" height="24" fill="white"/>
    </clipPath>
    </defs>
    </svg>
    