<svg width="1512" height="750" viewBox="0 0 1512 750" fill="none" xmlns="http://www.w3.org/2000/svg">
    <path d="M143.944 283.4H158.27C162.871 283.4 166.313 284.347 168.594 286.242C170.875 288.098 172.016 290.921 172.016 294.71C172.016 297.378 171.455 299.659 170.334 301.554C169.213 303.449 167.589 304.821 165.462 305.672V305.788C166.197 306.329 166.757 306.851 167.144 307.354C167.569 307.818 167.917 308.359 168.188 308.978L174.162 324H165.288L160.648 311.646C160.184 310.409 159.585 309.597 158.85 309.21C158.115 308.785 156.839 308.572 155.022 308.572H152.296V324H143.944V283.4ZM157.4 301.96C159.527 301.96 161.131 301.438 162.214 300.394C163.335 299.311 163.896 297.745 163.896 295.696C163.896 291.945 161.692 290.07 157.284 290.07H152.296V301.96H157.4ZM176.175 283.4H203.145V290.07H184.527V299.35H201.115V306.02H184.527V317.33H203.145V324H176.175V283.4ZM206.99 283.4H234.25V290.07H215.342V300.916H232.974V307.586H215.342V324H206.99V283.4ZM253.228 324.58C248.047 324.58 244.122 323.188 241.454 320.404C238.825 317.62 237.51 313.541 237.51 308.166V283.4H245.862V308.05C245.862 314.623 248.318 317.91 253.228 317.91C258.178 317.91 260.652 314.623 260.652 308.05V283.4H269.004V308.166C269.004 313.541 267.67 317.62 265.002 320.404C262.334 323.188 258.41 324.58 253.228 324.58ZM274.057 283.4H288.383C292.984 283.4 296.425 284.347 298.707 286.242C300.988 288.098 302.129 290.921 302.129 294.71C302.129 297.378 301.568 299.659 300.447 301.554C299.325 303.449 297.701 304.821 295.575 305.672V305.788C296.309 306.329 296.87 306.851 297.257 307.354C297.682 307.818 298.03 308.359 298.301 308.978L304.275 324H295.401L290.761 311.646C290.297 310.409 289.697 309.597 288.963 309.21C288.228 308.785 286.952 308.572 285.135 308.572H282.409V324H274.057V283.4ZM287.513 301.96C289.639 301.96 291.244 301.438 292.327 300.394C293.448 299.311 294.009 297.745 294.009 295.696C294.009 291.945 291.805 290.07 287.397 290.07H282.409V301.96H287.513ZM306.287 283.4H319.453C324.132 283.4 327.689 284.27 330.125 286.01C332.561 287.711 333.779 290.225 333.779 293.55C333.779 295.483 333.335 297.146 332.445 298.538C331.556 299.93 330.164 301.109 328.269 302.076V302.25C330.744 303.178 332.523 304.415 333.605 305.962C334.727 307.509 335.287 309.539 335.287 312.052C335.287 315.919 334.147 318.877 331.865 320.926C329.623 322.975 326.336 324 322.005 324H306.287V283.4ZM320.207 299.582C321.831 299.582 323.088 299.137 323.977 298.248C324.905 297.32 325.369 296.044 325.369 294.42C325.369 292.835 324.847 291.675 323.803 290.94C322.798 290.205 321.232 289.838 319.105 289.838H314.639V299.582H320.207ZM321.367 317.562C323.185 317.562 324.577 317.04 325.543 315.996C326.549 314.952 327.051 313.463 327.051 311.53C327.051 309.481 326.452 307.992 325.253 307.064C324.055 306.136 322.121 305.672 319.453 305.672H314.639V317.562H321.367ZM340.417 283.4H348.711V324H340.417V283.4ZM367.517 324.58C364.463 324.58 361.698 323.961 359.223 322.724C356.787 321.487 354.796 319.708 353.249 317.388L358.063 312.748C359.339 314.256 360.886 315.493 362.703 316.46C364.521 317.427 366.222 317.91 367.807 317.91C369.586 317.91 371.017 317.504 372.099 316.692C373.182 315.88 373.723 314.817 373.723 313.502C373.723 312.535 373.549 311.743 373.201 311.124C372.853 310.505 372.196 309.887 371.229 309.268C370.263 308.611 368.677 307.741 366.473 306.658C363.573 305.227 361.292 303.893 359.629 302.656C357.967 301.419 356.729 300.085 355.917 298.654C355.144 297.185 354.757 295.483 354.757 293.55C354.757 291.423 355.318 289.548 356.439 287.924C357.561 286.3 359.146 285.043 361.195 284.154C363.245 283.265 365.603 282.82 368.271 282.82C371.21 282.82 373.801 283.381 376.043 284.502C378.325 285.623 379.987 287.17 381.031 289.142L375.753 293.086C373.82 290.689 371.442 289.49 368.619 289.49C366.841 289.49 365.468 289.838 364.501 290.534C363.535 291.23 363.051 292.216 363.051 293.492C363.051 294.265 363.283 294.961 363.747 295.58C364.25 296.199 365.139 296.875 366.415 297.61C367.691 298.345 369.605 299.311 372.157 300.51C374.632 301.67 376.565 302.83 377.957 303.99C379.388 305.15 380.413 306.445 381.031 307.876C381.65 309.307 381.959 311.008 381.959 312.98C381.959 315.3 381.36 317.349 380.161 319.128C379.001 320.868 377.319 322.221 375.115 323.188C372.95 324.116 370.417 324.58 367.517 324.58ZM385.195 283.4H393.547V299.988H409.149V283.4H417.443V324H409.149V306.658H393.547V324H385.195V283.4ZM424.309 283.4H432.603V324H424.309V283.4ZM472.115 283.4V324H464.401L447.755 297.32V324H439.461V283.4H447.523L463.821 309.674V283.4H472.115ZM508.783 301.96V324H502.461L501.707 321.738C499.078 323.633 496.023 324.58 492.543 324.58C487.169 324.58 482.993 322.743 480.015 319.07C477.038 315.397 475.549 310.273 475.549 303.7C475.549 299.485 476.323 295.812 477.869 292.68C479.416 289.509 481.601 287.073 484.423 285.372C487.246 283.671 490.552 282.82 494.341 282.82C497.628 282.82 500.489 283.458 502.925 284.734C505.4 285.971 507.198 287.711 508.319 289.954L503.563 294.13C502.597 292.622 501.321 291.481 499.735 290.708C498.189 289.896 496.41 289.49 494.399 289.49C490.997 289.49 488.387 290.708 486.569 293.144C484.791 295.58 483.901 299.099 483.901 303.7C483.901 308.533 484.733 312.207 486.395 314.72C488.058 317.195 490.475 318.432 493.645 318.432C496.197 318.432 498.498 317.813 500.547 316.576V307.876H491.731V301.96H508.783ZM533.475 289.548H521.411V283.4H553.891V289.548H541.827V324H533.475V289.548ZM556.376 283.4H564.728V299.988H580.33V283.4H588.624V324H580.33V306.658H564.728V324H556.376V283.4ZM594.214 283.4H621.184V290.07H602.566V299.35H619.154V306.02H602.566V317.33H621.184V324H594.214V283.4ZM143.944 337.4H158.27C162.871 337.4 166.313 338.347 168.594 340.242C170.875 342.098 172.016 344.921 172.016 348.71C172.016 351.378 171.455 353.659 170.334 355.554C169.213 357.449 167.589 358.821 165.462 359.672V359.788C166.197 360.329 166.757 360.851 167.144 361.354C167.569 361.818 167.917 362.359 168.188 362.978L174.162 378H165.288L160.648 365.646C160.184 364.409 159.585 363.597 158.85 363.21C158.115 362.785 156.839 362.572 155.022 362.572H152.296V378H143.944V337.4ZM157.4 355.96C159.527 355.96 161.131 355.438 162.214 354.394C163.335 353.311 163.896 351.745 163.896 349.696C163.896 345.945 161.692 344.07 157.284 344.07H152.296V355.96H157.4ZM176.175 337.4H203.145V344.07H184.527V353.35H201.115V360.02H184.527V371.33H203.145V378H176.175V337.4ZM228.624 371.272H214.646L212.616 378H203.916L217.952 337.4H225.318L239.354 378H230.654L228.624 371.272ZM226.594 364.602L221.664 348.362L216.676 364.602H226.594ZM241.826 337.4H250.178V371.33H269.318V378H241.826V337.4ZM311.741 337.4V378H303.505V354.104L294.979 378H289.063L280.537 354.104V378H272.301V337.4H281.059L292.021 368.778L302.983 337.4H311.741ZM344.615 378.58C340.865 378.58 337.617 377.749 334.871 376.086C332.126 374.423 330.019 372.026 328.549 368.894C327.119 365.762 326.403 362.031 326.403 357.7C326.403 353.369 327.119 349.638 328.549 346.506C330.019 343.374 332.126 340.977 334.871 339.314C337.617 337.651 340.865 336.82 344.615 336.82C348.405 336.82 351.653 337.651 354.359 339.314C357.105 340.977 359.193 343.374 360.623 346.506C362.093 349.638 362.827 353.369 362.827 357.7C362.827 362.031 362.093 365.762 360.623 368.894C359.193 372.026 357.105 374.423 354.359 376.086C351.653 377.749 348.405 378.58 344.615 378.58ZM344.615 371.968C347.709 371.968 350.125 370.711 351.865 368.198C353.644 365.646 354.533 362.147 354.533 357.7C354.533 353.253 353.644 349.773 351.865 347.26C350.125 344.708 347.709 343.432 344.615 343.432C341.561 343.432 339.144 344.708 337.365 347.26C335.625 349.773 334.755 353.253 334.755 357.7C334.755 362.147 335.625 365.646 337.365 368.198C339.144 370.711 341.561 371.968 344.615 371.968ZM366.274 337.4H393.534V344.07H374.626V354.916H392.258V361.586H374.626V378H366.274V337.4ZM143.944 391.4H170.914V398.07H152.296V407.35H168.884V414.02H152.296V425.33H170.914V432H143.944V391.4ZM185.025 411.236L172.903 391.4H182.299L189.839 404.566L197.321 391.4H206.775L194.653 411.236L207.297 432H198.017L189.839 418.138L181.661 432H172.381L185.025 411.236ZM224.768 432.58C220.979 432.58 217.654 431.729 214.792 430.028C211.97 428.327 209.785 425.91 208.238 422.778C206.73 419.607 205.976 415.915 205.976 411.7C205.976 407.485 206.73 403.812 208.238 400.68C209.785 397.509 211.97 395.073 214.792 393.372C217.654 391.671 220.998 390.82 224.826 390.82C228.074 390.82 230.897 391.439 233.294 392.676C235.73 393.913 237.528 395.673 238.688 397.954L233.932 402.13C231.883 399.037 228.886 397.49 224.942 397.49C221.501 397.49 218.872 398.708 217.054 401.144C215.237 403.541 214.328 407.06 214.328 411.7C214.328 416.301 215.218 419.82 216.996 422.256C218.775 424.692 221.346 425.91 224.71 425.91C228.886 425.91 231.96 424.363 233.932 421.27L238.688 425.446C237.528 427.727 235.73 429.487 233.294 430.724C230.897 431.961 228.055 432.58 224.768 432.58ZM241.769 391.4H250.121V407.988H265.723V391.4H274.017V432H265.723V414.658H250.121V432H241.769V391.4ZM301.241 425.272H287.263L285.233 432H276.533L290.569 391.4H297.935L311.971 432H303.271L301.241 425.272ZM299.211 418.602L294.281 402.362L289.293 418.602H299.211ZM347.098 391.4V432H339.384L322.738 405.32V432H314.444V391.4H322.506L338.804 417.674V391.4H347.098ZM383.766 409.96V432H377.444L376.69 429.738C374.061 431.633 371.006 432.58 367.526 432.58C362.152 432.58 357.976 430.743 354.998 427.07C352.021 423.397 350.532 418.273 350.532 411.7C350.532 407.485 351.306 403.812 352.852 400.68C354.399 397.509 356.584 395.073 359.406 393.372C362.229 391.671 365.535 390.82 369.324 390.82C372.611 390.82 375.472 391.458 377.908 392.734C380.383 393.971 382.181 395.711 383.302 397.954L378.546 402.13C377.58 400.622 376.304 399.481 374.718 398.708C373.172 397.896 371.393 397.49 369.382 397.49C365.98 397.49 363.37 398.708 361.552 401.144C359.774 403.58 358.884 407.099 358.884 411.7C358.884 416.533 359.716 420.207 361.378 422.72C363.041 425.195 365.458 426.432 368.628 426.432C371.18 426.432 373.481 425.813 375.53 424.576V415.876H366.714V409.96H383.766ZM388.251 391.4H415.221V398.07H396.603V407.35H413.191V414.02H396.603V425.33H415.221V432H388.251V391.4ZM431.014 432.58C427.959 432.58 425.194 431.961 422.72 430.724C420.284 429.487 418.292 427.708 416.746 425.388L421.56 420.748C422.836 422.256 424.382 423.493 426.2 424.46C428.017 425.427 429.718 425.91 431.304 425.91C433.082 425.91 434.513 425.504 435.596 424.692C436.678 423.88 437.22 422.817 437.22 421.502C437.22 420.535 437.046 419.743 436.698 419.124C436.35 418.505 435.692 417.887 434.726 417.268C433.759 416.611 432.174 415.741 429.97 414.658C427.07 413.227 424.788 411.893 423.126 410.656C421.463 409.419 420.226 408.085 419.414 406.654C418.64 405.185 418.254 403.483 418.254 401.55C418.254 399.423 418.814 397.548 419.936 395.924C421.057 394.3 422.642 393.043 424.692 392.154C426.741 391.265 429.1 390.82 431.768 390.82C434.706 390.82 437.297 391.381 439.54 392.502C441.821 393.623 443.484 395.17 444.528 397.142L439.25 401.086C437.316 398.689 434.938 397.49 432.116 397.49C430.337 397.49 428.964 397.838 427.998 398.534C427.031 399.23 426.548 400.216 426.548 401.492C426.548 402.265 426.78 402.961 427.244 403.58C427.746 404.199 428.636 404.875 429.912 405.61C431.188 406.345 433.102 407.311 435.654 408.51C438.128 409.67 440.062 410.83 441.454 411.99C442.884 413.15 443.909 414.445 444.528 415.876C445.146 417.307 445.456 419.008 445.456 420.98C445.456 423.3 444.856 425.349 443.658 427.128C442.498 428.868 440.816 430.221 438.612 431.188C436.446 432.116 433.914 432.58 431.014 432.58Z" fill="white"/>
    <path d="M143.792 210.76H140.288V209.8H148.448V210.76H144.976V221H143.792V210.76ZM148.846 209.128H149.95V214.392C150.206 213.923 150.579 213.549 151.07 213.272C151.571 212.984 152.115 212.84 152.702 212.84C153.641 212.84 154.361 213.149 154.862 213.768C155.363 214.387 155.614 215.277 155.614 216.44V221H154.51V216.424C154.51 215.549 154.339 214.883 153.998 214.424C153.667 213.955 153.187 213.72 152.558 213.72C152.067 213.72 151.625 213.848 151.23 214.104C150.835 214.349 150.521 214.696 150.286 215.144C150.062 215.581 149.95 216.077 149.95 216.632V221H148.846V209.128ZM163.257 217.448H157.433C157.497 218.333 157.748 219.016 158.185 219.496C158.633 219.976 159.236 220.216 159.993 220.216C160.473 220.216 160.91 220.115 161.305 219.912C161.7 219.699 162.025 219.405 162.281 219.032L162.937 219.656C162.628 220.136 162.212 220.509 161.689 220.776C161.177 221.032 160.601 221.16 159.961 221.16C158.82 221.16 157.924 220.797 157.273 220.072C156.633 219.336 156.313 218.317 156.313 217.016C156.313 215.715 156.628 214.696 157.257 213.96C157.897 213.213 158.777 212.84 159.897 212.84C160.953 212.84 161.774 213.197 162.361 213.912C162.958 214.627 163.257 215.624 163.257 216.904V217.448ZM162.233 216.456C162.233 215.624 162.02 214.968 161.593 214.488C161.166 213.997 160.59 213.752 159.865 213.752C159.14 213.752 158.564 213.997 158.137 214.488C157.721 214.979 157.486 215.677 157.433 216.584H162.233V216.456ZM167.27 209.8H173.734V210.792H168.454V214.6H173.174V215.608H168.454V220.008H173.734V221H167.27V209.8ZM176.613 216.936L174.053 213H175.301L177.189 216.136L179.061 213H180.341L177.765 216.936L180.533 221H179.253L177.189 217.64L175.109 221H173.845L176.613 216.936ZM184.012 221.16C182.86 221.16 181.958 220.797 181.308 220.072C180.668 219.336 180.348 218.312 180.348 217C180.348 215.688 180.668 214.669 181.308 213.944C181.958 213.208 182.86 212.84 184.012 212.84C184.662 212.84 185.238 212.968 185.74 213.224C186.241 213.469 186.641 213.837 186.94 214.328L186.268 214.952C186.033 214.568 185.718 214.275 185.324 214.072C184.929 213.859 184.502 213.752 184.044 213.752C183.233 213.752 182.598 214.04 182.14 214.616C181.692 215.181 181.468 215.976 181.468 217C181.468 218.013 181.692 218.808 182.14 219.384C182.598 219.96 183.233 220.248 184.044 220.248C184.502 220.248 184.929 220.147 185.324 219.944C185.718 219.731 186.033 219.432 186.268 219.048L186.94 219.672C186.641 220.163 186.241 220.536 185.74 220.792C185.238 221.037 184.662 221.16 184.012 221.16ZM187.32 209.128H188.424V214.392C188.68 213.923 189.054 213.549 189.544 213.272C190.046 212.984 190.59 212.84 191.176 212.84C192.115 212.84 192.835 213.149 193.336 213.768C193.838 214.387 194.088 215.277 194.088 216.44V221H192.984V216.424C192.984 215.549 192.814 214.883 192.472 214.424C192.142 213.955 191.662 213.72 191.032 213.72C190.542 213.72 190.099 213.848 189.704 214.104C189.31 214.349 188.995 214.696 188.76 215.144C188.536 215.581 188.424 216.077 188.424 216.632V221H187.32V209.128ZM197.555 221.16C196.777 221.16 196.137 220.936 195.635 220.488C195.134 220.029 194.883 219.443 194.883 218.728C194.883 217.939 195.177 217.325 195.763 216.888C196.361 216.44 197.193 216.216 198.259 216.216H200.051V215.784C200.051 215.123 199.881 214.621 199.539 214.28C199.209 213.928 198.718 213.752 198.067 213.752C197.587 213.752 197.145 213.859 196.739 214.072C196.345 214.275 196.025 214.573 195.779 214.968L195.171 214.264C195.513 213.805 195.934 213.453 196.435 213.208C196.937 212.963 197.502 212.84 198.131 212.84C199.102 212.84 199.849 213.085 200.371 213.576C200.905 214.067 201.171 214.76 201.171 215.656V219.496C201.171 219.891 201.23 220.392 201.347 221H200.387C200.313 220.765 200.243 220.371 200.179 219.816H200.147C199.849 220.243 199.475 220.573 199.027 220.808C198.579 221.043 198.089 221.16 197.555 221.16ZM197.667 220.264C198.094 220.264 198.489 220.179 198.851 220.008C199.214 219.837 199.502 219.608 199.715 219.32C199.939 219.021 200.051 218.707 200.051 218.376V217.064H198.211C197.497 217.064 196.942 217.208 196.547 217.496C196.163 217.784 195.971 218.195 195.971 218.728C195.971 219.187 196.126 219.56 196.435 219.848C196.745 220.125 197.155 220.264 197.667 220.264ZM202.416 214.984C202.416 214.045 202.4 213.384 202.368 213H203.376C203.418 213.363 203.44 213.869 203.44 214.52H203.488C203.722 214.008 204.09 213.603 204.592 213.304C205.093 212.995 205.642 212.84 206.24 212.84C207.168 212.84 207.866 213.144 208.336 213.752C208.805 214.36 209.04 215.261 209.04 216.456V221H207.936V216.44C207.936 215.533 207.781 214.861 207.472 214.424C207.162 213.976 206.693 213.752 206.064 213.752C205.584 213.752 205.152 213.88 204.768 214.136C204.384 214.381 204.08 214.723 203.856 215.16C203.642 215.597 203.536 216.088 203.536 216.632V221H202.416V214.984ZM216.67 213V220.76C216.67 222.019 216.361 222.973 215.742 223.624C215.134 224.275 214.244 224.6 213.07 224.6C212.014 224.6 211.07 224.371 210.238 223.912L210.606 223.064C211.022 223.267 211.422 223.411 211.806 223.496C212.19 223.592 212.601 223.64 213.038 223.64C213.913 223.64 214.564 223.389 214.99 222.888C215.417 222.397 215.63 221.635 215.63 220.6V219.8C215.396 220.216 215.054 220.547 214.606 220.792C214.169 221.027 213.668 221.144 213.102 221.144C212.057 221.144 211.23 220.765 210.622 220.008C210.025 219.24 209.726 218.189 209.726 216.856C209.726 215.619 210.025 214.643 210.622 213.928C211.23 213.203 212.052 212.84 213.086 212.84C213.63 212.84 214.116 212.957 214.542 213.192C214.98 213.427 215.321 213.763 215.566 214.2H215.598L215.758 213H216.67ZM215.566 216.456C215.566 215.613 215.353 214.947 214.926 214.456C214.51 213.965 213.945 213.72 213.23 213.72C212.494 213.72 211.913 214.003 211.486 214.568C211.06 215.133 210.846 215.907 210.846 216.888C210.846 217.933 211.054 218.755 211.47 219.352C211.897 219.939 212.484 220.232 213.23 220.232C213.956 220.232 214.526 220.013 214.942 219.576C215.358 219.128 215.566 218.52 215.566 217.752V216.456ZM224.336 217.448H218.512C218.576 218.333 218.826 219.016 219.264 219.496C219.712 219.976 220.314 220.216 221.072 220.216C221.552 220.216 221.989 220.115 222.384 219.912C222.778 219.699 223.104 219.405 223.36 219.032L224.016 219.656C223.706 220.136 223.29 220.509 222.768 220.776C222.256 221.032 221.68 221.16 221.04 221.16C219.898 221.16 219.002 220.797 218.352 220.072C217.712 219.336 217.392 218.317 217.392 217.016C217.392 215.715 217.706 214.696 218.336 213.96C218.976 213.213 219.856 212.84 220.976 212.84C222.032 212.84 222.853 213.197 223.44 213.912C224.037 214.627 224.336 215.624 224.336 216.904V217.448ZM223.312 216.456C223.312 215.624 223.098 214.968 222.672 214.488C222.245 213.997 221.669 213.752 220.944 213.752C220.218 213.752 219.642 213.997 219.216 214.488C218.8 214.979 218.565 215.677 218.512 216.584H223.312V216.456ZM228.013 214.984C228.013 214.045 227.997 213.384 227.965 213H228.973C229.016 213.363 229.037 213.869 229.037 214.52H229.085C229.32 214.008 229.688 213.603 230.189 213.304C230.69 212.995 231.24 212.84 231.837 212.84C232.765 212.84 233.464 213.144 233.933 213.752C234.402 214.36 234.637 215.261 234.637 216.456V221H233.533V216.44C233.533 215.533 233.378 214.861 233.069 214.424C232.76 213.976 232.29 213.752 231.661 213.752C231.181 213.752 230.749 213.88 230.365 214.136C229.981 214.381 229.677 214.723 229.453 215.16C229.24 215.597 229.133 216.088 229.133 216.632V221H228.013V214.984ZM242.284 217.448H236.46C236.524 218.333 236.775 219.016 237.212 219.496C237.66 219.976 238.263 220.216 239.02 220.216C239.5 220.216 239.937 220.115 240.332 219.912C240.727 219.699 241.052 219.405 241.308 219.032L241.964 219.656C241.655 220.136 241.239 220.509 240.716 220.776C240.204 221.032 239.628 221.16 238.988 221.16C237.847 221.16 236.951 220.797 236.3 220.072C235.66 219.336 235.34 218.317 235.34 217.016C235.34 215.715 235.655 214.696 236.284 213.96C236.924 213.213 237.804 212.84 238.924 212.84C239.98 212.84 240.801 213.197 241.388 213.912C241.985 214.627 242.284 215.624 242.284 216.904V217.448ZM241.26 216.456C241.26 215.624 241.047 214.968 240.62 214.488C240.193 213.997 239.617 213.752 238.892 213.752C238.167 213.752 237.591 213.997 237.164 214.488C236.748 214.979 236.513 215.677 236.46 216.584H241.26V216.456ZM249.48 217.448H243.656C243.72 218.333 243.971 219.016 244.408 219.496C244.856 219.976 245.459 220.216 246.216 220.216C246.696 220.216 247.133 220.115 247.528 219.912C247.923 219.699 248.248 219.405 248.504 219.032L249.16 219.656C248.851 220.136 248.435 220.509 247.912 220.776C247.4 221.032 246.824 221.16 246.184 221.16C245.043 221.16 244.147 220.797 243.496 220.072C242.856 219.336 242.536 218.317 242.536 217.016C242.536 215.715 242.851 214.696 243.48 213.96C244.12 213.213 245 212.84 246.12 212.84C247.176 212.84 247.997 213.197 248.584 213.912C249.181 214.627 249.48 215.624 249.48 216.904V217.448ZM248.456 216.456C248.456 215.624 248.243 214.968 247.816 214.488C247.389 213.997 246.813 213.752 246.088 213.752C245.363 213.752 244.787 213.997 244.36 214.488C243.944 214.979 243.709 215.677 243.656 216.584H248.456V216.456ZM253.06 221.16C252.026 221.16 251.21 220.776 250.612 220.008C250.015 219.24 249.716 218.189 249.716 216.856C249.716 215.619 250.02 214.643 250.628 213.928C251.236 213.203 252.058 212.84 253.092 212.84C253.604 212.84 254.068 212.952 254.484 213.176C254.9 213.4 255.252 213.731 255.54 214.168H255.572V209.128H256.66V219.016C256.66 219.965 256.676 220.627 256.708 221H255.716C255.684 220.552 255.668 220.104 255.668 219.656H255.636C255.391 220.115 255.034 220.483 254.564 220.76C254.106 221.027 253.604 221.16 253.06 221.16ZM253.172 220.248C253.887 220.248 254.463 220.024 254.9 219.576C255.338 219.128 255.556 218.536 255.556 217.8V216.408C255.556 215.587 255.338 214.936 254.9 214.456C254.474 213.965 253.903 213.72 253.188 213.72C252.452 213.72 251.876 214.003 251.46 214.568C251.044 215.123 250.836 215.896 250.836 216.888C250.836 217.933 251.044 218.755 251.46 219.352C251.876 219.949 252.447 220.248 253.172 220.248ZM264.326 217.448H258.502C258.566 218.333 258.816 219.016 259.254 219.496C259.702 219.976 260.304 220.216 261.062 220.216C261.542 220.216 261.979 220.115 262.374 219.912C262.768 219.699 263.094 219.405 263.35 219.032L264.006 219.656C263.696 220.136 263.28 220.509 262.758 220.776C262.246 221.032 261.67 221.16 261.03 221.16C259.888 221.16 258.992 220.797 258.342 220.072C257.702 219.336 257.382 218.317 257.382 217.016C257.382 215.715 257.696 214.696 258.326 213.96C258.966 213.213 259.846 212.84 260.966 212.84C262.022 212.84 262.843 213.197 263.43 213.912C264.027 214.627 264.326 215.624 264.326 216.904V217.448ZM263.302 216.456C263.302 215.624 263.088 214.968 262.662 214.488C262.235 213.997 261.659 213.752 260.934 213.752C260.208 213.752 259.632 213.997 259.206 214.488C258.79 214.979 258.555 215.677 258.502 216.584H263.302V216.456ZM267.906 221.16C266.871 221.16 266.055 220.776 265.458 220.008C264.861 219.24 264.562 218.189 264.562 216.856C264.562 215.619 264.866 214.643 265.474 213.928C266.082 213.203 266.903 212.84 267.938 212.84C268.45 212.84 268.914 212.952 269.33 213.176C269.746 213.4 270.098 213.731 270.386 214.168H270.418V209.128H271.506V219.016C271.506 219.965 271.522 220.627 271.554 221H270.562C270.53 220.552 270.514 220.104 270.514 219.656H270.482C270.237 220.115 269.879 220.483 269.41 220.76C268.951 221.027 268.45 221.16 267.906 221.16ZM268.018 220.248C268.733 220.248 269.309 220.024 269.746 219.576C270.183 219.128 270.402 218.536 270.402 217.8V216.408C270.402 215.587 270.183 214.936 269.746 214.456C269.319 213.965 268.749 213.72 268.034 213.72C267.298 213.72 266.722 214.003 266.306 214.568C265.89 215.123 265.682 215.896 265.682 216.888C265.682 217.933 265.89 218.755 266.306 219.352C266.722 219.949 267.293 220.248 268.018 220.248ZM279.013 221.16C278.245 221.16 277.573 220.989 276.997 220.648C276.431 220.307 275.994 219.821 275.685 219.192C275.375 218.563 275.221 217.832 275.221 217C275.221 216.168 275.375 215.437 275.685 214.808C275.994 214.179 276.431 213.693 276.997 213.352C277.573 213.011 278.245 212.84 279.013 212.84C279.781 212.84 280.447 213.011 281.013 213.352C281.589 213.693 282.031 214.179 282.341 214.808C282.65 215.437 282.805 216.168 282.805 217C282.805 217.832 282.65 218.563 282.341 219.192C282.031 219.821 281.589 220.307 281.013 220.648C280.447 220.989 279.781 221.16 279.013 221.16ZM279.013 220.28C279.834 220.28 280.485 219.987 280.965 219.4C281.455 218.803 281.701 218.003 281.701 217C281.701 215.997 281.455 215.203 280.965 214.616C280.485 214.019 279.834 213.72 279.013 213.72C278.191 213.72 277.535 214.019 277.045 214.616C276.565 215.203 276.325 215.997 276.325 217C276.325 218.003 276.565 218.803 277.045 219.4C277.535 219.987 278.191 220.28 279.013 220.28ZM283.489 214.984C283.489 214.045 283.473 213.384 283.441 213H284.449C284.492 213.363 284.513 213.869 284.513 214.52H284.561C284.796 214.008 285.164 213.603 285.665 213.304C286.167 212.995 286.716 212.84 287.313 212.84C288.241 212.84 288.94 213.144 289.409 213.752C289.879 214.36 290.113 215.261 290.113 216.456V221H289.009V216.44C289.009 215.533 288.855 214.861 288.545 214.424C288.236 213.976 287.767 213.752 287.137 213.752C286.657 213.752 286.225 213.88 285.841 214.136C285.457 214.381 285.153 214.723 284.929 215.16C284.716 215.597 284.609 216.088 284.609 216.632V221H283.489V214.984ZM297.201 215.256L293.969 209.8H295.345L297.921 214.408L300.481 209.8H301.873L298.625 215.256L302.033 221H300.673L297.921 216.2L295.169 221H293.793L297.201 215.256ZM303.551 211.448C303.295 211.448 303.087 211.373 302.927 211.224C302.778 211.075 302.703 210.877 302.703 210.632C302.703 210.376 302.778 210.173 302.927 210.024C303.087 209.875 303.295 209.8 303.551 209.8C303.807 209.8 304.01 209.875 304.159 210.024C304.319 210.173 304.399 210.376 304.399 210.632C304.399 210.877 304.319 211.075 304.159 211.224C304.01 211.373 303.807 211.448 303.551 211.448ZM302.991 213H304.111V221H302.991V213ZM308.884 221.16C308.116 221.16 307.444 220.989 306.868 220.648C306.303 220.307 305.866 219.821 305.556 219.192C305.247 218.563 305.092 217.832 305.092 217C305.092 216.168 305.247 215.437 305.556 214.808C305.866 214.179 306.303 213.693 306.868 213.352C307.444 213.011 308.116 212.84 308.884 212.84C309.652 212.84 310.319 213.011 310.884 213.352C311.46 213.693 311.903 214.179 312.212 214.808C312.522 215.437 312.676 216.168 312.676 217C312.676 217.832 312.522 218.563 312.212 219.192C311.903 219.821 311.46 220.307 310.884 220.648C310.319 220.989 309.652 221.16 308.884 221.16ZM308.884 220.28C309.706 220.28 310.356 219.987 310.836 219.4C311.327 218.803 311.572 218.003 311.572 217C311.572 215.997 311.327 215.203 310.836 214.616C310.356 214.019 309.706 213.72 308.884 213.72C308.063 213.72 307.407 214.019 306.916 214.616C306.436 215.203 306.196 215.997 306.196 217C306.196 218.003 306.436 218.803 306.916 219.4C307.407 219.987 308.063 220.28 308.884 220.28ZM313.361 214.984C313.361 214.045 313.345 213.384 313.313 213H314.321C314.364 213.363 314.385 213.869 314.385 214.52H314.433C314.668 214.008 315.036 213.603 315.537 213.304C316.039 212.995 316.588 212.84 317.185 212.84C318.113 212.84 318.812 213.144 319.281 213.752C319.751 214.36 319.985 215.261 319.985 216.456V221H318.881V216.44C318.881 215.533 318.727 214.861 318.417 214.424C318.108 213.976 317.639 213.752 317.009 213.752C316.529 213.752 316.097 213.88 315.713 214.136C315.329 214.381 315.025 214.723 314.801 215.16C314.588 215.597 314.481 216.088 314.481 216.632V221H313.361V214.984ZM321.984 221.16C321.717 221.16 321.499 221.075 321.328 220.904C321.168 220.723 321.088 220.493 321.088 220.216C321.088 219.939 321.168 219.715 321.328 219.544C321.499 219.373 321.717 219.288 321.984 219.288C322.251 219.288 322.464 219.373 322.624 219.544C322.784 219.715 322.864 219.939 322.864 220.216C322.864 220.493 322.784 220.723 322.624 220.904C322.464 221.075 322.251 221.16 321.984 221.16ZM141.376 233.8H147.84V234.792H142.56V238.6H147.28V239.608H142.56V244.008H147.84V245H141.376V233.8ZM155.006 237L151.998 245H150.958L147.95 237H149.102L151.486 243.72L153.854 237H155.006ZM161.46 241.448H155.636C155.7 242.333 155.951 243.016 156.388 243.496C156.836 243.976 157.439 244.216 158.196 244.216C158.676 244.216 159.113 244.115 159.508 243.912C159.903 243.699 160.228 243.405 160.484 243.032L161.14 243.656C160.831 244.136 160.415 244.509 159.892 244.776C159.38 245.032 158.804 245.16 158.164 245.16C157.023 245.16 156.127 244.797 155.476 244.072C154.836 243.336 154.516 242.317 154.516 241.016C154.516 239.715 154.831 238.696 155.46 237.96C156.1 237.213 156.98 236.84 158.1 236.84C159.156 236.84 159.977 237.197 160.564 237.912C161.161 238.627 161.46 239.624 161.46 240.904V241.448ZM160.436 240.456C160.436 239.624 160.223 238.968 159.796 238.488C159.369 237.997 158.793 237.752 158.068 237.752C157.343 237.752 156.767 237.997 156.34 238.488C155.924 238.979 155.689 239.677 155.636 240.584H160.436V240.456ZM162.256 238.952C162.256 238.045 162.24 237.395 162.208 237H163.232C163.275 237.416 163.296 237.885 163.296 238.408V238.6H163.328C163.531 238.035 163.846 237.603 164.272 237.304C164.71 236.995 165.216 236.84 165.792 236.84C165.984 236.84 166.139 236.856 166.256 236.888V237.816C166.086 237.795 165.91 237.784 165.728 237.784C165.291 237.784 164.891 237.917 164.528 238.184C164.166 238.451 163.878 238.819 163.664 239.288C163.462 239.757 163.36 240.275 163.36 240.84V245H162.256V238.952ZM172.48 237L169.648 245.064C169.253 246.163 168.779 246.973 168.224 247.496C167.68 248.029 167.029 248.296 166.272 248.296C165.984 248.296 165.728 248.264 165.504 248.2V247.368C165.685 247.421 165.893 247.448 166.128 247.448C166.693 247.448 167.168 247.24 167.552 246.824C167.947 246.408 168.341 245.683 168.736 244.648L165.76 237H166.96L169.232 243.448L171.264 237H172.48ZM175.444 245.16C174.761 245.16 174.233 244.947 173.86 244.52C173.487 244.083 173.3 243.469 173.3 242.68V237.88H171.86V237H173.3V234.84L174.34 234.504H174.404V237H176.66V237.88H174.404V242.536C174.404 243.133 174.505 243.571 174.708 243.848C174.911 244.115 175.231 244.248 175.668 244.248C176.095 244.248 176.452 244.184 176.74 244.056L176.836 244.904C176.484 245.075 176.02 245.16 175.444 245.16ZM177.609 233.128H178.713V238.392C178.969 237.923 179.342 237.549 179.833 237.272C180.334 236.984 180.878 236.84 181.465 236.84C182.403 236.84 183.123 237.149 183.625 237.768C184.126 238.387 184.377 239.277 184.377 240.44V245H183.273V240.424C183.273 239.549 183.102 238.883 182.761 238.424C182.43 237.955 181.95 237.72 181.321 237.72C180.83 237.72 180.387 237.848 179.993 238.104C179.598 238.349 179.283 238.696 179.049 239.144C178.825 239.581 178.713 240.077 178.713 240.632V245H177.609V233.128ZM186.355 235.448C186.099 235.448 185.891 235.373 185.731 235.224C185.582 235.075 185.507 234.877 185.507 234.632C185.507 234.376 185.582 234.173 185.731 234.024C185.891 233.875 186.099 233.8 186.355 233.8C186.611 233.8 186.814 233.875 186.963 234.024C187.123 234.173 187.203 234.376 187.203 234.632C187.203 234.877 187.123 235.075 186.963 235.224C186.814 235.373 186.611 235.448 186.355 235.448ZM185.795 237H186.915V245H185.795V237ZM188.329 238.984C188.329 238.045 188.313 237.384 188.281 237H189.289C189.331 237.363 189.353 237.869 189.353 238.52H189.401C189.635 238.008 190.003 237.603 190.505 237.304C191.006 236.995 191.555 236.84 192.153 236.84C193.081 236.84 193.779 237.144 194.249 237.752C194.718 238.36 194.953 239.261 194.953 240.456V245H193.849V240.44C193.849 239.533 193.694 238.861 193.385 238.424C193.075 237.976 192.606 237.752 191.977 237.752C191.497 237.752 191.065 237.88 190.681 238.136C190.297 238.381 189.993 238.723 189.769 239.16C189.555 239.597 189.449 240.088 189.449 240.632V245H188.329V238.984ZM202.584 237V244.76C202.584 246.019 202.274 246.973 201.656 247.624C201.048 248.275 200.157 248.6 198.984 248.6C197.928 248.6 196.984 248.371 196.152 247.912L196.52 247.064C196.936 247.267 197.336 247.411 197.72 247.496C198.104 247.592 198.514 247.64 198.952 247.64C199.826 247.64 200.477 247.389 200.904 246.888C201.33 246.397 201.544 245.635 201.544 244.6V243.8C201.309 244.216 200.968 244.547 200.52 244.792C200.082 245.027 199.581 245.144 199.016 245.144C197.97 245.144 197.144 244.765 196.536 244.008C195.938 243.24 195.64 242.189 195.64 240.856C195.64 239.619 195.938 238.643 196.536 237.928C197.144 237.203 197.965 236.84 199 236.84C199.544 236.84 200.029 236.957 200.456 237.192C200.893 237.427 201.234 237.763 201.48 238.2H201.512L201.672 237H202.584ZM201.48 240.456C201.48 239.613 201.266 238.947 200.84 238.456C200.424 237.965 199.858 237.72 199.144 237.72C198.408 237.72 197.826 238.003 197.4 238.568C196.973 239.133 196.76 239.907 196.76 240.888C196.76 241.933 196.968 242.755 197.384 243.352C197.81 243.939 198.397 244.232 199.144 244.232C199.869 244.232 200.44 244.013 200.856 243.576C201.272 243.128 201.48 242.52 201.48 241.752V240.456ZM209.066 245.16C208.287 245.16 207.647 244.936 207.146 244.488C206.645 244.029 206.394 243.443 206.394 242.728C206.394 241.939 206.687 241.325 207.274 240.888C207.871 240.44 208.703 240.216 209.77 240.216H211.562V239.784C211.562 239.123 211.391 238.621 211.05 238.28C210.719 237.928 210.229 237.752 209.578 237.752C209.098 237.752 208.655 237.859 208.25 238.072C207.855 238.275 207.535 238.573 207.29 238.968L206.682 238.264C207.023 237.805 207.445 237.453 207.946 237.208C208.447 236.963 209.013 236.84 209.642 236.84C210.613 236.84 211.359 237.085 211.882 237.576C212.415 238.067 212.682 238.76 212.682 239.656V243.496C212.682 243.891 212.741 244.392 212.858 245H211.898C211.823 244.765 211.754 244.371 211.69 243.816H211.658C211.359 244.243 210.986 244.573 210.538 244.808C210.09 245.043 209.599 245.16 209.066 245.16ZM209.178 244.264C209.605 244.264 209.999 244.179 210.362 244.008C210.725 243.837 211.013 243.608 211.226 243.32C211.45 243.021 211.562 242.707 211.562 242.376V241.064H209.722C209.007 241.064 208.453 241.208 208.058 241.496C207.674 241.784 207.482 242.195 207.482 242.728C207.482 243.187 207.637 243.56 207.946 243.848C208.255 244.125 208.666 244.264 209.178 244.264ZM223.206 237L221.206 245H220.182L218.134 238.168L216.07 245H215.046L213.062 237H214.23L215.622 243.56L217.606 237H218.646L220.63 243.56L222.022 237H223.206ZM229.963 241.448H224.139C224.203 242.333 224.453 243.016 224.891 243.496C225.339 243.976 225.941 244.216 226.699 244.216C227.179 244.216 227.616 244.115 228.011 243.912C228.405 243.699 228.731 243.405 228.987 243.032L229.643 243.656C229.333 244.136 228.917 244.509 228.395 244.776C227.883 245.032 227.307 245.16 226.667 245.16C225.525 245.16 224.629 244.797 223.979 244.072C223.339 243.336 223.019 242.317 223.019 241.016C223.019 239.715 223.333 238.696 223.963 237.96C224.603 237.213 225.483 236.84 226.603 236.84C227.659 236.84 228.48 237.197 229.067 237.912C229.664 238.627 229.963 239.624 229.963 240.904V241.448ZM228.939 240.456C228.939 239.624 228.725 238.968 228.299 238.488C227.872 237.997 227.296 237.752 226.571 237.752C225.845 237.752 225.269 237.997 224.843 238.488C224.427 238.979 224.192 239.677 224.139 240.584H228.939V240.456ZM233.055 245.16C232.49 245.16 231.973 245.043 231.503 244.808C231.045 244.573 230.714 244.264 230.511 243.88L231.247 243.368C231.439 243.667 231.695 243.896 232.015 244.056C232.335 244.205 232.698 244.28 233.103 244.28C233.583 244.28 233.978 244.141 234.287 243.864C234.597 243.576 234.751 243.213 234.751 242.776C234.751 242.424 234.623 242.131 234.367 241.896C234.122 241.651 233.69 241.411 233.071 241.176C232.186 240.845 231.562 240.504 231.199 240.152C230.847 239.8 230.671 239.363 230.671 238.84C230.671 238.243 230.906 237.763 231.375 237.4C231.845 237.027 232.469 236.84 233.247 236.84C233.749 236.84 234.207 236.952 234.623 237.176C235.05 237.4 235.365 237.704 235.567 238.088L234.863 238.6C234.501 238.013 233.957 237.72 233.231 237.72C232.805 237.72 232.453 237.821 232.175 238.024C231.909 238.227 231.775 238.488 231.775 238.808C231.775 239.117 231.909 239.384 232.175 239.608C232.442 239.821 232.938 240.061 233.663 240.328C234.453 240.637 235.018 240.979 235.359 241.352C235.701 241.725 235.871 242.189 235.871 242.744C235.871 243.469 235.615 244.056 235.103 244.504C234.591 244.941 233.909 245.16 233.055 245.16ZM239.906 245.16C239.138 245.16 238.466 244.989 237.89 244.648C237.325 244.307 236.888 243.821 236.578 243.192C236.269 242.563 236.114 241.832 236.114 241C236.114 240.168 236.269 239.437 236.578 238.808C236.888 238.179 237.325 237.693 237.89 237.352C238.466 237.011 239.138 236.84 239.906 236.84C240.674 236.84 241.341 237.011 241.906 237.352C242.482 237.693 242.925 238.179 243.234 238.808C243.544 239.437 243.698 240.168 243.698 241C243.698 241.832 243.544 242.563 243.234 243.192C242.925 243.821 242.482 244.307 241.906 244.648C241.341 244.989 240.674 245.16 239.906 245.16ZM239.906 244.28C240.728 244.28 241.378 243.987 241.858 243.4C242.349 242.803 242.594 242.003 242.594 241C242.594 239.997 242.349 239.203 241.858 238.616C241.378 238.019 240.728 237.72 239.906 237.72C239.085 237.72 238.429 238.019 237.938 238.616C237.458 239.203 237.218 239.997 237.218 241C237.218 242.003 237.458 242.803 237.938 243.4C238.429 243.987 239.085 244.28 239.906 244.28ZM244.399 238.984C244.399 238.259 244.378 237.597 244.335 237H245.327C245.359 237.299 245.375 237.773 245.375 238.424H245.423C245.658 237.933 245.999 237.549 246.447 237.272C246.906 236.984 247.412 236.84 247.967 236.84C248.543 236.84 249.034 236.995 249.439 237.304C249.855 237.603 250.132 238.019 250.271 238.552C250.484 238.029 250.826 237.613 251.295 237.304C251.775 236.995 252.308 236.84 252.895 236.84C253.77 236.84 254.452 237.128 254.943 237.704C255.434 238.269 255.679 239.053 255.679 240.056V245H254.575V240.12C254.575 239.352 254.41 238.765 254.079 238.36C253.748 237.955 253.274 237.752 252.655 237.752C252.058 237.752 251.562 237.981 251.167 238.44C250.772 238.888 250.575 239.453 250.575 240.136V245H249.487V240.216C249.487 238.573 248.884 237.752 247.679 237.752C247.295 237.752 246.932 237.864 246.591 238.088C246.26 238.312 245.994 238.616 245.791 239C245.599 239.373 245.503 239.768 245.503 240.184V245H244.399V238.984ZM263.341 241.448H257.517C257.581 242.333 257.832 243.016 258.269 243.496C258.717 243.976 259.32 244.216 260.077 244.216C260.557 244.216 260.995 244.115 261.389 243.912C261.784 243.699 262.109 243.405 262.365 243.032L263.021 243.656C262.712 244.136 262.296 244.509 261.773 244.776C261.261 245.032 260.685 245.16 260.045 245.16C258.904 245.16 258.008 244.797 257.357 244.072C256.717 243.336 256.397 242.317 256.397 241.016C256.397 239.715 256.712 238.696 257.341 237.96C257.981 237.213 258.861 236.84 259.981 236.84C261.037 236.84 261.859 237.197 262.445 237.912C263.043 238.627 263.341 239.624 263.341 240.904V241.448ZM262.317 240.456C262.317 239.624 262.104 238.968 261.677 238.488C261.251 237.997 260.675 237.752 259.949 237.752C259.224 237.752 258.648 237.997 258.221 238.488C257.805 238.979 257.571 239.677 257.517 240.584H262.317V240.456ZM269.355 245.16C268.576 245.16 267.936 244.936 267.435 244.488C266.933 244.029 266.683 243.443 266.683 242.728C266.683 241.939 266.976 241.325 267.563 240.888C268.16 240.44 268.992 240.216 270.059 240.216H271.851V239.784C271.851 239.123 271.68 238.621 271.339 238.28C271.008 237.928 270.517 237.752 269.867 237.752C269.387 237.752 268.944 237.859 268.539 238.072C268.144 238.275 267.824 238.573 267.579 238.968L266.971 238.264C267.312 237.805 267.733 237.453 268.235 237.208C268.736 236.963 269.301 236.84 269.931 236.84C270.901 236.84 271.648 237.085 272.171 237.576C272.704 238.067 272.971 238.76 272.971 239.656V243.496C272.971 243.891 273.029 244.392 273.147 245H272.187C272.112 244.765 272.043 244.371 271.979 243.816H271.947C271.648 244.243 271.275 244.573 270.827 244.808C270.379 245.043 269.888 245.16 269.355 245.16ZM269.467 244.264C269.893 244.264 270.288 244.179 270.651 244.008C271.013 243.837 271.301 243.608 271.515 243.32C271.739 243.021 271.851 242.707 271.851 242.376V241.064H270.011C269.296 241.064 268.741 241.208 268.347 241.496C267.963 241.784 267.771 242.195 267.771 242.728C267.771 243.187 267.925 243.56 268.235 243.848C268.544 244.125 268.955 244.264 269.467 244.264ZM276.919 245.16C276.236 245.16 275.708 244.947 275.335 244.52C274.962 244.083 274.775 243.469 274.775 242.68V237.88H273.335V237H274.775V234.84L275.815 234.504H275.879V237H278.135V237.88H275.879V242.536C275.879 243.133 275.98 243.571 276.183 243.848C276.386 244.115 276.706 244.248 277.143 244.248C277.57 244.248 277.927 244.184 278.215 244.056L278.311 244.904C277.959 245.075 277.495 245.16 276.919 245.16ZM285.421 245.16C284.653 245.16 283.981 244.989 283.405 244.648C282.839 244.307 282.402 243.821 282.093 243.192C281.783 242.563 281.629 241.832 281.629 241C281.629 240.168 281.783 239.437 282.093 238.808C282.402 238.179 282.839 237.693 283.405 237.352C283.981 237.011 284.653 236.84 285.421 236.84C286.189 236.84 286.855 237.011 287.421 237.352C287.997 237.693 288.439 238.179 288.749 238.808C289.058 239.437 289.213 240.168 289.213 241C289.213 241.832 289.058 242.563 288.749 243.192C288.439 243.821 287.997 244.307 287.421 244.648C286.855 244.989 286.189 245.16 285.421 245.16ZM285.421 244.28C286.242 244.28 286.893 243.987 287.373 243.4C287.863 242.803 288.109 242.003 288.109 241C288.109 239.997 287.863 239.203 287.373 238.616C286.893 238.019 286.242 237.72 285.421 237.72C284.599 237.72 283.943 238.019 283.453 238.616C282.973 239.203 282.733 239.997 282.733 241C282.733 242.003 282.973 242.803 283.453 243.4C283.943 243.987 284.599 244.28 285.421 244.28ZM289.897 238.984C289.897 238.045 289.881 237.384 289.849 237H290.857C290.9 237.363 290.921 237.869 290.921 238.52H290.969C291.204 238.008 291.572 237.603 292.073 237.304C292.575 236.995 293.124 236.84 293.721 236.84C294.649 236.84 295.348 237.144 295.817 237.752C296.287 238.36 296.521 239.261 296.521 240.456V245H295.417V240.44C295.417 239.533 295.263 238.861 294.953 238.424C294.644 237.976 294.175 237.752 293.545 237.752C293.065 237.752 292.633 237.88 292.249 238.136C291.865 238.381 291.561 238.723 291.337 239.16C291.124 239.597 291.017 240.088 291.017 240.632V245H289.897V238.984ZM304.168 241.448H298.344C298.408 242.333 298.659 243.016 299.096 243.496C299.544 243.976 300.147 244.216 300.904 244.216C301.384 244.216 301.822 244.115 302.216 243.912C302.611 243.699 302.936 243.405 303.192 243.032L303.848 243.656C303.539 244.136 303.123 244.509 302.6 244.776C302.088 245.032 301.512 245.16 300.872 245.16C299.731 245.16 298.835 244.797 298.184 244.072C297.544 243.336 297.224 242.317 297.224 241.016C297.224 239.715 297.539 238.696 298.168 237.96C298.808 237.213 299.688 236.84 300.808 236.84C301.864 236.84 302.686 237.197 303.272 237.912C303.87 238.627 304.168 239.624 304.168 240.904V241.448ZM303.144 240.456C303.144 239.624 302.931 238.968 302.504 238.488C302.078 237.997 301.502 237.752 300.776 237.752C300.051 237.752 299.475 237.997 299.048 238.488C298.632 238.979 298.398 239.677 298.344 240.584H303.144V240.456ZM307.878 238.984C307.878 238.301 307.856 237.64 307.814 237H308.822C308.854 237.384 308.87 237.832 308.87 238.344H308.902C309.115 237.907 309.462 237.549 309.942 237.272C310.432 236.984 310.955 236.84 311.51 236.84C312.544 236.84 313.355 237.208 313.942 237.944C314.528 238.68 314.822 239.699 314.822 241C314.822 241.832 314.683 242.563 314.406 243.192C314.128 243.821 313.734 244.307 313.222 244.648C312.72 244.989 312.134 245.16 311.462 245.16C310.918 245.16 310.427 245.043 309.99 244.808C309.552 244.563 309.232 244.237 309.03 243.832H308.982V248.872H307.878V238.984ZM311.334 244.28C312.059 244.28 312.635 243.981 313.062 243.384C313.499 242.776 313.718 241.965 313.718 240.952C313.718 239.949 313.51 239.165 313.094 238.6C312.678 238.035 312.096 237.752 311.35 237.752C310.656 237.752 310.086 237.981 309.638 238.44C309.2 238.899 308.982 239.485 308.982 240.2V241.592C308.982 242.403 309.195 243.053 309.622 243.544C310.059 244.035 310.63 244.28 311.334 244.28ZM317.287 245.16C316.209 245.16 315.671 244.493 315.671 243.16V233.128H316.791V243.144C316.791 243.571 316.849 243.869 316.967 244.04C317.095 244.211 317.313 244.296 317.623 244.296C317.836 244.296 318.092 244.237 318.391 244.12L318.583 244.808C318.199 245.043 317.767 245.16 317.287 245.16ZM321.512 245.16C320.733 245.16 320.093 244.936 319.592 244.488C319.09 244.029 318.84 243.443 318.84 242.728C318.84 241.939 319.133 241.325 319.72 240.888C320.317 240.44 321.149 240.216 322.216 240.216H324.008V239.784C324.008 239.123 323.837 238.621 323.496 238.28C323.165 237.928 322.674 237.752 322.024 237.752C321.544 237.752 321.101 237.859 320.696 238.072C320.301 238.275 319.981 238.573 319.736 238.968L319.128 238.264C319.469 237.805 319.89 237.453 320.392 237.208C320.893 236.963 321.458 236.84 322.088 236.84C323.058 236.84 323.805 237.085 324.328 237.576C324.861 238.067 325.128 238.76 325.128 239.656V243.496C325.128 243.891 325.186 244.392 325.304 245H324.344C324.269 244.765 324.2 244.371 324.136 243.816H324.104C323.805 244.243 323.432 244.573 322.984 244.808C322.536 245.043 322.045 245.16 321.512 245.16ZM321.624 244.264C322.05 244.264 322.445 244.179 322.808 244.008C323.17 243.837 323.458 243.608 323.672 243.32C323.896 243.021 324.008 242.707 324.008 242.376V241.064H322.168C321.453 241.064 320.898 241.208 320.504 241.496C320.12 241.784 319.928 242.195 319.928 242.728C319.928 243.187 320.082 243.56 320.392 243.848C320.701 244.125 321.112 244.264 321.624 244.264ZM329.588 245.16C328.436 245.16 327.535 244.797 326.884 244.072C326.244 243.336 325.924 242.312 325.924 241C325.924 239.688 326.244 238.669 326.884 237.944C327.535 237.208 328.436 236.84 329.588 236.84C330.239 236.84 330.815 236.968 331.316 237.224C331.817 237.469 332.217 237.837 332.516 238.328L331.844 238.952C331.609 238.568 331.295 238.275 330.9 238.072C330.505 237.859 330.079 237.752 329.62 237.752C328.809 237.752 328.175 238.04 327.716 238.616C327.268 239.181 327.044 239.976 327.044 241C327.044 242.013 327.268 242.808 327.716 243.384C328.175 243.96 328.809 244.248 329.62 244.248C330.079 244.248 330.505 244.147 330.9 243.944C331.295 243.731 331.609 243.432 331.844 243.048L332.516 243.672C332.217 244.163 331.817 244.536 331.316 244.792C330.815 245.037 330.239 245.16 329.588 245.16ZM339.393 241.448H333.569C333.633 242.333 333.883 243.016 334.321 243.496C334.769 243.976 335.371 244.216 336.129 244.216C336.609 244.216 337.046 244.115 337.441 243.912C337.835 243.699 338.161 243.405 338.417 243.032L339.073 243.656C338.763 244.136 338.347 244.509 337.825 244.776C337.313 245.032 336.737 245.16 336.097 245.16C334.955 245.16 334.059 244.797 333.409 244.072C332.769 243.336 332.449 242.317 332.449 241.016C332.449 239.715 332.763 238.696 333.393 237.96C334.033 237.213 334.913 236.84 336.033 236.84C337.089 236.84 337.91 237.197 338.497 237.912C339.094 238.627 339.393 239.624 339.393 240.904V241.448ZM338.369 240.456C338.369 239.624 338.155 238.968 337.729 238.488C337.302 237.997 336.726 237.752 336.001 237.752C335.275 237.752 334.699 237.997 334.273 238.488C333.857 238.979 333.622 239.677 333.569 240.584H338.369V240.456ZM340.457 245.16C340.19 245.16 339.971 245.075 339.801 244.904C339.641 244.723 339.561 244.493 339.561 244.216C339.561 243.939 339.641 243.715 339.801 243.544C339.971 243.373 340.19 243.288 340.457 243.288C340.723 243.288 340.937 243.373 341.097 243.544C341.257 243.715 341.337 243.939 341.337 244.216C341.337 244.493 341.257 244.723 341.097 244.904C340.937 245.075 340.723 245.16 340.457 245.16Z" fill="#A9A9A9"/>
    <path d="M1257 418.082C1223.29 418.082 1195.85 390.646 1195.85 356.934C1195.85 323.223 1223.29 295.787 1257 295.787C1290.71 295.787 1318.15 323.223 1318.15 356.934C1318.15 390.646 1290.71 418.082 1257 418.082ZM1257 296.156C1223.5 296.156 1196.22 323.415 1196.22 356.934C1196.22 390.454 1223.48 417.713 1257 417.713C1290.5 417.713 1317.78 390.454 1317.78 356.934C1317.78 323.415 1290.5 296.156 1257 296.156Z" fill="#6FFFE9"/>
    <path d="M1257 470C1226.29 470 1197.4 458.039 1175.68 436.318C1153.96 414.597 1142 385.714 1142 355C1142 324.286 1153.96 295.403 1175.68 273.682C1197.4 251.961 1226.29 240 1257 240C1287.71 240 1316.6 251.961 1338.32 273.682C1360.04 295.403 1372 324.286 1372 355C1372 385.714 1360.04 414.597 1338.32 436.318C1316.6 458.039 1287.71 470 1257 470ZM1257 240.369C1193.79 240.369 1142.37 291.8 1142.37 355C1142.37 418.2 1193.8 469.631 1257 469.631C1320.21 469.631 1371.63 418.2 1371.63 355C1371.63 291.8 1320.2 240.369 1257 240.369Z" fill="#6FFFE9"/>
    <g filter="url(#filter0_d_8_1039)">
    <rect x="145.5" y="457.5" width="149" height="40" rx="9.5" stroke="#979DAA" shape-rendering="crispEdges"/>
    <path d="M164.384 484.16C163.541 484.16 162.779 483.989 162.096 483.648C161.424 483.307 160.875 482.816 160.448 482.176L161.776 480.896C162.128 481.312 162.555 481.653 163.056 481.92C163.557 482.187 164.027 482.32 164.464 482.32C164.955 482.32 165.349 482.208 165.648 481.984C165.947 481.76 166.096 481.467 166.096 481.104C166.096 480.837 166.048 480.619 165.952 480.448C165.856 480.277 165.675 480.107 165.408 479.936C165.141 479.755 164.704 479.515 164.096 479.216C163.296 478.821 162.667 478.453 162.208 478.112C161.749 477.771 161.408 477.403 161.184 477.008C160.971 476.603 160.864 476.133 160.864 475.6C160.864 475.013 161.019 474.496 161.328 474.048C161.637 473.6 162.075 473.253 162.64 473.008C163.205 472.763 163.856 472.64 164.592 472.64C165.403 472.64 166.117 472.795 166.736 473.104C167.365 473.413 167.824 473.84 168.112 474.384L166.656 475.472C166.123 474.811 165.467 474.48 164.688 474.48C164.197 474.48 163.819 474.576 163.552 474.768C163.285 474.96 163.152 475.232 163.152 475.584C163.152 475.797 163.216 475.989 163.344 476.16C163.483 476.331 163.728 476.517 164.08 476.72C164.432 476.923 164.96 477.189 165.664 477.52C166.347 477.84 166.88 478.16 167.264 478.48C167.659 478.8 167.941 479.157 168.112 479.552C168.283 479.947 168.368 480.416 168.368 480.96C168.368 481.6 168.203 482.165 167.872 482.656C167.552 483.136 167.088 483.509 166.48 483.776C165.883 484.032 165.184 484.16 164.384 484.16ZM173.069 484.16C172.247 484.16 171.607 483.936 171.149 483.488C170.69 483.04 170.461 482.411 170.461 481.6V477.52H169.005V476H170.461V473.936L172.445 473.36H172.509V476H174.829V477.52H172.509V481.296C172.509 481.755 172.615 482.091 172.829 482.304C173.042 482.517 173.367 482.624 173.805 482.624C174.221 482.624 174.61 482.56 174.973 482.432L175.069 483.824C174.589 484.048 173.922 484.16 173.069 484.16ZM178.747 484.16C178.225 484.16 177.755 484.053 177.339 483.84C176.923 483.616 176.598 483.312 176.363 482.928C176.129 482.533 176.011 482.096 176.011 481.616C176.011 480.795 176.337 480.165 176.987 479.728C177.638 479.291 178.566 479.072 179.771 479.072H181.019V478.736C181.019 478.309 180.891 477.984 180.635 477.76C180.39 477.525 180.038 477.408 179.579 477.408C179.099 477.408 178.641 477.493 178.203 477.664C177.766 477.835 177.409 478.069 177.131 478.368L176.235 477.184C176.673 476.768 177.19 476.443 177.787 476.208C178.385 475.963 179.003 475.84 179.643 475.84C180.71 475.84 181.547 476.091 182.155 476.592C182.763 477.093 183.067 477.787 183.067 478.672V482.32C183.067 482.565 183.083 482.853 183.115 483.184C183.158 483.515 183.206 483.787 183.259 484H181.451C181.387 483.861 181.339 483.728 181.307 483.6C181.275 483.461 181.249 483.275 181.227 483.04H181.195C180.587 483.787 179.771 484.16 178.747 484.16ZM179.243 482.624C179.755 482.624 180.177 482.496 180.507 482.24C180.849 481.973 181.019 481.637 181.019 481.232V480.432H179.707C179.163 480.432 178.742 480.533 178.443 480.736C178.155 480.939 178.011 481.232 178.011 481.616C178.011 481.936 178.118 482.187 178.331 482.368C178.555 482.539 178.859 482.624 179.243 482.624ZM184.864 477.952C184.864 477.045 184.848 476.395 184.816 476H186.752C186.795 476.416 186.816 476.885 186.816 477.408V477.568H186.88C187.083 477.045 187.44 476.629 187.952 476.32C188.464 476 189.051 475.84 189.712 475.84C189.84 475.84 190 475.856 190.192 475.888V477.504C190.149 477.483 190.021 477.472 189.808 477.472C189.296 477.472 188.816 477.611 188.368 477.888C187.931 478.165 187.579 478.539 187.312 479.008C187.045 479.467 186.912 479.963 186.912 480.496V484H184.864V477.952ZM194.615 484.16C193.794 484.16 193.154 483.936 192.695 483.488C192.237 483.04 192.007 482.411 192.007 481.6V477.52H190.551V476H192.007V473.936L193.991 473.36H194.055V476H196.375V477.52H194.055V481.296C194.055 481.755 194.162 482.091 194.375 482.304C194.589 482.517 194.914 482.624 195.351 482.624C195.767 482.624 196.157 482.56 196.519 482.432L196.615 483.824C196.135 484.048 195.469 484.16 194.615 484.16ZM201.901 472.8H205.533C206.823 472.8 207.805 473.04 208.477 473.52C209.149 473.989 209.485 474.683 209.485 475.6C209.485 476.133 209.362 476.592 209.117 476.976C208.871 477.36 208.487 477.685 207.965 477.952V478C208.647 478.256 209.138 478.597 209.437 479.024C209.746 479.451 209.901 480.011 209.901 480.704C209.901 481.771 209.586 482.587 208.957 483.152C208.338 483.717 207.431 484 206.237 484H201.901V472.8ZM205.741 477.264C206.189 477.264 206.535 477.141 206.781 476.896C207.037 476.64 207.165 476.288 207.165 475.84C207.165 475.403 207.021 475.083 206.733 474.88C206.455 474.677 206.023 474.576 205.437 474.576H204.205V477.264H205.741ZM206.061 482.224C206.562 482.224 206.946 482.08 207.213 481.792C207.49 481.504 207.629 481.093 207.629 480.56C207.629 479.995 207.463 479.584 207.133 479.328C206.802 479.072 206.269 478.944 205.533 478.944H204.205V482.224H206.061ZM214.084 484.16C213.166 484.16 212.468 483.851 211.988 483.232C211.518 482.613 211.284 481.707 211.284 480.512V476H213.332V480.528C213.332 481.211 213.444 481.712 213.668 482.032C213.892 482.352 214.238 482.512 214.708 482.512C215.273 482.512 215.737 482.299 216.1 481.872C216.462 481.435 216.644 480.896 216.644 480.256V476H218.692V481.968C218.692 482.512 218.734 483.189 218.82 484H216.884C216.798 483.52 216.75 483.051 216.74 482.592H216.708C216.516 483.072 216.18 483.456 215.7 483.744C215.23 484.021 214.692 484.16 214.084 484.16ZM221.66 475.072C221.266 475.072 220.951 474.965 220.716 474.752C220.482 474.528 220.364 474.235 220.364 473.872C220.364 473.509 220.482 473.221 220.716 473.008C220.951 472.784 221.266 472.672 221.66 472.672C222.055 472.672 222.37 472.784 222.604 473.008C222.85 473.221 222.972 473.509 222.972 473.872C222.972 474.235 222.855 474.528 222.62 474.752C222.386 474.965 222.066 475.072 221.66 475.072ZM220.652 476H222.684V484H220.652V476ZM226.867 484.16C226.185 484.16 225.662 483.979 225.299 483.616C224.947 483.243 224.771 482.709 224.771 482.016V472.128H226.803V482.048C226.803 482.283 226.862 482.459 226.979 482.576C227.107 482.683 227.294 482.736 227.539 482.736C227.785 482.736 228.089 482.667 228.451 482.528L228.755 483.616C228.275 483.979 227.646 484.16 226.867 484.16ZM232.167 484.16C231.122 484.16 230.295 483.781 229.687 483.024C229.09 482.256 228.791 481.205 228.791 479.872C228.791 479.061 228.93 478.352 229.207 477.744C229.485 477.136 229.879 476.667 230.391 476.336C230.914 476.005 231.522 475.84 232.215 475.84C232.685 475.84 233.095 475.92 233.447 476.08C233.81 476.24 234.125 476.485 234.391 476.816H234.423V472.128H236.455V481.872C236.455 482.981 236.471 483.691 236.503 484H234.583C234.573 483.819 234.567 483.467 234.567 482.944H234.535C234.29 483.307 233.949 483.6 233.511 483.824C233.085 484.048 232.637 484.16 232.167 484.16ZM232.567 482.592C233.133 482.592 233.581 482.432 233.911 482.112C234.253 481.781 234.423 481.349 234.423 480.816V479.168C234.423 478.645 234.247 478.213 233.895 477.872C233.543 477.531 233.101 477.36 232.567 477.36C232.002 477.36 231.57 477.579 231.271 478.016C230.973 478.453 230.823 479.083 230.823 479.904C230.823 480.768 230.973 481.435 231.271 481.904C231.57 482.363 232.002 482.592 232.567 482.592ZM239.457 475.072C239.063 475.072 238.748 474.965 238.513 474.752C238.279 474.528 238.161 474.235 238.161 473.872C238.161 473.509 238.279 473.221 238.513 473.008C238.748 472.784 239.063 472.672 239.457 472.672C239.852 472.672 240.167 472.784 240.401 473.008C240.647 473.221 240.769 473.509 240.769 473.872C240.769 474.235 240.652 474.528 240.417 474.752C240.183 474.965 239.863 475.072 239.457 475.072ZM238.449 476H240.481V484H238.449V476ZM242.408 478.112C242.408 477.141 242.387 476.437 242.344 476H244.264C244.318 476.448 244.344 476.912 244.344 477.392H244.392C244.584 476.923 244.92 476.549 245.4 476.272C245.891 475.984 246.435 475.84 247.032 475.84C247.95 475.84 248.643 476.149 249.112 476.768C249.582 477.387 249.816 478.299 249.816 479.504V484H247.784V479.488C247.784 478.795 247.672 478.288 247.448 477.968C247.224 477.648 246.867 477.488 246.376 477.488C245.811 477.488 245.347 477.691 244.984 478.096C244.632 478.491 244.456 479.003 244.456 479.632V484H242.408V478.112ZM258.768 476V483.68C258.768 485.035 258.432 486.053 257.76 486.736C257.088 487.429 256.091 487.776 254.768 487.776C254.149 487.776 253.563 487.701 253.008 487.552C252.464 487.403 251.979 487.189 251.552 486.912L252.24 485.52C252.624 485.712 253.029 485.861 253.456 485.968C253.883 486.085 254.288 486.144 254.672 486.144C255.397 486.144 255.936 485.915 256.288 485.456C256.64 485.008 256.816 484.325 256.816 483.408V483.152C256.603 483.44 256.309 483.664 255.936 483.824C255.563 483.973 255.12 484.048 254.608 484.048C253.499 484.048 252.635 483.685 252.016 482.96C251.408 482.235 251.104 481.211 251.104 479.888C251.104 478.608 251.397 477.616 251.984 476.912C252.571 476.197 253.397 475.84 254.464 475.84C255.573 475.84 256.379 476.229 256.88 477.008H256.912L257.072 476H258.768ZM256.736 479.504C256.736 478.811 256.587 478.283 256.288 477.92C255.989 477.547 255.557 477.36 254.992 477.36C254.395 477.36 253.936 477.584 253.616 478.032C253.296 478.469 253.136 479.104 253.136 479.936C253.136 480.768 253.291 481.397 253.6 481.824C253.92 482.251 254.384 482.464 254.992 482.464C255.557 482.464 255.989 482.299 256.288 481.968C256.587 481.627 256.736 481.147 256.736 480.528V479.504Z" fill="#919191"/>
    <g clip-path="url(#clip0_8_1039)">
    <path d="M276.875 473.75C276.875 473.584 276.809 473.425 276.692 473.308C276.575 473.191 276.416 473.125 276.25 473.125H271.25C271.084 473.125 270.925 473.191 270.808 473.308C270.691 473.425 270.625 473.584 270.625 473.75C270.625 473.916 270.691 474.075 270.808 474.192C270.925 474.309 271.084 474.375 271.25 474.375H274.741L268.523 480.594C268.409 480.712 268.346 480.87 268.347 481.033C268.349 481.197 268.414 481.354 268.53 481.47C268.646 481.586 268.803 481.651 268.967 481.653C269.13 481.654 269.288 481.591 269.406 481.477L275.625 475.259V478.75C275.625 478.916 275.691 479.075 275.808 479.192C275.925 479.309 276.084 479.375 276.25 479.375C276.416 479.375 276.575 479.309 276.692 479.192C276.809 479.075 276.875 478.916 276.875 478.75V473.75Z" fill="#919191"/>
    </g>
    </g>
    <g filter="url(#filter1_d_8_1039)">
    <rect x="371" y="457" width="131" height="41" rx="10" fill="#5BC0BE"/>
    <rect x="371.5" y="457.5" width="130" height="40" rx="9.5" stroke="#3A506B"/>
    <path d="M384.152 484.16C383.555 484.16 382.984 484.059 382.44 483.856C381.907 483.653 381.453 483.371 381.08 483.008L381.992 481.456C382.291 481.733 382.616 481.947 382.968 482.096C383.32 482.245 383.677 482.32 384.04 482.32C384.563 482.32 384.936 482.149 385.16 481.808C385.384 481.467 385.496 480.912 385.496 480.144V472.8H387.8V480.4C387.8 481.669 387.501 482.613 386.904 483.232C386.307 483.851 385.389 484.16 384.152 484.16ZM393.499 484.16C392.208 484.16 391.2 483.792 390.475 483.056C389.75 482.32 389.387 481.301 389.387 480C389.387 478.699 389.75 477.68 390.475 476.944C391.2 476.208 392.208 475.84 393.499 475.84C394.79 475.84 395.798 476.208 396.523 476.944C397.259 477.68 397.627 478.699 397.627 480C397.627 481.301 397.259 482.32 396.523 483.056C395.798 483.792 394.79 484.16 393.499 484.16ZM393.499 482.64C394.15 482.64 394.662 482.405 395.035 481.936C395.408 481.467 395.595 480.821 395.595 480C395.595 479.179 395.408 478.533 395.035 478.064C394.662 477.595 394.15 477.36 393.499 477.36C392.848 477.36 392.336 477.595 391.963 478.064C391.6 478.533 391.419 479.179 391.419 480C391.419 480.821 391.6 481.467 391.963 481.936C392.336 482.405 392.848 482.64 393.499 482.64ZM400.317 475.072C399.922 475.072 399.607 474.965 399.373 474.752C399.138 474.528 399.021 474.235 399.021 473.872C399.021 473.509 399.138 473.221 399.373 473.008C399.607 472.784 399.922 472.672 400.317 472.672C400.711 472.672 401.026 472.784 401.261 473.008C401.506 473.221 401.629 473.509 401.629 473.872C401.629 474.235 401.511 474.528 401.277 474.752C401.042 474.965 400.722 475.072 400.317 475.072ZM399.309 476H401.341V484H399.309V476ZM403.268 478.112C403.268 477.141 403.246 476.437 403.204 476H405.124C405.177 476.448 405.204 476.912 405.204 477.392H405.252C405.444 476.923 405.78 476.549 406.26 476.272C406.75 475.984 407.294 475.84 407.892 475.84C408.809 475.84 409.502 476.149 409.972 476.768C410.441 477.387 410.676 478.299 410.676 479.504V484H408.644V479.488C408.644 478.795 408.532 478.288 408.308 477.968C408.084 477.648 407.726 477.488 407.236 477.488C406.67 477.488 406.206 477.691 405.844 478.096C405.492 478.491 405.316 479.003 405.316 479.632V484H403.268V478.112ZM428.85 472.8L426.498 484H424.306L422.258 475.664L420.21 484H418.018L415.666 472.8H418.114L419.33 480.208L421.17 472.8H423.346L425.186 480.208L426.402 472.8H428.85ZM432.154 484.16C431.631 484.16 431.162 484.053 430.746 483.84C430.33 483.616 430.004 483.312 429.77 482.928C429.535 482.533 429.418 482.096 429.418 481.616C429.418 480.795 429.743 480.165 430.394 479.728C431.044 479.291 431.972 479.072 433.178 479.072H434.426V478.736C434.426 478.309 434.298 477.984 434.042 477.76C433.796 477.525 433.444 477.408 432.986 477.408C432.506 477.408 432.047 477.493 431.61 477.664C431.172 477.835 430.815 478.069 430.538 478.368L429.642 477.184C430.079 476.768 430.596 476.443 431.194 476.208C431.791 475.963 432.41 475.84 433.049 475.84C434.116 475.84 434.954 476.091 435.562 476.592C436.17 477.093 436.474 477.787 436.474 478.672V482.32C436.474 482.565 436.49 482.853 436.522 483.184C436.564 483.515 436.612 483.787 436.666 484H434.858C434.794 483.861 434.746 483.728 434.714 483.6C434.682 483.461 434.655 483.275 434.634 483.04H434.602C433.994 483.787 433.178 484.16 432.154 484.16ZM432.65 482.624C433.162 482.624 433.583 482.496 433.914 482.24C434.255 481.973 434.426 481.637 434.426 481.232V480.432H433.114C432.57 480.432 432.148 480.533 431.85 480.736C431.562 480.939 431.418 481.232 431.418 481.616C431.418 481.936 431.524 482.187 431.738 482.368C431.962 482.539 432.266 482.624 432.65 482.624ZM439.582 475.072C439.188 475.072 438.873 474.965 438.638 474.752C438.404 474.528 438.286 474.235 438.286 473.872C438.286 473.509 438.404 473.221 438.638 473.008C438.873 472.784 439.188 472.672 439.582 472.672C439.977 472.672 440.292 472.784 440.526 473.008C440.772 473.221 440.894 473.509 440.894 473.872C440.894 474.235 440.777 474.528 440.542 474.752C440.308 474.965 439.988 475.072 439.582 475.072ZM438.574 476H440.606V484H438.574V476ZM446.037 484.16C445.216 484.16 444.576 483.936 444.117 483.488C443.659 483.04 443.429 482.411 443.429 481.6V477.52H441.973V476H443.429V473.936L445.413 473.36H445.477V476H447.797V477.52H445.477V481.296C445.477 481.755 445.584 482.091 445.797 482.304C446.011 482.517 446.336 482.624 446.773 482.624C447.189 482.624 447.579 482.56 447.941 482.432L448.037 483.824C447.557 484.048 446.891 484.16 446.037 484.16ZM451.508 484.16C450.825 484.16 450.303 483.979 449.94 483.616C449.588 483.243 449.412 482.709 449.412 482.016V472.128H451.444V482.048C451.444 482.283 451.503 482.459 451.62 482.576C451.748 482.683 451.935 482.736 452.18 482.736C452.425 482.736 452.729 482.667 453.092 482.528L453.396 483.616C452.916 483.979 452.287 484.16 451.508 484.16ZM455.489 475.072C455.094 475.072 454.779 474.965 454.545 474.752C454.31 474.528 454.193 474.235 454.193 473.872C454.193 473.509 454.31 473.221 454.545 473.008C454.779 472.784 455.094 472.672 455.489 472.672C455.883 472.672 456.198 472.784 456.433 473.008C456.678 473.221 456.801 473.509 456.801 473.872C456.801 474.235 456.683 474.528 456.449 474.752C456.214 474.965 455.894 475.072 455.489 475.072ZM454.481 476H456.513V484H454.481V476ZM461.064 484.16C460.37 484.16 459.757 484.021 459.224 483.744C458.701 483.467 458.333 483.099 458.12 482.64L459.384 481.76C459.576 482.027 459.821 482.24 460.12 482.4C460.418 482.56 460.722 482.64 461.032 482.64C461.394 482.64 461.693 482.549 461.928 482.368C462.162 482.176 462.28 481.941 462.28 481.664C462.28 481.44 462.194 481.264 462.024 481.136C461.853 480.997 461.49 480.821 460.936 480.608C459.965 480.235 459.282 479.856 458.888 479.472C458.493 479.088 458.296 478.613 458.296 478.048C458.296 477.387 458.562 476.853 459.096 476.448C459.64 476.043 460.36 475.84 461.256 475.84C461.853 475.84 462.392 475.957 462.872 476.192C463.352 476.416 463.741 476.741 464.04 477.168L462.856 478.048C462.482 477.589 461.976 477.36 461.336 477.36C461.016 477.36 460.765 477.419 460.584 477.536C460.413 477.643 460.328 477.803 460.328 478.016C460.328 478.165 460.365 478.288 460.44 478.384C460.514 478.48 460.658 478.581 460.872 478.688C461.085 478.795 461.426 478.939 461.896 479.12C462.525 479.365 463.01 479.605 463.352 479.84C463.704 480.064 463.949 480.315 464.088 480.592C464.237 480.859 464.312 481.184 464.312 481.568C464.312 482.08 464.173 482.533 463.896 482.928C463.629 483.312 463.25 483.616 462.76 483.84C462.269 484.053 461.704 484.16 461.064 484.16ZM469.006 484.16C468.185 484.16 467.545 483.936 467.086 483.488C466.627 483.04 466.398 482.411 466.398 481.6V477.52H464.942V476H466.398V473.936L468.382 473.36H468.446V476H470.766V477.52H468.446V481.296C468.446 481.755 468.553 482.091 468.766 482.304C468.979 482.517 469.305 482.624 469.742 482.624C470.158 482.624 470.547 482.56 470.91 482.432L471.006 483.824C470.526 484.048 469.859 484.16 469.006 484.16Z" fill="#040404"/>
    <g clip-path="url(#clip1_8_1039)">
    <path d="M488.875 473.75C488.875 473.584 488.809 473.425 488.692 473.308C488.575 473.191 488.416 473.125 488.25 473.125H483.25C483.084 473.125 482.925 473.191 482.808 473.308C482.691 473.425 482.625 473.584 482.625 473.75C482.625 473.916 482.691 474.075 482.808 474.192C482.925 474.309 483.084 474.375 483.25 474.375H486.741L480.523 480.594C480.409 480.712 480.346 480.87 480.347 481.033C480.349 481.197 480.414 481.354 480.53 481.47C480.646 481.586 480.803 481.651 480.967 481.653C481.13 481.654 481.288 481.591 481.406 481.477L487.625 475.259V478.75C487.625 478.916 487.691 479.075 487.808 479.192C487.925 479.309 488.084 479.375 488.25 479.375C488.416 479.375 488.575 479.309 488.692 479.192C488.809 479.075 488.875 478.916 488.875 478.75V473.75Z" fill="#040404"/>
    </g>
    </g>
    <defs>
    <filter id="filter0_d_8_1039" x="141" y="456" width="158" height="49" filterUnits="userSpaceOnUse" color-interpolation-filters="sRGB">
    <feFlood flood-opacity="0" result="BackgroundImageFix"/>
    <feColorMatrix in="SourceAlpha" type="matrix" values="0 0 0 0 0 0 0 0 0 0 0 0 0 0 0 0 0 0 127 0" result="hardAlpha"/>
    <feOffset dy="3"/>
    <feGaussianBlur stdDeviation="2"/>
    <feComposite in2="hardAlpha" operator="out"/>
    <feColorMatrix type="matrix" values="0 0 0 0 0.403922 0 0 0 0 0.901961 0 0 0 0 0.847059 0 0 0 0.6 0"/>
    <feBlend mode="normal" in2="BackgroundImageFix" result="effect1_dropShadow_8_1039"/>
    <feBlend mode="normal" in="SourceGraphic" in2="effect1_dropShadow_8_1039" result="shape"/>
    </filter>
    <filter id="filter1_d_8_1039" x="367" y="456" width="139" height="49" filterUnits="userSpaceOnUse" color-interpolation-filters="sRGB">
    <feFlood flood-opacity="0" result="BackgroundImageFix"/>
    <feColorMatrix in="SourceAlpha" type="matrix" values="0 0 0 0 0 0 0 0 0 0 0 0 0 0 0 0 0 0 127 0" result="hardAlpha"/>
    <feOffset dy="3"/>
    <feGaussianBlur stdDeviation="2"/>
    <feComposite in2="hardAlpha" operator="out"/>
    <feColorMatrix type="matrix" values="0 0 0 0 0.403922 0 0 0 0 0.901961 0 0 0 0 0.847059 0 0 0 0.6 0"/>
    <feBlend mode="normal" in2="BackgroundImageFix" result="effect1_dropShadow_8_1039"/>
    <feBlend mode="normal" in="SourceGraphic" in2="effect1_dropShadow_8_1039" result="shape"/>
    </filter>
    <clipPath id="clip0_8_1039">
    <rect width="15" height="15" fill="white" transform="matrix(-1 0 0 1 280 470)"/>
    </clipPath>
    <clipPath id="clip1_8_1039">
    <rect width="15" height="15" fill="white" transform="matrix(-1 0 0 1 492 470)"/>
    </clipPath>
    </defs>
    </svg>
    