<svg width="970" height="398" viewBox="0 0 970 398" fill="none" xmlns="http://www.w3.org/2000/svg">
    <path d="M261.274 48.42C259.706 48.42 258.208 48.154 256.78 47.622C255.38 47.09 254.19 46.348 253.21 45.396L255.604 41.322C256.388 42.05 257.242 42.61 258.166 43.002C259.09 43.394 260.028 43.59 260.98 43.59C262.352 43.59 263.332 43.142 263.92 42.246C264.508 41.35 264.802 39.894 264.802 37.878V18.6H270.85V38.55C270.85 41.882 270.066 44.36 268.498 45.984C266.93 47.608 264.522 48.42 261.274 48.42ZM284.13 48.42C280.742 48.42 278.096 47.454 276.192 45.522C274.288 43.59 273.336 40.916 273.336 37.5C273.336 34.084 274.288 31.41 276.192 29.478C278.096 27.546 280.742 26.58 284.13 26.58C287.518 26.58 290.164 27.546 292.068 29.478C294 31.41 294.966 34.084 294.966 37.5C294.966 40.916 294 43.59 292.068 45.522C290.164 47.454 287.518 48.42 284.13 48.42ZM284.13 44.43C285.838 44.43 287.182 43.814 288.162 42.582C289.142 41.35 289.632 39.656 289.632 37.5C289.632 35.344 289.142 33.65 288.162 32.418C287.182 31.186 285.838 30.57 284.13 30.57C282.422 30.57 281.078 31.186 280.098 32.418C279.146 33.65 278.67 35.344 278.67 37.5C278.67 39.656 279.146 41.35 280.098 42.582C281.078 43.814 282.422 44.43 284.13 44.43ZM300.346 24.564C299.31 24.564 298.484 24.284 297.868 23.724C297.252 23.136 296.944 22.366 296.944 21.414C296.944 20.462 297.252 19.706 297.868 19.146C298.484 18.558 299.31 18.264 300.346 18.264C301.382 18.264 302.208 18.558 302.824 19.146C303.468 19.706 303.79 20.462 303.79 21.414C303.79 22.366 303.482 23.136 302.866 23.724C302.25 24.284 301.41 24.564 300.346 24.564ZM297.7 27H303.034V48H297.7V27ZM306.413 32.544C306.413 29.996 306.357 28.148 306.245 27H311.285C311.425 28.176 311.495 29.394 311.495 30.654H311.621C312.125 29.422 313.007 28.442 314.267 27.714C315.555 26.958 316.983 26.58 318.551 26.58C320.959 26.58 322.779 27.392 324.011 29.016C325.243 30.64 325.859 33.034 325.859 36.198V48H320.525V36.156C320.525 34.336 320.231 33.006 319.643 32.166C319.055 31.326 318.117 30.906 316.829 30.906C315.345 30.906 314.127 31.438 313.175 32.502C312.251 33.538 311.789 34.882 311.789 36.534V48H306.413V32.544ZM349.037 48.42C346.321 48.42 343.969 47.818 341.981 46.614C339.993 45.41 338.467 43.674 337.403 41.406C336.367 39.138 335.849 36.436 335.849 33.3C335.849 30.164 336.367 27.462 337.403 25.194C338.467 22.926 339.993 21.19 341.981 19.986C343.969 18.782 346.321 18.18 349.037 18.18C351.781 18.18 354.133 18.782 356.093 19.986C358.081 21.19 359.593 22.926 360.629 25.194C361.693 27.462 362.225 30.164 362.225 33.3C362.225 36.436 361.693 39.138 360.629 41.406C359.593 43.674 358.081 45.41 356.093 46.614C354.133 47.818 351.781 48.42 349.037 48.42ZM349.037 43.632C351.277 43.632 353.027 42.722 354.287 40.902C355.575 39.054 356.219 36.52 356.219 33.3C356.219 30.08 355.575 27.56 354.287 25.74C353.027 23.892 351.277 22.968 349.037 22.968C346.825 22.968 345.075 23.892 343.787 25.74C342.527 27.56 341.897 30.08 341.897 33.3C341.897 36.52 342.527 39.054 343.787 40.902C345.075 42.722 346.825 43.632 349.037 43.632ZM371.231 48.42C368.823 48.42 366.989 47.608 365.729 45.984C364.497 44.36 363.881 41.98 363.881 38.844V27H369.257V38.886C369.257 40.678 369.551 41.994 370.139 42.834C370.727 43.674 371.637 44.094 372.869 44.094C374.353 44.094 375.571 43.534 376.523 42.414C377.475 41.266 377.951 39.852 377.951 38.172V27H383.327V42.666C383.327 44.094 383.439 45.872 383.663 48H378.581C378.357 46.74 378.231 45.508 378.203 44.304H378.119C377.615 45.564 376.733 46.572 375.473 47.328C374.241 48.056 372.827 48.42 371.231 48.42ZM385.996 32.124C385.996 29.744 385.954 28.036 385.87 27H390.952C391.064 28.092 391.12 29.324 391.12 30.696V31.116H391.288C391.82 29.744 392.758 28.652 394.102 27.84C395.446 27 396.986 26.58 398.722 26.58C399.058 26.58 399.478 26.622 399.982 26.706V30.948C399.87 30.892 399.534 30.864 398.974 30.864C397.63 30.864 396.37 31.228 395.194 31.956C394.046 32.684 393.122 33.664 392.422 34.896C391.722 36.1 391.372 37.402 391.372 38.802V48H385.996V32.124Z" fill="white"/>
    <path d="M421.774 48.42C419.03 48.42 416.622 47.804 414.55 46.572C412.506 45.34 410.924 43.59 409.804 41.322C408.712 39.026 408.166 36.352 408.166 33.3C408.166 30.248 408.712 27.588 409.804 25.32C410.924 23.024 412.506 21.26 414.55 20.028C416.622 18.796 419.044 18.18 421.816 18.18C424.168 18.18 426.212 18.628 427.948 19.524C429.712 20.42 431.014 21.694 431.854 23.346L428.41 26.37C426.926 24.13 424.756 23.01 421.9 23.01C419.408 23.01 417.504 23.892 416.188 25.656C414.872 27.392 414.214 29.94 414.214 33.3C414.214 36.632 414.858 39.18 416.146 40.944C417.434 42.708 419.296 43.59 421.732 43.59C424.756 43.59 426.982 42.47 428.41 40.23L431.854 43.254C431.014 44.906 429.712 46.18 427.948 47.076C426.212 47.972 424.154 48.42 421.774 48.42ZM443.367 48.42C439.979 48.42 437.333 47.454 435.429 45.522C433.525 43.59 432.573 40.916 432.573 37.5C432.573 34.084 433.525 31.41 435.429 29.478C437.333 27.546 439.979 26.58 443.367 26.58C446.755 26.58 449.401 27.546 451.305 29.478C453.237 31.41 454.203 34.084 454.203 37.5C454.203 40.916 453.237 43.59 451.305 45.522C449.401 47.454 446.755 48.42 443.367 48.42ZM443.367 44.43C445.075 44.43 446.419 43.814 447.399 42.582C448.379 41.35 448.869 39.656 448.869 37.5C448.869 35.344 448.379 33.65 447.399 32.418C446.419 31.186 445.075 30.57 443.367 30.57C441.659 30.57 440.315 31.186 439.335 32.418C438.383 33.65 437.907 35.344 437.907 37.5C437.907 39.656 438.383 41.35 439.335 42.582C440.315 43.814 441.659 44.43 443.367 44.43ZM455.888 32.586C455.888 29.786 455.832 27.924 455.72 27H460.424C460.564 28.12 460.634 29.338 460.634 30.654H460.718C461.166 29.394 461.978 28.4 463.154 27.672C464.33 26.944 465.702 26.58 467.27 26.58C468.782 26.58 470.07 26.916 471.134 27.588C472.198 28.232 472.912 29.128 473.276 30.276C473.836 29.128 474.69 28.232 475.838 27.588C476.986 26.916 478.274 26.58 479.702 26.58C482.026 26.58 483.846 27.336 485.162 28.848C486.506 30.332 487.178 32.39 487.178 35.022V48H481.844V35.61C481.844 34.126 481.522 32.978 480.878 32.166C480.234 31.326 479.352 30.906 478.232 30.906C477 30.906 476.006 31.34 475.25 32.208C474.522 33.048 474.158 34.196 474.158 35.652V48H468.866V35.778C468.866 34.238 468.558 33.048 467.942 32.208C467.326 31.34 466.458 30.906 465.338 30.906C464.134 30.906 463.14 31.368 462.356 32.292C461.6 33.188 461.222 34.35 461.222 35.778V48H455.888V32.586ZM489.727 32.586C489.727 29.786 489.671 27.924 489.559 27H494.263C494.403 28.12 494.473 29.338 494.473 30.654H494.557C495.005 29.394 495.817 28.4 496.993 27.672C498.169 26.944 499.541 26.58 501.109 26.58C502.621 26.58 503.909 26.916 504.973 27.588C506.037 28.232 506.751 29.128 507.115 30.276C507.675 29.128 508.529 28.232 509.677 27.588C510.825 26.916 512.113 26.58 513.541 26.58C515.865 26.58 517.685 27.336 519.001 28.848C520.345 30.332 521.017 32.39 521.017 35.022V48H515.683V35.61C515.683 34.126 515.361 32.978 514.717 32.166C514.073 31.326 513.191 30.906 512.071 30.906C510.839 30.906 509.845 31.34 509.089 32.208C508.361 33.048 507.997 34.196 507.997 35.652V48H502.705V35.778C502.705 34.238 502.397 33.048 501.781 32.208C501.165 31.34 500.297 30.906 499.177 30.906C497.973 30.906 496.979 31.368 496.195 32.292C495.439 33.188 495.061 34.35 495.061 35.778V48H489.727V32.586ZM530.917 48.42C528.509 48.42 526.675 47.608 525.415 45.984C524.183 44.36 523.567 41.98 523.567 38.844V27H528.943V38.886C528.943 40.678 529.237 41.994 529.825 42.834C530.413 43.674 531.323 44.094 532.555 44.094C534.039 44.094 535.257 43.534 536.209 42.414C537.161 41.266 537.637 39.852 537.637 38.172V27H543.013V42.666C543.013 44.094 543.125 45.872 543.349 48H538.267C538.043 46.74 537.917 45.508 537.889 44.304H537.805C537.301 45.564 536.419 46.572 535.159 47.328C533.927 48.056 532.513 48.42 530.917 48.42ZM545.388 32.544C545.388 29.996 545.332 28.148 545.22 27H550.26C550.4 28.176 550.47 29.394 550.47 30.654H550.596C551.1 29.422 551.982 28.442 553.242 27.714C554.53 26.958 555.958 26.58 557.526 26.58C559.934 26.58 561.754 27.392 562.986 29.016C564.218 30.64 564.834 33.034 564.834 36.198V48H559.5V36.156C559.5 34.336 559.206 33.006 558.618 32.166C558.03 31.326 557.092 30.906 555.804 30.906C554.32 30.906 553.102 31.438 552.15 32.502C551.226 33.538 550.764 34.882 550.764 36.534V48H545.388V32.544ZM571.112 24.564C570.076 24.564 569.25 24.284 568.634 23.724C568.018 23.136 567.71 22.366 567.71 21.414C567.71 20.462 568.018 19.706 568.634 19.146C569.25 18.558 570.076 18.264 571.112 18.264C572.148 18.264 572.974 18.558 573.59 19.146C574.234 19.706 574.556 20.462 574.556 21.414C574.556 22.366 574.248 23.136 573.632 23.724C573.016 24.284 572.176 24.564 571.112 24.564ZM568.466 27H573.8V48H568.466V27ZM586.376 48.42C584.22 48.42 582.54 47.832 581.336 46.656C580.132 45.48 579.53 43.828 579.53 41.7V30.99H575.708V27H579.53V21.582L584.738 20.07H584.906V27H590.996V30.99H584.906V40.902C584.906 42.106 585.186 42.988 585.746 43.548C586.306 44.108 587.16 44.388 588.308 44.388C589.4 44.388 590.422 44.22 591.374 43.884L591.626 47.538C590.366 48.126 588.616 48.42 586.376 48.42ZM611.825 27L603.803 48.966C602.935 51.318 601.731 53.082 600.191 54.258C598.679 55.462 596.859 56.064 594.731 56.064C593.611 56.064 592.463 55.91 591.287 55.602V51.36C591.623 51.472 592.043 51.57 592.547 51.654C593.051 51.738 593.499 51.78 593.891 51.78C595.123 51.78 596.173 51.346 597.041 50.478C597.937 49.638 598.735 48.294 599.435 46.446L591.623 27H597.335L601.955 40.44L606.113 27H611.825Z" fill="url(#paint0_linear_8_1069)"/>
    <path d="M160.097 190.72C156.305 190.72 152.873 189.952 149.801 188.416C146.777 186.88 144.305 184.672 142.385 181.792L148.361 176.032C149.945 177.904 151.865 179.44 154.121 180.64C156.377 181.84 158.489 182.44 160.457 182.44C162.665 182.44 164.441 181.936 165.785 180.928C167.129 179.92 167.801 178.6 167.801 176.968C167.801 175.768 167.585 174.784 167.153 174.016C166.721 173.248 165.905 172.48 164.705 171.712C163.505 170.896 161.537 169.816 158.801 168.472C155.201 166.696 152.369 165.04 150.305 163.504C148.241 161.968 146.705 160.312 145.697 158.536C144.737 156.712 144.257 154.6 144.257 152.2C144.257 149.56 144.953 147.232 146.345 145.216C147.737 143.2 149.705 141.64 152.249 140.536C154.793 139.432 157.721 138.88 161.033 138.88C164.681 138.88 167.897 139.576 170.681 140.968C173.513 142.36 175.577 144.28 176.873 146.728L170.321 151.624C167.921 148.648 164.969 147.16 161.465 147.16C159.257 147.16 157.553 147.592 156.353 148.456C155.153 149.32 154.553 150.544 154.553 152.128C154.553 153.088 154.841 153.952 155.417 154.72C156.041 155.488 157.145 156.328 158.729 157.24C160.313 158.152 162.689 159.352 165.857 160.84C168.929 162.28 171.329 163.72 173.057 165.16C174.833 166.6 176.105 168.208 176.873 169.984C177.641 171.76 178.025 173.872 178.025 176.32C178.025 179.2 177.281 181.744 175.793 183.952C174.353 186.112 172.265 187.792 169.529 188.992C166.841 190.144 163.697 190.72 160.097 190.72ZM186.937 149.824C185.161 149.824 183.745 149.344 182.689 148.384C181.633 147.376 181.105 146.056 181.105 144.424C181.105 142.792 181.633 141.496 182.689 140.536C183.745 139.528 185.161 139.024 186.937 139.024C188.713 139.024 190.129 139.528 191.185 140.536C192.289 141.496 192.841 142.792 192.841 144.424C192.841 146.056 192.313 147.376 191.257 148.384C190.201 149.344 188.761 149.824 186.937 149.824ZM182.401 154H191.545V190H182.401V154ZM230.385 154V188.56C230.385 194.656 228.873 199.24 225.849 202.312C222.825 205.432 218.337 206.992 212.385 206.992C209.601 206.992 206.961 206.656 204.465 205.984C202.017 205.312 199.833 204.352 197.913 203.104L201.009 196.84C202.737 197.704 204.561 198.376 206.481 198.856C208.401 199.384 210.225 199.648 211.953 199.648C215.217 199.648 217.641 198.616 219.225 196.552C220.809 194.536 221.601 191.464 221.601 187.336V186.184C220.641 187.48 219.321 188.488 217.641 189.208C215.961 189.88 213.969 190.216 211.665 190.216C206.673 190.216 202.785 188.584 200.001 185.32C197.265 182.056 195.897 177.448 195.897 171.496C195.897 165.736 197.217 161.272 199.857 158.104C202.497 154.888 206.217 153.28 211.017 153.28C216.009 153.28 219.633 155.032 221.889 158.536H222.033L222.753 154H230.385ZM221.241 169.768C221.241 166.648 220.569 164.272 219.225 162.64C217.881 160.96 215.937 160.12 213.393 160.12C210.705 160.12 208.641 161.128 207.201 163.144C205.761 165.112 205.041 167.968 205.041 171.712C205.041 175.456 205.737 178.288 207.129 180.208C208.569 182.128 210.657 183.088 213.393 183.088C215.937 183.088 217.881 182.344 219.225 180.856C220.569 179.32 221.241 177.16 221.241 174.376V169.768ZM234.394 163.504C234.394 159.136 234.298 155.968 234.106 154H242.746C242.986 156.016 243.106 158.104 243.106 160.264H243.322C244.186 158.152 245.698 156.472 247.858 155.224C250.066 153.928 252.514 153.28 255.202 153.28C259.33 153.28 262.45 154.672 264.562 157.456C266.674 160.24 267.73 164.344 267.73 169.768V190H258.586V169.696C258.586 166.576 258.082 164.296 257.074 162.856C256.066 161.416 254.458 160.696 252.25 160.696C249.706 160.696 247.618 161.608 245.986 163.432C244.402 165.208 243.61 167.512 243.61 170.344V190H234.394V163.504ZM306.457 190.72C300.025 190.72 295.153 188.992 291.841 185.536C288.577 182.08 286.945 177.016 286.945 170.344V139.6H297.313V170.2C297.313 178.36 300.361 182.44 306.457 182.44C312.601 182.44 315.673 178.36 315.673 170.2V139.6H326.041V170.344C326.041 177.016 324.385 182.08 321.073 185.536C317.761 188.992 312.889 190.72 306.457 190.72ZM331.233 163.576C331.233 159.688 331.137 156.496 330.945 154H339.585C339.729 155.44 339.801 157.024 339.801 158.752H339.945C341.145 157.024 342.705 155.68 344.625 154.72C346.545 153.76 348.681 153.28 351.033 153.28C355.593 153.28 359.193 154.96 361.833 158.32C364.473 161.68 365.793 166.264 365.793 172.072C365.793 177.88 364.449 182.44 361.761 185.752C359.121 189.064 355.449 190.72 350.745 190.72C348.441 190.72 346.401 190.336 344.625 189.568C342.849 188.8 341.529 187.72 340.665 186.328H340.449V207.424H331.233V163.576ZM348.729 183.88C351.273 183.88 353.217 182.848 354.561 180.784C355.905 178.672 356.577 175.672 356.577 171.784C356.577 164.152 354.009 160.336 348.873 160.336C346.377 160.336 344.337 161.08 342.753 162.568C341.217 164.008 340.449 165.928 340.449 168.328V175.744C340.449 178.048 341.241 179.992 342.825 181.576C344.409 183.112 346.377 183.88 348.729 183.88ZM393.645 190.72C391.293 190.72 389.181 190.24 387.309 189.28C385.437 188.272 383.973 186.904 382.917 185.176C381.861 183.4 381.333 181.432 381.333 179.272C381.333 175.576 382.797 172.744 385.725 170.776C388.653 168.808 392.829 167.824 398.253 167.824H403.869V166.312C403.869 164.392 403.293 162.928 402.141 161.92C401.037 160.864 399.453 160.336 397.389 160.336C395.229 160.336 393.165 160.72 391.197 161.488C389.229 162.256 387.621 163.312 386.373 164.656L382.341 159.328C384.309 157.456 386.637 155.992 389.325 154.936C392.013 153.832 394.797 153.28 397.677 153.28C402.477 153.28 406.245 154.408 408.981 156.664C411.717 158.92 413.085 162.04 413.085 166.024V182.44C413.085 183.544 413.157 184.84 413.301 186.328C413.493 187.816 413.709 189.04 413.949 190H405.813C405.525 189.376 405.309 188.776 405.165 188.2C405.021 187.576 404.901 186.736 404.805 185.68H404.661C401.925 189.04 398.253 190.72 393.645 190.72ZM395.877 183.808C398.181 183.808 400.077 183.232 401.565 182.08C403.101 180.88 403.869 179.368 403.869 177.544V173.944H397.965C395.517 173.944 393.621 174.4 392.277 175.312C390.981 176.224 390.333 177.544 390.333 179.272C390.333 180.712 390.813 181.84 391.773 182.656C392.781 183.424 394.149 183.808 395.877 183.808ZM417.786 163.504C417.786 159.136 417.69 155.968 417.498 154H426.138C426.378 156.016 426.498 158.104 426.498 160.264H426.714C427.578 158.152 429.09 156.472 431.25 155.224C433.458 153.928 435.906 153.28 438.594 153.28C442.722 153.28 445.842 154.672 447.954 157.456C450.066 160.24 451.122 164.344 451.122 169.768V190H441.978V169.696C441.978 166.576 441.474 164.296 440.466 162.856C439.458 161.416 437.85 160.696 435.642 160.696C433.098 160.696 431.01 161.608 429.378 163.432C427.794 165.208 427.002 167.512 427.002 170.344V190H417.786V163.504ZM469.228 190.72C464.524 190.72 460.804 189.016 458.068 185.608C455.38 182.152 454.036 177.424 454.036 171.424C454.036 167.776 454.66 164.584 455.908 161.848C457.156 159.112 458.932 157 461.236 155.512C463.588 154.024 466.324 153.28 469.444 153.28C471.556 153.28 473.404 153.64 474.988 154.36C476.62 155.08 478.036 156.184 479.236 157.672H479.38V136.576H488.524V180.424C488.524 185.416 488.596 188.608 488.74 190H480.1C480.052 189.184 480.028 187.6 480.028 185.248H479.884C478.78 186.88 477.244 188.2 475.276 189.208C473.356 190.216 471.34 190.72 469.228 190.72ZM471.028 183.664C473.572 183.664 475.588 182.944 477.076 181.504C478.612 180.016 479.38 178.072 479.38 175.672V168.256C479.38 165.904 478.588 163.96 477.004 162.424C475.42 160.888 473.428 160.12 471.028 160.12C468.484 160.12 466.54 161.104 465.196 163.072C463.852 165.04 463.18 167.872 463.18 171.568C463.18 175.456 463.852 178.456 465.196 180.568C466.54 182.632 468.484 183.664 471.028 183.664ZM508.181 139.6H542.021V147.88H518.549V161.344H540.437V169.624H518.549V190H508.181V139.6ZM562.557 190.72C556.749 190.72 552.213 189.064 548.949 185.752C545.685 182.44 544.053 177.856 544.053 172C544.053 166.144 545.685 161.56 548.949 158.248C552.213 154.936 556.749 153.28 562.557 153.28C568.365 153.28 572.901 154.936 576.165 158.248C579.477 161.56 581.133 166.144 581.133 172C581.133 177.856 579.477 182.44 576.165 185.752C572.901 189.064 568.365 190.72 562.557 190.72ZM562.557 183.88C565.485 183.88 567.789 182.824 569.469 180.712C571.149 178.6 571.989 175.696 571.989 172C571.989 168.304 571.149 165.4 569.469 163.288C567.789 161.176 565.485 160.12 562.557 160.12C559.629 160.12 557.325 161.176 555.645 163.288C554.013 165.4 553.197 168.304 553.197 172C553.197 175.696 554.013 178.6 555.645 180.712C557.325 182.824 559.629 183.88 562.557 183.88ZM594.101 190.72C591.029 190.72 588.677 189.904 587.045 188.272C585.461 186.592 584.669 184.192 584.669 181.072V136.576H593.813V181.216C593.813 182.272 594.077 183.064 594.605 183.592C595.181 184.072 596.021 184.312 597.125 184.312C598.229 184.312 599.597 184 601.229 183.376L602.597 188.272C600.437 189.904 597.605 190.72 594.101 190.72ZM612.877 190.72C609.805 190.72 607.453 189.904 605.821 188.272C604.237 186.592 603.445 184.192 603.445 181.072V136.576H612.589V181.216C612.589 182.272 612.853 183.064 613.381 183.592C613.957 184.072 614.797 184.312 615.901 184.312C617.005 184.312 618.373 184 620.005 183.376L621.373 188.272C619.213 189.904 616.381 190.72 612.877 190.72ZM636.745 190.72C630.937 190.72 626.401 189.064 623.137 185.752C619.873 182.44 618.241 177.856 618.241 172C618.241 166.144 619.873 161.56 623.137 158.248C626.401 154.936 630.937 153.28 636.745 153.28C642.553 153.28 647.089 154.936 650.353 158.248C653.665 161.56 655.321 166.144 655.321 172C655.321 177.856 653.665 182.44 650.353 185.752C647.089 189.064 642.553 190.72 636.745 190.72ZM636.745 183.88C639.673 183.88 641.977 182.824 643.657 180.712C645.337 178.6 646.177 175.696 646.177 172C646.177 168.304 645.337 165.4 643.657 163.288C641.977 161.176 639.673 160.12 636.745 160.12C633.817 160.12 631.513 161.176 629.833 163.288C628.201 165.4 627.385 168.304 627.385 172C627.385 175.696 628.201 178.6 629.833 180.712C631.513 182.824 633.817 183.88 636.745 183.88ZM704.721 154L695.505 190H687.441L680.241 163.936L673.041 190H664.905L655.689 154H665.265L669.801 176.392L676.137 154H684.273L690.609 176.392L695.145 154H704.721ZM741.544 190.72C736.888 190.72 732.856 189.688 729.448 187.624C726.04 185.56 723.424 182.584 721.6 178.696C719.824 174.808 718.936 170.176 718.936 164.8C718.936 159.424 719.824 154.792 721.6 150.904C723.424 147.016 726.04 144.04 729.448 141.976C732.856 139.912 736.888 138.88 741.544 138.88C746.248 138.88 750.28 139.912 753.64 141.976C757.048 144.04 759.64 147.016 761.416 150.904C763.24 154.792 764.152 159.424 764.152 164.8C764.152 170.176 763.24 174.808 761.416 178.696C759.64 182.584 757.048 185.56 753.64 187.624C750.28 189.688 746.248 190.72 741.544 190.72ZM741.544 182.512C745.384 182.512 748.384 180.952 750.544 177.832C752.752 174.664 753.856 170.32 753.856 164.8C753.856 159.28 752.752 154.96 750.544 151.84C748.384 148.672 745.384 147.088 741.544 147.088C737.752 147.088 734.752 148.672 732.544 151.84C730.384 154.96 729.304 159.28 729.304 164.8C729.304 170.32 730.384 174.664 732.544 177.832C734.752 180.952 737.752 182.512 741.544 182.512ZM779.591 190.72C775.463 190.72 772.319 189.328 770.159 186.544C768.047 183.76 766.991 179.68 766.991 174.304V154H776.207V174.376C776.207 177.448 776.711 179.704 777.719 181.144C778.727 182.584 780.287 183.304 782.399 183.304C784.943 183.304 787.031 182.344 788.663 180.424C790.295 178.456 791.111 176.032 791.111 173.152V154H800.327V180.856C800.327 183.304 800.519 186.352 800.903 190H792.191C791.807 187.84 791.591 185.728 791.543 183.664H791.399C790.535 185.824 789.023 187.552 786.863 188.848C784.751 190.096 782.327 190.72 779.591 190.72ZM804.902 162.784C804.902 158.704 804.83 155.776 804.686 154H813.398C813.59 155.872 813.686 157.984 813.686 160.336V161.056H813.974C814.886 158.704 816.494 156.832 818.798 155.44C821.102 154 823.742 153.28 826.718 153.28C827.294 153.28 828.014 153.352 828.878 153.496V160.768C828.686 160.672 828.11 160.624 827.15 160.624C824.846 160.624 822.686 161.248 820.67 162.496C818.702 163.744 817.118 165.424 815.918 167.536C814.718 169.6 814.118 171.832 814.118 174.232V190H804.902V162.784ZM239.38 270.72C234.676 270.72 230.548 269.664 226.996 267.552C223.492 265.44 220.78 262.44 218.86 258.552C216.988 254.616 216.052 250.032 216.052 244.8C216.052 239.568 216.988 235.008 218.86 231.12C220.78 227.184 223.492 224.16 226.996 222.048C230.548 219.936 234.7 218.88 239.452 218.88C243.484 218.88 246.988 219.648 249.964 221.184C252.988 222.72 255.22 224.904 256.66 227.736L250.756 232.92C248.212 229.08 244.492 227.16 239.596 227.16C235.324 227.16 232.06 228.672 229.804 231.696C227.548 234.672 226.42 239.04 226.42 244.8C226.42 250.512 227.524 254.88 229.732 257.904C231.94 260.928 235.132 262.44 239.308 262.44C244.492 262.44 248.308 260.52 250.756 256.68L256.66 261.864C255.22 264.696 252.988 266.88 249.964 268.416C246.988 269.952 243.46 270.72 239.38 270.72ZM276.397 270.72C270.589 270.72 266.053 269.064 262.789 265.752C259.525 262.44 257.893 257.856 257.893 252C257.893 246.144 259.525 241.56 262.789 238.248C266.053 234.936 270.589 233.28 276.397 233.28C282.205 233.28 286.741 234.936 290.005 238.248C293.317 241.56 294.973 246.144 294.973 252C294.973 257.856 293.317 262.44 290.005 265.752C286.741 269.064 282.205 270.72 276.397 270.72ZM276.397 263.88C279.325 263.88 281.629 262.824 283.309 260.712C284.989 258.6 285.829 255.696 285.829 252C285.829 248.304 284.989 245.4 283.309 243.288C281.629 241.176 279.325 240.12 276.397 240.12C273.469 240.12 271.165 241.176 269.485 243.288C267.853 245.4 267.037 248.304 267.037 252C267.037 255.696 267.853 258.6 269.485 260.712C271.165 262.824 273.469 263.88 276.397 263.88ZM297.86 243.576C297.86 238.776 297.764 235.584 297.572 234H305.636C305.876 235.92 305.996 238.008 305.996 240.264H306.14C306.908 238.104 308.3 236.4 310.316 235.152C312.332 233.904 314.684 233.28 317.372 233.28C319.964 233.28 322.172 233.856 323.996 235.008C325.82 236.112 327.044 237.648 327.668 239.616C328.628 237.648 330.092 236.112 332.06 235.008C334.028 233.856 336.236 233.28 338.684 233.28C342.668 233.28 345.788 234.576 348.044 237.168C350.348 239.712 351.5 243.24 351.5 247.752V270H342.356V248.76C342.356 246.216 341.804 244.248 340.7 242.856C339.596 241.416 338.084 240.696 336.164 240.696C334.052 240.696 332.348 241.44 331.052 242.928C329.804 244.368 329.18 246.336 329.18 248.832V270H320.108V249.048C320.108 246.408 319.58 244.368 318.524 242.928C317.468 241.44 315.98 240.696 314.06 240.696C311.996 240.696 310.292 241.488 308.948 243.072C307.652 244.608 307.004 246.6 307.004 249.048V270H297.86V243.576ZM355.871 243.576C355.871 238.776 355.775 235.584 355.583 234H363.647C363.887 235.92 364.007 238.008 364.007 240.264H364.151C364.919 238.104 366.311 236.4 368.327 235.152C370.343 233.904 372.695 233.28 375.383 233.28C377.975 233.28 380.183 233.856 382.007 235.008C383.831 236.112 385.055 237.648 385.679 239.616C386.639 237.648 388.103 236.112 390.071 235.008C392.039 233.856 394.247 233.28 396.695 233.28C400.679 233.28 403.799 234.576 406.055 237.168C408.359 239.712 409.511 243.24 409.511 247.752V270H400.367V248.76C400.367 246.216 399.815 244.248 398.711 242.856C397.607 241.416 396.095 240.696 394.175 240.696C392.063 240.696 390.359 241.44 389.063 242.928C387.815 244.368 387.191 246.336 387.191 248.832V270H378.119V249.048C378.119 246.408 377.591 244.368 376.535 242.928C375.479 241.44 373.991 240.696 372.071 240.696C370.007 240.696 368.303 241.488 366.959 243.072C365.663 244.608 365.015 246.6 365.015 249.048V270H355.871V243.576ZM426.481 270.72C422.353 270.72 419.209 269.328 417.049 266.544C414.937 263.76 413.881 259.68 413.881 254.304V234H423.097V254.376C423.097 257.448 423.601 259.704 424.609 261.144C425.617 262.584 427.177 263.304 429.289 263.304C431.833 263.304 433.921 262.344 435.553 260.424C437.185 258.456 438.001 256.032 438.001 253.152V234H447.217V260.856C447.217 263.304 447.409 266.352 447.793 270H439.081C438.697 267.84 438.481 265.728 438.433 263.664H438.289C437.425 265.824 435.913 267.552 433.753 268.848C431.641 270.096 429.217 270.72 426.481 270.72ZM451.289 243.504C451.289 239.136 451.193 235.968 451.001 234H459.641C459.881 236.016 460.001 238.104 460.001 240.264H460.217C461.081 238.152 462.593 236.472 464.753 235.224C466.961 233.928 469.409 233.28 472.097 233.28C476.225 233.28 479.345 234.672 481.457 237.456C483.569 240.24 484.625 244.344 484.625 249.768V270H475.481V249.696C475.481 246.576 474.977 244.296 473.969 242.856C472.961 241.416 471.353 240.696 469.145 240.696C466.601 240.696 464.513 241.608 462.881 243.432C461.297 245.208 460.505 247.512 460.505 250.344V270H451.289V243.504ZM495.387 229.824C493.611 229.824 492.195 229.344 491.139 228.384C490.083 227.376 489.555 226.056 489.555 224.424C489.555 222.792 490.083 221.496 491.139 220.536C492.195 219.528 493.611 219.024 495.387 219.024C497.163 219.024 498.579 219.528 499.635 220.536C500.739 221.496 501.291 222.792 501.291 224.424C501.291 226.056 500.763 227.376 499.707 228.384C498.651 229.344 497.211 229.824 495.387 229.824ZM490.851 234H499.995V270H490.851V234ZM521.554 270.72C517.858 270.72 514.978 269.712 512.914 267.696C510.85 265.68 509.818 262.848 509.818 259.2V240.84H503.266V234H509.818V224.712L518.746 222.12H519.034V234H529.474V240.84H519.034V257.832C519.034 259.896 519.514 261.408 520.474 262.368C521.434 263.328 522.898 263.808 524.866 263.808C526.738 263.808 528.49 263.52 530.122 262.944L530.554 269.208C528.394 270.216 525.394 270.72 521.554 270.72ZM565.181 234L551.429 271.656C549.941 275.688 547.877 278.712 545.237 280.728C542.645 282.792 539.525 283.824 535.877 283.824C533.957 283.824 531.989 283.56 529.973 283.032V275.76C530.549 275.952 531.269 276.12 532.133 276.264C532.997 276.408 533.765 276.48 534.437 276.48C536.549 276.48 538.349 275.736 539.837 274.248C541.373 272.808 542.741 270.504 543.941 267.336L530.549 234H540.341L548.261 257.04L555.389 234H565.181ZM582.049 219.6H598.825C604.777 219.6 609.289 220.968 612.361 223.704C615.433 226.392 616.969 230.376 616.969 235.656C616.969 241.224 615.385 245.472 612.217 248.4C609.097 251.28 604.513 252.72 598.465 252.72H592.417V270H582.049V219.6ZM599.329 244.512C601.825 244.512 603.697 243.792 604.945 242.352C606.241 240.864 606.889 238.728 606.889 235.944C606.889 233.304 606.193 231.312 604.801 229.968C603.457 228.576 601.441 227.88 598.753 227.88H592.417V244.512H599.329ZM629.034 270.72C626.682 270.72 624.57 270.24 622.698 269.28C620.826 268.272 619.362 266.904 618.306 265.176C617.25 263.4 616.722 261.432 616.722 259.272C616.722 255.576 618.186 252.744 621.114 250.776C624.042 248.808 628.218 247.824 633.642 247.824H639.258V246.312C639.258 244.392 638.682 242.928 637.53 241.92C636.426 240.864 634.842 240.336 632.778 240.336C630.618 240.336 628.554 240.72 626.586 241.488C624.618 242.256 623.01 243.312 621.762 244.656L617.73 239.328C619.698 237.456 622.026 235.992 624.714 234.936C627.402 233.832 630.186 233.28 633.066 233.28C637.866 233.28 641.634 234.408 644.37 236.664C647.106 238.92 648.474 242.04 648.474 246.024V262.44C648.474 263.544 648.546 264.84 648.69 266.328C648.882 267.816 649.098 269.04 649.338 270H641.202C640.914 269.376 640.698 268.776 640.554 268.2C640.41 267.576 640.29 266.736 640.194 265.68H640.05C637.314 269.04 633.642 270.72 629.034 270.72ZM631.266 263.808C633.57 263.808 635.466 263.232 636.954 262.08C638.49 260.88 639.258 259.368 639.258 257.544V253.944H633.354C630.906 253.944 629.01 254.4 627.666 255.312C626.37 256.224 625.722 257.544 625.722 259.272C625.722 260.712 626.202 261.84 627.162 262.656C628.17 263.424 629.538 263.808 631.266 263.808ZM686.223 234V268.56C686.223 274.656 684.711 279.24 681.687 282.312C678.663 285.432 674.175 286.992 668.223 286.992C665.439 286.992 662.799 286.656 660.303 285.984C657.855 285.312 655.671 284.352 653.751 283.104L656.847 276.84C658.575 277.704 660.399 278.376 662.319 278.856C664.239 279.384 666.063 279.648 667.791 279.648C671.055 279.648 673.479 278.616 675.063 276.552C676.647 274.536 677.439 271.464 677.439 267.336V266.184C676.479 267.48 675.159 268.488 673.479 269.208C671.799 269.88 669.807 270.216 667.503 270.216C662.511 270.216 658.623 268.584 655.839 265.32C653.103 262.056 651.735 257.448 651.735 251.496C651.735 245.736 653.055 241.272 655.695 238.104C658.335 234.888 662.055 233.28 666.855 233.28C671.847 233.28 675.471 235.032 677.727 238.536H677.871L678.591 234H686.223ZM677.079 249.768C677.079 246.648 676.407 244.272 675.063 242.64C673.719 240.96 671.775 240.12 669.231 240.12C666.543 240.12 664.479 241.128 663.039 243.144C661.599 245.112 660.879 247.968 660.879 251.712C660.879 255.456 661.575 258.288 662.967 260.208C664.407 262.128 666.495 263.088 669.231 263.088C671.775 263.088 673.719 262.344 675.063 260.856C676.407 259.32 677.079 257.16 677.079 254.376V249.768ZM723.641 255.384H698.585C699.353 260.472 702.305 263.016 707.441 263.016C709.553 263.016 711.377 262.656 712.913 261.936C714.497 261.216 716.033 260.016 717.521 258.336L722.489 263.088C721.097 265.392 718.985 267.24 716.153 268.632C713.369 270.024 710.297 270.72 706.937 270.72C701.321 270.72 696.953 269.088 693.833 265.824C690.713 262.512 689.153 257.952 689.153 252.144C689.153 246.288 690.713 241.68 693.833 238.32C697.001 234.96 701.345 233.28 706.865 233.28C712.145 233.28 716.249 234.936 719.177 238.248C722.153 241.56 723.641 246.168 723.641 252.072V255.384ZM714.641 248.688C714.641 246.24 713.921 244.32 712.481 242.928C711.089 241.488 709.145 240.768 706.649 240.768C704.393 240.768 702.569 241.512 701.177 243C699.785 244.44 698.897 246.48 698.513 249.12H714.641V248.688ZM739.591 270.72C736.471 270.72 733.711 270.096 731.311 268.848C728.959 267.6 727.303 265.944 726.343 263.88L732.031 259.92C732.895 261.12 733.999 262.08 735.343 262.8C736.687 263.52 738.055 263.88 739.447 263.88C741.079 263.88 742.423 263.472 743.479 262.656C744.535 261.792 745.063 260.736 745.063 259.488C745.063 258.48 744.679 257.688 743.911 257.112C743.143 256.488 741.511 255.696 739.015 254.736C734.647 253.056 731.575 251.352 729.799 249.624C728.023 247.896 727.135 245.76 727.135 243.216C727.135 240.24 728.335 237.84 730.735 236.016C733.183 234.192 736.423 233.28 740.455 233.28C743.143 233.28 745.567 233.808 747.727 234.864C749.887 235.872 751.639 237.336 752.983 239.256L747.655 243.216C745.975 241.152 743.695 240.12 740.815 240.12C739.375 240.12 738.247 240.384 737.431 240.912C736.663 241.392 736.279 242.112 736.279 243.072C736.279 243.744 736.447 244.296 736.783 244.728C737.119 245.16 737.767 245.616 738.727 246.096C739.687 246.576 741.223 247.224 743.335 248.04C746.167 249.144 748.351 250.224 749.887 251.28C751.471 252.288 752.575 253.416 753.199 254.664C753.871 255.864 754.207 257.328 754.207 259.056C754.207 261.36 753.583 263.4 752.335 265.176C751.135 266.904 749.431 268.272 747.223 269.28C745.015 270.24 742.471 270.72 739.591 270.72Z" fill="url(#paint1_linear_8_1069)"/>
    <g filter="url(#filter0_d_8_1069)">
    <rect x="61" y="340.5" width="183" height="50" rx="9.5" stroke="#979DAA" shape-rendering="crispEdges"/>
    <g clip-path="url(#clip0_8_1069)">
    <mask id="mask0_8_1069" style="mask-type:luminance" maskUnits="userSpaceOnUse" x="80" y="355" width="21" height="21">
    <path d="M80.5 355.5H100.5V375.5H80.5V355.5Z" fill="white"/>
    </mask>
    <g mask="url(#mask0_8_1069)">
    <path d="M96.25 356.437H99.3171L92.6171 364.114L100.5 374.563H94.3286L89.4914 368.227L83.9629 374.563H80.8929L88.0586 366.349L80.5 356.439H86.8286L91.1943 362.229L96.25 356.437ZM95.1714 372.723H96.8714L85.9 358.181H84.0771L95.1714 372.723Z" fill="#919191"/>
    </g>
    </g>
    <path d="M115.852 361.744H110.86V359.2H124.3V361.744H119.308V376H115.852V361.744ZM140.351 364L137.279 376H134.591L132.191 367.312L129.791 376H127.079L124.007 364H127.199L128.711 371.464L130.823 364H133.535L135.647 371.464L137.159 364H140.351ZM143.928 362.608C143.336 362.608 142.864 362.448 142.512 362.128C142.16 361.792 141.984 361.352 141.984 360.808C141.984 360.264 142.16 359.832 142.512 359.512C142.864 359.176 143.336 359.008 143.928 359.008C144.52 359.008 144.992 359.176 145.344 359.512C145.712 359.832 145.896 360.264 145.896 360.808C145.896 361.352 145.72 361.792 145.368 362.128C145.016 362.448 144.536 362.608 143.928 362.608ZM142.416 364H145.464V376H142.416V364ZM153.611 376.24C152.379 376.24 151.419 375.904 150.731 375.232C150.043 374.56 149.699 373.616 149.699 372.4V366.28H147.515V364H149.699V360.904L152.675 360.04H152.771V364H156.251V366.28H152.771V371.944C152.771 372.632 152.931 373.136 153.251 373.456C153.571 373.776 154.059 373.936 154.715 373.936C155.339 373.936 155.923 373.84 156.467 373.648L156.611 375.736C155.891 376.072 154.891 376.24 153.611 376.24ZM163.689 376.24C162.457 376.24 161.497 375.904 160.809 375.232C160.121 374.56 159.777 373.616 159.777 372.4V366.28H157.593V364H159.777V360.904L162.753 360.04H162.849V364H166.329V366.28H162.849V371.944C162.849 372.632 163.009 373.136 163.329 373.456C163.649 373.776 164.137 373.936 164.793 373.936C165.417 373.936 166.001 373.84 166.545 373.648L166.689 375.736C165.969 376.072 164.969 376.24 163.689 376.24ZM179.647 371.128H171.295C171.551 372.824 172.535 373.672 174.247 373.672C174.951 373.672 175.559 373.552 176.071 373.312C176.599 373.072 177.111 372.672 177.607 372.112L179.263 373.696C178.799 374.464 178.095 375.08 177.151 375.544C176.223 376.008 175.199 376.24 174.079 376.24C172.207 376.24 170.751 375.696 169.711 374.608C168.671 373.504 168.151 371.984 168.151 370.048C168.151 368.096 168.671 366.56 169.711 365.44C170.767 364.32 172.215 363.76 174.055 363.76C175.815 363.76 177.183 364.312 178.159 365.416C179.151 366.52 179.647 368.056 179.647 370.024V371.128ZM176.647 368.896C176.647 368.08 176.407 367.44 175.927 366.976C175.463 366.496 174.815 366.256 173.983 366.256C173.231 366.256 172.623 366.504 172.159 367C171.695 367.48 171.399 368.16 171.271 369.04H176.647V368.896ZM181.687 366.928C181.687 365.568 181.663 364.592 181.615 364H184.519C184.583 364.624 184.615 365.328 184.615 366.112V366.352H184.711C185.015 365.568 185.551 364.944 186.319 364.48C187.087 364 187.967 363.76 188.959 363.76C189.151 363.76 189.391 363.784 189.679 363.832V366.256C189.615 366.224 189.423 366.208 189.103 366.208C188.335 366.208 187.615 366.416 186.943 366.832C186.287 367.248 185.759 367.808 185.359 368.512C184.959 369.2 184.759 369.944 184.759 370.744V376H181.687V366.928Z" fill="#919191"/>
    <g clip-path="url(#clip1_8_1069)">
    <path d="M219.5 359.5C219.5 359.235 219.395 358.98 219.207 358.793C219.02 358.605 218.765 358.5 218.5 358.5H210.5C210.235 358.5 209.98 358.605 209.793 358.793C209.605 358.98 209.5 359.235 209.5 359.5C209.5 359.765 209.605 360.02 209.793 360.207C209.98 360.395 210.235 360.5 210.5 360.5H216.086L206.136 370.45C205.954 370.639 205.853 370.891 205.855 371.153C205.858 371.416 205.963 371.666 206.148 371.852C206.334 372.037 206.584 372.142 206.847 372.145C207.109 372.147 207.361 372.046 207.55 371.864L217.5 361.914V367.5C217.5 367.765 217.605 368.02 217.793 368.207C217.98 368.395 218.235 368.5 218.5 368.5C218.765 368.5 219.02 368.395 219.207 368.207C219.395 368.02 219.5 367.765 219.5 367.5V359.5Z" fill="#919191"/>
    </g>
    </g>
    <g filter="url(#filter1_d_8_1069)">
    <rect x="375" y="340.5" width="208" height="50" rx="9.5" stroke="#979DAA" shape-rendering="crispEdges"/>
    <g clip-path="url(#clip2_8_1069)">
    <path fill-rule="evenodd" clip-rule="evenodd" d="M414.277 357.93C414.524 357.826 414.795 357.79 415.06 357.826C415.326 357.862 415.577 357.969 415.788 358.135C415.998 358.301 416.16 358.52 416.257 358.77C416.354 359.02 416.383 359.291 416.339 359.556L414.071 373.313C413.851 374.64 412.395 375.401 411.178 374.74C410.16 374.187 408.648 373.335 407.288 372.446C406.608 372.001 404.525 370.576 404.781 369.562C405.001 368.695 408.501 365.437 410.501 363.5C411.286 362.739 410.928 362.3 410.001 363C407.699 364.738 404.003 367.381 402.781 368.125C401.703 368.781 401.141 368.893 400.469 368.781C399.243 368.577 398.106 368.261 397.178 367.876C395.924 367.356 395.985 365.632 397.177 365.13L414.277 357.93Z" fill="#979DAA"/>
    </g>
    <path d="M433.852 361.744H428.86V359.2H442.3V361.744H437.308V376H433.852V361.744ZM452.998 371.128H444.646C444.902 372.824 445.886 373.672 447.598 373.672C448.302 373.672 448.91 373.552 449.422 373.312C449.95 373.072 450.462 372.672 450.958 372.112L452.614 373.696C452.15 374.464 451.446 375.08 450.502 375.544C449.574 376.008 448.55 376.24 447.43 376.24C445.558 376.24 444.102 375.696 443.062 374.608C442.022 373.504 441.502 371.984 441.502 370.048C441.502 368.096 442.022 366.56 443.062 365.44C444.118 364.32 445.566 363.76 447.406 363.76C449.166 363.76 450.534 364.312 451.51 365.416C452.502 366.52 452.998 368.056 452.998 370.024V371.128ZM449.998 368.896C449.998 368.08 449.758 367.44 449.278 366.976C448.814 366.496 448.166 366.256 447.334 366.256C446.582 366.256 445.974 366.504 445.51 367C445.046 367.48 444.75 368.16 444.622 369.04H449.998V368.896ZM458.254 376.24C457.23 376.24 456.446 375.968 455.902 375.424C455.374 374.864 455.11 374.064 455.11 373.024V358.192H458.158V373.072C458.158 373.424 458.246 373.688 458.422 373.864C458.614 374.024 458.894 374.104 459.262 374.104C459.63 374.104 460.086 374 460.63 373.792L461.086 375.424C460.366 375.968 459.422 376.24 458.254 376.24ZM472.498 371.128H464.146C464.402 372.824 465.386 373.672 467.098 373.672C467.802 373.672 468.41 373.552 468.922 373.312C469.45 373.072 469.962 372.672 470.458 372.112L472.114 373.696C471.65 374.464 470.946 375.08 470.002 375.544C469.074 376.008 468.05 376.24 466.93 376.24C465.058 376.24 463.602 375.696 462.562 374.608C461.522 373.504 461.002 371.984 461.002 370.048C461.002 368.096 461.522 366.56 462.562 365.44C463.618 364.32 465.066 363.76 466.906 363.76C468.666 363.76 470.034 364.312 471.01 365.416C472.002 366.52 472.498 368.056 472.498 370.024V371.128ZM469.498 368.896C469.498 368.08 469.258 367.44 468.778 366.976C468.314 366.496 467.666 366.256 466.834 366.256C466.082 366.256 465.474 366.504 465.01 367C464.546 367.48 464.25 368.16 464.122 369.04H469.498V368.896ZM485.386 364V375.52C485.386 377.552 484.882 379.08 483.874 380.104C482.866 381.144 481.37 381.664 479.386 381.664C478.458 381.664 477.578 381.552 476.746 381.328C475.93 381.104 475.202 380.784 474.562 380.368L475.594 378.28C476.17 378.568 476.778 378.792 477.418 378.952C478.058 379.128 478.666 379.216 479.242 379.216C480.33 379.216 481.138 378.872 481.666 378.184C482.194 377.512 482.458 376.488 482.458 375.112V374.728C482.138 375.16 481.698 375.496 481.138 375.736C480.578 375.96 479.914 376.072 479.146 376.072C477.482 376.072 476.186 375.528 475.258 374.44C474.346 373.352 473.89 371.816 473.89 369.832C473.89 367.912 474.33 366.424 475.21 365.368C476.09 364.296 477.33 363.76 478.93 363.76C480.594 363.76 481.802 364.344 482.554 365.512H482.602L482.842 364H485.386ZM482.338 369.256C482.338 368.216 482.114 367.424 481.666 366.88C481.218 366.32 480.57 366.04 479.722 366.04C478.826 366.04 478.138 366.376 477.658 367.048C477.178 367.704 476.938 368.656 476.938 369.904C476.938 371.152 477.17 372.096 477.634 372.736C478.114 373.376 478.81 373.696 479.722 373.696C480.57 373.696 481.218 373.448 481.666 372.952C482.114 372.44 482.338 371.72 482.338 370.792V369.256ZM487.851 366.928C487.851 365.568 487.827 364.592 487.779 364H490.683C490.747 364.624 490.779 365.328 490.779 366.112V366.352H490.875C491.179 365.568 491.715 364.944 492.483 364.48C493.251 364 494.131 363.76 495.123 363.76C495.315 363.76 495.555 363.784 495.843 363.832V366.256C495.779 366.224 495.587 366.208 495.267 366.208C494.499 366.208 493.779 366.416 493.107 366.832C492.451 367.248 491.923 367.808 491.523 368.512C491.123 369.2 490.923 369.944 490.923 370.744V376H487.851V366.928ZM500.918 376.24C500.134 376.24 499.43 376.08 498.806 375.76C498.182 375.424 497.694 374.968 497.342 374.392C496.99 373.8 496.814 373.144 496.814 372.424C496.814 371.192 497.302 370.248 498.278 369.592C499.254 368.936 500.646 368.608 502.454 368.608H504.326V368.104C504.326 367.464 504.134 366.976 503.75 366.64C503.382 366.288 502.854 366.112 502.166 366.112C501.446 366.112 500.758 366.24 500.102 366.496C499.446 366.752 498.91 367.104 498.494 367.552L497.15 365.776C497.806 365.152 498.582 364.664 499.478 364.312C500.374 363.944 501.302 363.76 502.262 363.76C503.862 363.76 505.118 364.136 506.03 364.888C506.942 365.64 507.398 366.68 507.398 368.008V373.48C507.398 373.848 507.422 374.28 507.47 374.776C507.534 375.272 507.606 375.68 507.686 376H504.974C504.878 375.792 504.806 375.592 504.758 375.4C504.71 375.192 504.67 374.912 504.638 374.56H504.59C503.678 375.68 502.454 376.24 500.918 376.24ZM501.662 373.936C502.43 373.936 503.062 373.744 503.558 373.36C504.07 372.96 504.326 372.456 504.326 371.848V370.648H502.358C501.542 370.648 500.91 370.8 500.462 371.104C500.03 371.408 499.814 371.848 499.814 372.424C499.814 372.904 499.974 373.28 500.294 373.552C500.63 373.808 501.086 373.936 501.662 373.936ZM509.949 367.192C509.949 365.592 509.917 364.528 509.853 364H512.541C512.621 364.64 512.661 365.336 512.661 366.088H512.709C512.965 365.368 513.429 364.8 514.101 364.384C514.773 363.968 515.557 363.76 516.453 363.76C517.317 363.76 518.053 363.952 518.661 364.336C519.269 364.704 519.677 365.216 519.885 365.872C520.205 365.216 520.693 364.704 521.349 364.336C522.005 363.952 522.741 363.76 523.557 363.76C524.885 363.76 525.925 364.192 526.677 365.056C527.445 365.904 527.829 367.08 527.829 368.584V376H524.781V368.92C524.781 368.072 524.597 367.416 524.229 366.952C523.861 366.472 523.357 366.232 522.717 366.232C522.013 366.232 521.445 366.48 521.013 366.976C520.597 367.456 520.389 368.112 520.389 368.944V376H517.365V369.016C517.365 368.136 517.189 367.456 516.837 366.976C516.485 366.48 515.989 366.232 515.349 366.232C514.661 366.232 514.093 366.496 513.645 367.024C513.213 367.536 512.997 368.2 512.997 369.016V376H509.949V367.192Z" fill="#919191"/>
    <g clip-path="url(#clip3_8_1069)">
    <path d="M558.5 359.5C558.5 359.235 558.395 358.98 558.207 358.793C558.02 358.605 557.765 358.5 557.5 358.5H549.5C549.235 358.5 548.98 358.605 548.793 358.793C548.605 358.98 548.5 359.235 548.5 359.5C548.5 359.765 548.605 360.02 548.793 360.207C548.98 360.395 549.235 360.5 549.5 360.5H555.086L545.136 370.45C544.954 370.639 544.853 370.891 544.855 371.153C544.858 371.416 544.963 371.666 545.148 371.852C545.334 372.037 545.584 372.142 545.847 372.145C546.109 372.147 546.361 372.046 546.55 371.864L556.5 361.914V367.5C556.5 367.765 556.605 368.02 556.793 368.207C556.98 368.395 557.235 368.5 557.5 368.5C557.765 368.5 558.02 368.395 558.207 368.207C558.395 368.02 558.5 367.765 558.5 367.5V359.5Z" fill="#919191"/>
    </g>
    </g>
    <g filter="url(#filter2_d_8_1069)">
    <rect x="708" y="340.5" width="194" height="50" rx="9.5" stroke="#979DAA" shape-rendering="crispEdges"/>
    <g clip-path="url(#clip4_8_1069)">
    <path fill-rule="evenodd" clip-rule="evenodd" d="M735.5 359.5C737.091 359.5 738.617 360.132 739.743 361.257C740.868 362.383 741.5 363.909 741.5 365.5C741.5 367.091 740.868 368.617 739.743 369.743C738.617 370.868 737.091 371.5 735.5 371.5C733.909 371.5 732.383 370.868 731.257 369.743C730.132 368.617 729.5 367.091 729.5 365.5C729.5 363.909 730.132 362.383 731.257 361.257C732.383 360.132 733.909 359.5 735.5 359.5ZM744.5 360.5C746 360.5 747 362.739 747 365.5C747 368.261 746 370.5 744.5 370.5C743 370.5 742 368.261 742 365.5C742 362.739 743 360.5 744.5 360.5ZM748.5 361C748.88 361 749.212 361.827 749.38 363.246L749.427 363.689L749.446 363.924L749.476 364.418L749.486 364.677L749.498 365.218L749.5 365.5L749.498 365.782L749.486 366.323L749.476 366.583L749.446 367.076L749.426 367.311L749.381 367.754C749.212 369.174 748.881 370 748.5 370C748.12 370 747.788 369.173 747.62 367.754L747.573 367.311C747.566 367.233 747.56 367.154 747.554 367.076L747.524 366.582C747.52 366.496 747.517 366.409 747.514 366.323L747.502 365.782V365.218L747.514 364.677L747.524 364.417L747.554 363.924L747.574 363.689L747.619 363.246C747.788 361.826 748.119 361 748.5 361ZM735.5 361.5C734.439 361.5 733.422 361.921 732.672 362.672C731.921 363.422 731.5 364.439 731.5 365.5C731.5 366.561 731.921 367.578 732.672 368.328C733.422 369.079 734.439 369.5 735.5 369.5C736.561 369.5 737.578 369.079 738.328 368.328C739.079 367.578 739.5 366.561 739.5 365.5C739.5 364.439 739.079 363.422 738.328 362.672C737.578 361.921 736.561 361.5 735.5 361.5ZM744.456 362.903C744.093 363.703 744 364.634 744 365.5C744 366.366 744.092 367.298 744.456 368.097C744.474 368.135 744.526 368.135 744.544 368.097C744.907 367.297 745 366.366 745 365.5C745 364.634 744.908 363.702 744.544 362.903C744.54 362.894 744.534 362.887 744.526 362.882C744.518 362.877 744.509 362.874 744.5 362.874C744.491 362.874 744.482 362.877 744.474 362.882C744.466 362.887 744.46 362.894 744.456 362.903Z" fill="#979DAA"/>
    </g>
    <path d="M779.452 359.2V376H776.044V366.112L772.516 376H770.068L766.54 366.112V376H763.132V359.2H766.756L771.292 372.184L775.828 359.2H779.452ZM793.358 371.128H785.006C785.262 372.824 786.246 373.672 787.958 373.672C788.662 373.672 789.27 373.552 789.782 373.312C790.31 373.072 790.822 372.672 791.318 372.112L792.974 373.696C792.51 374.464 791.806 375.08 790.862 375.544C789.934 376.008 788.91 376.24 787.79 376.24C785.918 376.24 784.462 375.696 783.422 374.608C782.382 373.504 781.862 371.984 781.862 370.048C781.862 368.096 782.382 366.56 783.422 365.44C784.478 364.32 785.926 363.76 787.766 363.76C789.526 363.76 790.894 364.312 791.87 365.416C792.862 366.52 793.358 368.056 793.358 370.024V371.128ZM790.358 368.896C790.358 368.08 790.118 367.44 789.638 366.976C789.174 366.496 788.526 366.256 787.694 366.256C786.942 366.256 786.334 366.504 785.87 367C785.406 367.48 785.11 368.16 784.982 369.04H790.358V368.896ZM799.814 376.24C798.246 376.24 797.006 375.672 796.094 374.536C795.198 373.384 794.75 371.808 794.75 369.808C794.75 368.592 794.958 367.528 795.374 366.616C795.79 365.704 796.382 365 797.15 364.504C797.934 364.008 798.846 363.76 799.886 363.76C800.59 363.76 801.206 363.88 801.734 364.12C802.278 364.36 802.75 364.728 803.15 365.224H803.198V358.192H806.246V372.808C806.246 374.472 806.27 375.536 806.318 376H803.438C803.422 375.728 803.414 375.2 803.414 374.416H803.366C802.998 374.96 802.486 375.4 801.83 375.736C801.19 376.072 800.518 376.24 799.814 376.24ZM800.414 373.888C801.262 373.888 801.934 373.648 802.43 373.168C802.942 372.672 803.198 372.024 803.198 371.224V368.752C803.198 367.968 802.934 367.32 802.406 366.808C801.878 366.296 801.214 366.04 800.414 366.04C799.566 366.04 798.918 366.368 798.47 367.024C798.022 367.68 797.798 368.624 797.798 369.856C797.798 371.152 798.022 372.152 798.47 372.856C798.918 373.544 799.566 373.888 800.414 373.888ZM810.748 362.608C810.156 362.608 809.684 362.448 809.332 362.128C808.98 361.792 808.804 361.352 808.804 360.808C808.804 360.264 808.98 359.832 809.332 359.512C809.684 359.176 810.156 359.008 810.748 359.008C811.34 359.008 811.812 359.176 812.164 359.512C812.532 359.832 812.716 360.264 812.716 360.808C812.716 361.352 812.54 361.792 812.188 362.128C811.836 362.448 811.356 362.608 810.748 362.608ZM809.236 364H812.284V376H809.236V364ZM819.399 376.24C818.023 376.24 816.975 375.776 816.255 374.848C815.551 373.92 815.199 372.56 815.199 370.768V364H818.271V370.792C818.271 371.816 818.439 372.568 818.775 373.048C819.111 373.528 819.631 373.768 820.335 373.768C821.183 373.768 821.879 373.448 822.423 372.808C822.967 372.152 823.239 371.344 823.239 370.384V364H826.311V372.952C826.311 373.768 826.375 374.784 826.503 376H823.599C823.471 375.28 823.399 374.576 823.383 373.888H823.335C823.047 374.608 822.543 375.184 821.823 375.616C821.119 376.032 820.311 376.24 819.399 376.24ZM828.652 367.192C828.652 365.592 828.62 364.528 828.556 364H831.244C831.324 364.64 831.364 365.336 831.364 366.088H831.412C831.668 365.368 832.132 364.8 832.804 364.384C833.476 363.968 834.26 363.76 835.156 363.76C836.02 363.76 836.756 363.952 837.364 364.336C837.972 364.704 838.38 365.216 838.588 365.872C838.908 365.216 839.396 364.704 840.052 364.336C840.708 363.952 841.444 363.76 842.26 363.76C843.588 363.76 844.628 364.192 845.38 365.056C846.148 365.904 846.532 367.08 846.532 368.584V376H843.484V368.92C843.484 368.072 843.3 367.416 842.932 366.952C842.564 366.472 842.06 366.232 841.42 366.232C840.716 366.232 840.148 366.48 839.716 366.976C839.3 367.456 839.092 368.112 839.092 368.944V376H836.068V369.016C836.068 368.136 835.892 367.456 835.54 366.976C835.188 366.48 834.692 366.232 834.052 366.232C833.364 366.232 832.796 366.496 832.348 367.024C831.916 367.536 831.7 368.2 831.7 369.016V376H828.652V367.192Z" fill="#919191"/>
    <g clip-path="url(#clip5_8_1069)">
    <path d="M877.5 359.5C877.5 359.235 877.395 358.98 877.207 358.793C877.02 358.605 876.765 358.5 876.5 358.5H868.5C868.235 358.5 867.98 358.605 867.793 358.793C867.605 358.98 867.5 359.235 867.5 359.5C867.5 359.765 867.605 360.02 867.793 360.207C867.98 360.395 868.235 360.5 868.5 360.5H874.086L864.136 370.45C863.954 370.639 863.853 370.891 863.855 371.153C863.858 371.416 863.963 371.666 864.148 371.852C864.334 372.037 864.584 372.142 864.847 372.145C865.109 372.147 865.361 372.046 865.55 371.864L875.5 361.914V367.5C875.5 367.765 875.605 368.02 875.793 368.207C875.98 368.395 876.235 368.5 876.5 368.5C876.765 368.5 877.02 368.395 877.207 368.207C877.395 368.02 877.5 367.765 877.5 367.5V359.5Z" fill="#919191"/>
    </g>
    </g>
    <defs>
    <filter id="filter0_d_8_1069" x="56.5" y="339" width="192" height="59" filterUnits="userSpaceOnUse" color-interpolation-filters="sRGB">
    <feFlood flood-opacity="0" result="BackgroundImageFix"/>
    <feColorMatrix in="SourceAlpha" type="matrix" values="0 0 0 0 0 0 0 0 0 0 0 0 0 0 0 0 0 0 127 0" result="hardAlpha"/>
    <feOffset dy="3"/>
    <feGaussianBlur stdDeviation="2"/>
    <feComposite in2="hardAlpha" operator="out"/>
    <feColorMatrix type="matrix" values="0 0 0 0 0.403922 0 0 0 0 0.901961 0 0 0 0 0.847059 0 0 0 0.6 0"/>
    <feBlend mode="normal" in2="BackgroundImageFix" result="effect1_dropShadow_8_1069"/>
    <feBlend mode="normal" in="SourceGraphic" in2="effect1_dropShadow_8_1069" result="shape"/>
    </filter>
    <filter id="filter1_d_8_1069" x="370.5" y="339" width="217" height="59" filterUnits="userSpaceOnUse" color-interpolation-filters="sRGB">
    <feFlood flood-opacity="0" result="BackgroundImageFix"/>
    <feColorMatrix in="SourceAlpha" type="matrix" values="0 0 0 0 0 0 0 0 0 0 0 0 0 0 0 0 0 0 127 0" result="hardAlpha"/>
    <feOffset dy="3"/>
    <feGaussianBlur stdDeviation="2"/>
    <feComposite in2="hardAlpha" operator="out"/>
    <feColorMatrix type="matrix" values="0 0 0 0 0.403922 0 0 0 0 0.901961 0 0 0 0 0.847059 0 0 0 0.6 0"/>
    <feBlend mode="normal" in2="BackgroundImageFix" result="effect1_dropShadow_8_1069"/>
    <feBlend mode="normal" in="SourceGraphic" in2="effect1_dropShadow_8_1069" result="shape"/>
    </filter>
    <filter id="filter2_d_8_1069" x="703.5" y="339" width="203" height="59" filterUnits="userSpaceOnUse" color-interpolation-filters="sRGB">
    <feFlood flood-opacity="0" result="BackgroundImageFix"/>
    <feColorMatrix in="SourceAlpha" type="matrix" values="0 0 0 0 0 0 0 0 0 0 0 0 0 0 0 0 0 0 127 0" result="hardAlpha"/>
    <feOffset dy="3"/>
    <feGaussianBlur stdDeviation="2"/>
    <feComposite in2="hardAlpha" operator="out"/>
    <feColorMatrix type="matrix" values="0 0 0 0 0.403922 0 0 0 0 0.901961 0 0 0 0 0.847059 0 0 0 0.6 0"/>
    <feBlend mode="normal" in2="BackgroundImageFix" result="effect1_dropShadow_8_1069"/>
    <feBlend mode="normal" in="SourceGraphic" in2="effect1_dropShadow_8_1069" result="shape"/>
    </filter>
    <linearGradient id="paint0_linear_8_1069" x1="433" y1="0" x2="433" y2="60" gradientUnits="userSpaceOnUse">
    <stop stop-color="#6FFFE9"/>
    <stop offset="1" stop-color="#5BC0BE"/>
    </linearGradient>
    <linearGradient id="paint1_linear_8_1069" x1="485" y1="120" x2="485" y2="280" gradientUnits="userSpaceOnUse">
    <stop stop-color="#6FFFE9"/>
    <stop offset="1" stop-color="#052C26"/>
    </linearGradient>
    <clipPath id="clip0_8_1069">
    <rect width="20" height="20" fill="white" transform="translate(80.5 355.5)"/>
    </clipPath>
    <clipPath id="clip1_8_1069">
    <rect width="24" height="24" fill="white" transform="matrix(-1 0 0 1 224.5 353.5)"/>
    </clipPath>
    <clipPath id="clip2_8_1069">
    <rect width="24" height="24" fill="white" transform="translate(394.5 353.5)"/>
    </clipPath>
    <clipPath id="clip3_8_1069">
    <rect width="24" height="24" fill="white" transform="matrix(-1 0 0 1 563.5 353.5)"/>
    </clipPath>
    <clipPath id="clip4_8_1069">
    <rect width="24" height="24" fill="white" transform="translate(727.5 353.5)"/>
    </clipPath>
    <clipPath id="clip5_8_1069">
    <rect width="24" height="24" fill="white" transform="matrix(-1 0 0 1 882.5 353.5)"/>
    </clipPath>
    </defs>
    </svg>
    