<svg width="1232" height="400" viewBox="0 0 1232 400" fill="none" xmlns="http://www.w3.org/2000/svg">
<g clip-path="url(#clip0_8_1038)">
<g filter="url(#filter0_b_8_1038)">
<rect width="1232" height="400" rx="20" fill="#011210"/>
<rect x="0.5" y="0.5" width="1231" height="399" rx="19.5" stroke="#3A506B"/>
</g>
<g filter="url(#filter1_f_8_1038)">
</g>
<g filter="url(#filter2_f_8_1038)">
<path d="M685.871 581.323L373.268 561.099L653.433 414.447L968.134 445.469L685.871 581.323Z" fill="#469272"/>
<g filter="url(#filter3_d_8_1038)">
<path d="M905.417 514.199L373.24 560.952L882.71 397.385L1416.36 358.19L905.417 514.199Z" fill="#469272"/>
</g>
<g filter="url(#filter4_d_8_1038)">
<path d="M769.622 507.995L373.38 561.673L760.272 459.896L1157.12 409.33L769.622 507.995Z" fill="#469272"/>
</g>
</g>
<path d="M786.84 157.4L782.3 149H785.42L788.28 154.8L791.14 149H794.26L789.72 157.4V163H786.84V157.4ZM799.147 163.2C797.534 163.2 796.274 162.74 795.367 161.82C794.461 160.9 794.007 159.627 794.007 158C794.007 156.373 794.461 155.1 795.367 154.18C796.274 153.26 797.534 152.8 799.147 152.8C800.761 152.8 802.021 153.26 802.927 154.18C803.847 155.1 804.307 156.373 804.307 158C804.307 159.627 803.847 160.9 802.927 161.82C802.021 162.74 800.761 163.2 799.147 163.2ZM799.147 161.3C799.961 161.3 800.601 161.007 801.067 160.42C801.534 159.833 801.767 159.027 801.767 158C801.767 156.973 801.534 156.167 801.067 155.58C800.601 154.993 799.961 154.7 799.147 154.7C798.334 154.7 797.694 154.993 797.227 155.58C796.774 156.167 796.547 156.973 796.547 158C796.547 159.027 796.774 159.833 797.227 160.42C797.694 161.007 798.334 161.3 799.147 161.3ZM809.409 163.2C808.263 163.2 807.389 162.813 806.789 162.04C806.203 161.267 805.909 160.133 805.909 158.64V153H808.469V158.66C808.469 159.513 808.609 160.14 808.889 160.54C809.169 160.94 809.603 161.14 810.189 161.14C810.896 161.14 811.476 160.873 811.929 160.34C812.383 159.793 812.609 159.12 812.609 158.32V153H815.169V160.46C815.169 161.14 815.223 161.987 815.329 163H812.909C812.803 162.4 812.743 161.813 812.729 161.24H812.689C812.449 161.84 812.029 162.32 811.429 162.68C810.843 163.027 810.169 163.2 809.409 163.2ZM817.24 155.44C817.24 154.307 817.22 153.493 817.18 153H819.6C819.653 153.52 819.68 154.107 819.68 154.76V154.96H819.76C820.013 154.307 820.46 153.787 821.1 153.4C821.74 153 822.473 152.8 823.3 152.8C823.46 152.8 823.66 152.82 823.9 152.86V154.88C823.847 154.853 823.687 154.84 823.42 154.84C822.78 154.84 822.18 155.013 821.62 155.36C821.073 155.707 820.633 156.173 820.3 156.76C819.967 157.333 819.8 157.953 819.8 158.62V163H817.24V155.44ZM838.997 158.94H832.037C832.251 160.353 833.071 161.06 834.497 161.06C835.084 161.06 835.591 160.96 836.017 160.76C836.457 160.56 836.884 160.227 837.297 159.76L838.677 161.08C838.291 161.72 837.704 162.233 836.917 162.62C836.144 163.007 835.291 163.2 834.357 163.2C832.797 163.2 831.584 162.747 830.717 161.84C829.851 160.92 829.417 159.653 829.417 158.04C829.417 156.413 829.851 155.133 830.717 154.2C831.597 153.267 832.804 152.8 834.337 152.8C835.804 152.8 836.944 153.26 837.757 154.18C838.584 155.1 838.997 156.38 838.997 158.02V158.94ZM836.497 157.08C836.497 156.4 836.297 155.867 835.897 155.48C835.511 155.08 834.971 154.88 834.277 154.88C833.651 154.88 833.144 155.087 832.757 155.5C832.371 155.9 832.124 156.467 832.017 157.2H836.497V157.08ZM840.577 155.66C840.577 154.327 840.551 153.44 840.497 153H842.737C842.804 153.533 842.837 154.113 842.837 154.74H842.877C843.091 154.14 843.477 153.667 844.037 153.32C844.597 152.973 845.251 152.8 845.997 152.8C846.717 152.8 847.331 152.96 847.837 153.28C848.344 153.587 848.684 154.013 848.857 154.56C849.124 154.013 849.531 153.587 850.077 153.28C850.624 152.96 851.237 152.8 851.917 152.8C853.024 152.8 853.891 153.16 854.517 153.88C855.157 154.587 855.477 155.567 855.477 156.82V163H852.937V157.1C852.937 156.393 852.784 155.847 852.477 155.46C852.171 155.06 851.751 154.86 851.217 154.86C850.631 154.86 850.157 155.067 849.797 155.48C849.451 155.88 849.277 156.427 849.277 157.12V163H846.757V157.18C846.757 156.447 846.611 155.88 846.317 155.48C846.024 155.067 845.611 154.86 845.077 154.86C844.504 154.86 844.031 155.08 843.657 155.52C843.297 155.947 843.117 156.5 843.117 157.18V163H840.577V155.66ZM860.551 163.2C859.898 163.2 859.311 163.067 858.791 162.8C858.271 162.52 857.865 162.14 857.571 161.66C857.278 161.167 857.131 160.62 857.131 160.02C857.131 158.993 857.538 158.207 858.351 157.66C859.165 157.113 860.325 156.84 861.831 156.84H863.391V156.42C863.391 155.887 863.231 155.48 862.911 155.2C862.605 154.907 862.165 154.76 861.591 154.76C860.991 154.76 860.418 154.867 859.871 155.08C859.325 155.293 858.878 155.587 858.531 155.96L857.411 154.48C857.958 153.96 858.605 153.553 859.351 153.26C860.098 152.953 860.871 152.8 861.671 152.8C863.005 152.8 864.051 153.113 864.811 153.74C865.571 154.367 865.951 155.233 865.951 156.34V160.9C865.951 161.207 865.971 161.567 866.011 161.98C866.065 162.393 866.125 162.733 866.191 163H863.931C863.851 162.827 863.791 162.66 863.751 162.5C863.711 162.327 863.678 162.093 863.651 161.8H863.611C862.851 162.733 861.831 163.2 860.551 163.2ZM861.171 161.28C861.811 161.28 862.338 161.12 862.751 160.8C863.178 160.467 863.391 160.047 863.391 159.54V158.54H861.751C861.071 158.54 860.545 158.667 860.171 158.92C859.811 159.173 859.631 159.54 859.631 160.02C859.631 160.42 859.765 160.733 860.031 160.96C860.311 161.173 860.691 161.28 861.171 161.28ZM869.837 151.84C869.344 151.84 868.951 151.707 868.657 151.44C868.364 151.16 868.217 150.793 868.217 150.34C868.217 149.887 868.364 149.527 868.657 149.26C868.951 148.98 869.344 148.84 869.837 148.84C870.331 148.84 870.724 148.98 871.017 149.26C871.324 149.527 871.477 149.887 871.477 150.34C871.477 150.793 871.331 151.16 871.037 151.44C870.744 151.707 870.344 151.84 869.837 151.84ZM868.577 153H871.117V163H868.577V153ZM876.346 163.2C875.493 163.2 874.839 162.973 874.386 162.52C873.946 162.053 873.726 161.387 873.726 160.52V148.16H876.266V160.56C876.266 160.853 876.339 161.073 876.486 161.22C876.646 161.353 876.879 161.42 877.186 161.42C877.493 161.42 877.873 161.333 878.326 161.16L878.706 162.52C878.106 162.973 877.319 163.2 876.346 163.2ZM887.29 163.2C886.636 163.2 886.05 163.067 885.53 162.8C885.01 162.52 884.603 162.14 884.31 161.66C884.016 161.167 883.87 160.62 883.87 160.02C883.87 158.993 884.276 158.207 885.09 157.66C885.903 157.113 887.063 156.84 888.57 156.84H890.13V156.42C890.13 155.887 889.97 155.48 889.65 155.2C889.343 154.907 888.903 154.76 888.33 154.76C887.73 154.76 887.156 154.867 886.61 155.08C886.063 155.293 885.616 155.587 885.27 155.96L884.15 154.48C884.696 153.96 885.343 153.553 886.09 153.26C886.836 152.953 887.61 152.8 888.41 152.8C889.743 152.8 890.79 153.113 891.55 153.74C892.31 154.367 892.69 155.233 892.69 156.34V160.9C892.69 161.207 892.71 161.567 892.75 161.98C892.803 162.393 892.863 162.733 892.93 163H890.67C890.59 162.827 890.53 162.66 890.49 162.5C890.45 162.327 890.416 162.093 890.39 161.8H890.35C889.59 162.733 888.57 163.2 887.29 163.2ZM887.91 161.28C888.55 161.28 889.076 161.12 889.49 160.8C889.916 160.467 890.13 160.047 890.13 159.54V158.54H888.49C887.81 158.54 887.283 158.667 886.91 158.92C886.55 159.173 886.37 159.54 886.37 160.02C886.37 160.42 886.503 160.733 886.77 160.96C887.05 161.173 887.43 161.28 887.91 161.28ZM898.615 163.2C897.309 163.2 896.275 162.727 895.515 161.78C894.769 160.82 894.395 159.507 894.395 157.84C894.395 156.827 894.569 155.94 894.915 155.18C895.262 154.42 895.755 153.833 896.395 153.42C897.049 153.007 897.809 152.8 898.675 152.8C899.262 152.8 899.775 152.9 900.215 153.1C900.669 153.3 901.062 153.607 901.395 154.02H901.435V148.16H903.975V160.34C903.975 161.727 903.995 162.613 904.035 163H901.635C901.622 162.773 901.615 162.333 901.615 161.68H901.575C901.269 162.133 900.842 162.5 900.295 162.78C899.762 163.06 899.202 163.2 898.615 163.2ZM899.115 161.24C899.822 161.24 900.382 161.04 900.795 160.64C901.222 160.227 901.435 159.687 901.435 159.02V156.96C901.435 156.307 901.215 155.767 900.775 155.34C900.335 154.913 899.782 154.7 899.115 154.7C898.409 154.7 897.869 154.973 897.495 155.52C897.122 156.067 896.935 156.853 896.935 157.88C896.935 158.96 897.122 159.793 897.495 160.38C897.869 160.953 898.409 161.24 899.115 161.24ZM909.768 163.2C908.461 163.2 907.428 162.727 906.668 161.78C905.921 160.82 905.548 159.507 905.548 157.84C905.548 156.827 905.721 155.94 906.068 155.18C906.414 154.42 906.908 153.833 907.548 153.42C908.201 153.007 908.961 152.8 909.828 152.8C910.414 152.8 910.928 152.9 911.368 153.1C911.821 153.3 912.214 153.607 912.548 154.02H912.588V148.16H915.128V160.34C915.128 161.727 915.148 162.613 915.188 163H912.788C912.774 162.773 912.768 162.333 912.768 161.68H912.728C912.421 162.133 911.994 162.5 911.448 162.78C910.914 163.06 910.354 163.2 909.768 163.2ZM910.268 161.24C910.974 161.24 911.534 161.04 911.948 160.64C912.374 160.227 912.588 159.687 912.588 159.02V156.96C912.588 156.307 912.368 155.767 911.928 155.34C911.488 154.913 910.934 154.7 910.268 154.7C909.561 154.7 909.021 154.973 908.648 155.52C908.274 156.067 908.088 156.853 908.088 157.88C908.088 158.96 908.274 159.793 908.648 160.38C909.021 160.953 909.561 161.24 910.268 161.24ZM917.24 155.44C917.24 154.307 917.22 153.493 917.18 153H919.6C919.653 153.52 919.68 154.107 919.68 154.76V154.96H919.76C920.013 154.307 920.46 153.787 921.1 153.4C921.74 153 922.473 152.8 923.3 152.8C923.46 152.8 923.66 152.82 923.9 152.86V154.88C923.847 154.853 923.687 154.84 923.42 154.84C922.78 154.84 922.18 155.013 921.62 155.36C921.073 155.707 920.633 156.173 920.3 156.76C919.967 157.333 919.8 157.953 919.8 158.62V163H917.24V155.44ZM934.329 158.94H927.369C927.583 160.353 928.403 161.06 929.829 161.06C930.416 161.06 930.923 160.96 931.349 160.76C931.789 160.56 932.216 160.227 932.629 159.76L934.009 161.08C933.623 161.72 933.036 162.233 932.249 162.62C931.476 163.007 930.623 163.2 929.689 163.2C928.129 163.2 926.916 162.747 926.049 161.84C925.183 160.92 924.749 159.653 924.749 158.04C924.749 156.413 925.183 155.133 926.049 154.2C926.929 153.267 928.136 152.8 929.669 152.8C931.136 152.8 932.276 153.26 933.089 154.18C933.916 155.1 934.329 156.38 934.329 158.02V158.94ZM931.829 157.08C931.829 156.4 931.629 155.867 931.229 155.48C930.843 155.08 930.303 154.88 929.609 154.88C928.983 154.88 928.476 155.087 928.089 155.5C927.703 155.9 927.456 156.467 927.349 157.2H931.829V157.08ZM939.56 163.2C938.693 163.2 937.927 163.027 937.26 162.68C936.607 162.333 936.147 161.873 935.88 161.3L937.46 160.2C937.7 160.533 938.007 160.8 938.38 161C938.753 161.2 939.133 161.3 939.52 161.3C939.973 161.3 940.347 161.187 940.64 160.96C940.933 160.72 941.08 160.427 941.08 160.08C941.08 159.8 940.973 159.58 940.76 159.42C940.547 159.247 940.093 159.027 939.4 158.76C938.187 158.293 937.333 157.82 936.84 157.34C936.347 156.86 936.1 156.267 936.1 155.56C936.1 154.733 936.433 154.067 937.1 153.56C937.78 153.053 938.68 152.8 939.8 152.8C940.547 152.8 941.22 152.947 941.82 153.24C942.42 153.52 942.907 153.927 943.28 154.46L941.8 155.56C941.333 154.987 940.7 154.7 939.9 154.7C939.5 154.7 939.187 154.773 938.96 154.92C938.747 155.053 938.64 155.253 938.64 155.52C938.64 155.707 938.687 155.86 938.78 155.98C938.873 156.1 939.053 156.227 939.32 156.36C939.587 156.493 940.013 156.673 940.6 156.9C941.387 157.207 941.993 157.507 942.42 157.8C942.86 158.08 943.167 158.393 943.34 158.74C943.527 159.073 943.62 159.48 943.62 159.96C943.62 160.6 943.447 161.167 943.1 161.66C942.767 162.14 942.293 162.52 941.68 162.8C941.067 163.067 940.36 163.2 939.56 163.2ZM948.388 163.2C947.521 163.2 946.755 163.027 946.088 162.68C945.435 162.333 944.975 161.873 944.708 161.3L946.288 160.2C946.528 160.533 946.835 160.8 947.208 161C947.581 161.2 947.961 161.3 948.348 161.3C948.801 161.3 949.175 161.187 949.468 160.96C949.761 160.72 949.908 160.427 949.908 160.08C949.908 159.8 949.801 159.58 949.588 159.42C949.375 159.247 948.921 159.027 948.228 158.76C947.015 158.293 946.161 157.82 945.668 157.34C945.175 156.86 944.928 156.267 944.928 155.56C944.928 154.733 945.261 154.067 945.928 153.56C946.608 153.053 947.508 152.8 948.628 152.8C949.375 152.8 950.048 152.947 950.648 153.24C951.248 153.52 951.735 153.927 952.108 154.46L950.628 155.56C950.161 154.987 949.528 154.7 948.728 154.7C948.328 154.7 948.015 154.773 947.788 154.92C947.575 155.053 947.468 155.253 947.468 155.52C947.468 155.707 947.515 155.86 947.608 155.98C947.701 156.1 947.881 156.227 948.148 156.36C948.415 156.493 948.841 156.673 949.428 156.9C950.215 157.207 950.821 157.507 951.248 157.8C951.688 158.08 951.995 158.393 952.168 158.74C952.355 159.073 952.448 159.48 952.448 159.96C952.448 160.6 952.275 161.167 951.928 161.66C951.595 162.14 951.121 162.52 950.508 162.8C949.895 163.067 949.188 163.2 948.388 163.2Z" fill="#919191"/>
<rect x="782.5" y="181.5" width="349" height="39" rx="9.5" fill="#011210" stroke="#3A506B"/>
<g filter="url(#filter5_d_8_1038)">
<rect x="787" y="236" width="91" height="46" rx="10" fill="#5BC0BE"/>
<rect x="787.5" y="236.5" width="90" height="45" rx="9.5" stroke="#3A506B"/>
<path d="M807.48 267.2C806.427 267.2 805.473 266.987 804.62 266.56C803.78 266.133 803.093 265.52 802.56 264.72L804.22 263.12C804.66 263.64 805.193 264.067 805.82 264.4C806.447 264.733 807.033 264.9 807.58 264.9C808.193 264.9 808.687 264.76 809.06 264.48C809.433 264.2 809.62 263.833 809.62 263.38C809.62 263.047 809.56 262.773 809.44 262.56C809.32 262.347 809.093 262.133 808.76 261.92C808.427 261.693 807.88 261.393 807.12 261.02C806.12 260.527 805.333 260.067 804.76 259.64C804.187 259.213 803.76 258.753 803.48 258.26C803.213 257.753 803.08 257.167 803.08 256.5C803.08 255.767 803.273 255.12 803.66 254.56C804.047 254 804.593 253.567 805.3 253.26C806.007 252.953 806.82 252.8 807.74 252.8C808.753 252.8 809.647 252.993 810.42 253.38C811.207 253.767 811.78 254.3 812.14 254.98L810.32 256.34C809.653 255.513 808.833 255.1 807.86 255.1C807.247 255.1 806.773 255.22 806.44 255.46C806.107 255.7 805.94 256.04 805.94 256.48C805.94 256.747 806.02 256.987 806.18 257.2C806.353 257.413 806.66 257.647 807.1 257.9C807.54 258.153 808.2 258.487 809.08 258.9C809.933 259.3 810.6 259.7 811.08 260.1C811.573 260.5 811.927 260.947 812.14 261.44C812.353 261.933 812.46 262.52 812.46 263.2C812.46 264 812.253 264.707 811.84 265.32C811.44 265.92 810.86 266.387 810.1 266.72C809.353 267.04 808.48 267.2 807.48 267.2ZM815.736 255.84C815.242 255.84 814.849 255.707 814.556 255.44C814.262 255.16 814.116 254.793 814.116 254.34C814.116 253.887 814.262 253.527 814.556 253.26C814.849 252.98 815.242 252.84 815.736 252.84C816.229 252.84 816.622 252.98 816.916 253.26C817.222 253.527 817.376 253.887 817.376 254.34C817.376 254.793 817.229 255.16 816.936 255.44C816.642 255.707 816.242 255.84 815.736 255.84ZM814.476 257H817.016V267H814.476V257ZM828.604 257V266.6C828.604 268.293 828.184 269.567 827.344 270.42C826.504 271.287 825.258 271.72 823.604 271.72C822.831 271.72 822.098 271.627 821.404 271.44C820.724 271.253 820.118 270.987 819.584 270.64L820.444 268.9C820.924 269.14 821.431 269.327 821.964 269.46C822.498 269.607 823.004 269.68 823.484 269.68C824.391 269.68 825.064 269.393 825.504 268.82C825.944 268.26 826.164 267.407 826.164 266.26V265.94C825.898 266.3 825.531 266.58 825.064 266.78C824.598 266.967 824.044 267.06 823.404 267.06C822.018 267.06 820.938 266.607 820.164 265.7C819.404 264.793 819.024 263.513 819.024 261.86C819.024 260.26 819.391 259.02 820.124 258.14C820.858 257.247 821.891 256.8 823.224 256.8C824.611 256.8 825.618 257.287 826.244 258.26H826.284L826.484 257H828.604ZM826.064 261.38C826.064 260.513 825.878 259.853 825.504 259.4C825.131 258.933 824.591 258.7 823.884 258.7C823.138 258.7 822.564 258.98 822.164 259.54C821.764 260.087 821.564 260.88 821.564 261.92C821.564 262.96 821.758 263.747 822.144 264.28C822.544 264.813 823.124 265.08 823.884 265.08C824.591 265.08 825.131 264.873 825.504 264.46C825.878 264.033 826.064 263.433 826.064 262.66V261.38ZM830.518 259.64C830.518 258.427 830.491 257.547 830.438 257H832.838C832.905 257.56 832.938 258.14 832.938 258.74H832.998C833.238 258.153 833.658 257.687 834.258 257.34C834.871 256.98 835.551 256.8 836.298 256.8C837.445 256.8 838.311 257.187 838.898 257.96C839.485 258.733 839.778 259.873 839.778 261.38V267H837.238V261.36C837.238 260.493 837.098 259.86 836.818 259.46C836.538 259.06 836.091 258.86 835.478 258.86C834.771 258.86 834.191 259.113 833.738 259.62C833.298 260.113 833.078 260.753 833.078 261.54V267H830.518V259.64ZM848.236 255.84C847.742 255.84 847.349 255.707 847.056 255.44C846.762 255.16 846.616 254.793 846.616 254.34C846.616 253.887 846.762 253.527 847.056 253.26C847.349 252.98 847.742 252.84 848.236 252.84C848.729 252.84 849.122 252.98 849.416 253.26C849.722 253.527 849.876 253.887 849.876 254.34C849.876 254.793 849.729 255.16 849.436 255.44C849.142 255.707 848.742 255.84 848.236 255.84ZM846.976 257H849.516V267H846.976V257ZM851.924 259.64C851.924 258.427 851.898 257.547 851.844 257H854.244C854.311 257.56 854.344 258.14 854.344 258.74H854.404C854.644 258.153 855.064 257.687 855.664 257.34C856.278 256.98 856.958 256.8 857.704 256.8C858.851 256.8 859.718 257.187 860.304 257.96C860.891 258.733 861.184 259.873 861.184 261.38V267H858.644V261.36C858.644 260.493 858.504 259.86 858.224 259.46C857.944 259.06 857.498 258.86 856.884 258.86C856.178 258.86 855.598 259.113 855.144 259.62C854.704 260.113 854.484 260.753 854.484 261.54V267H851.924V259.64Z" fill="#07100E"/>
</g>
<path d="M100 117H220" stroke="#919191" stroke-width="2" stroke-linecap="round"/>
<path d="M130.288 154.4V188H123.904L110.128 165.92V188H103.264V154.4H109.936L123.424 176.144V154.4H130.288ZM158.091 178.256H141.387C141.899 181.648 143.867 183.344 147.291 183.344C148.699 183.344 149.915 183.104 150.939 182.624C151.995 182.144 153.019 181.344 154.011 180.224L157.323 183.392C156.395 184.928 154.987 186.16 153.099 187.088C151.243 188.016 149.195 188.48 146.955 188.48C143.211 188.48 140.299 187.392 138.219 185.216C136.139 183.008 135.099 179.968 135.099 176.096C135.099 172.192 136.139 169.12 138.219 166.88C140.331 164.64 143.227 163.52 146.907 163.52C150.427 163.52 153.163 164.624 155.115 166.832C157.099 169.04 158.091 172.112 158.091 176.048V178.256ZM152.091 173.792C152.091 172.16 151.611 170.88 150.651 169.952C149.723 168.992 148.427 168.512 146.763 168.512C145.259 168.512 144.043 169.008 143.115 170C142.187 170.96 141.595 172.32 141.339 174.08H152.091V173.792ZM192.89 164L186.746 188H181.37L176.57 170.624L171.77 188H166.346L160.202 164H166.586L169.61 178.928L173.834 164H179.258L183.482 178.928L186.506 164H192.89ZM203.644 188.48C201.564 188.48 199.724 188.064 198.124 187.232C196.556 186.4 195.452 185.296 194.812 183.92L198.604 181.28C199.18 182.08 199.916 182.72 200.812 183.2C201.708 183.68 202.62 183.92 203.548 183.92C204.636 183.92 205.532 183.648 206.236 183.104C206.94 182.528 207.292 181.824 207.292 180.992C207.292 180.32 207.036 179.792 206.524 179.408C206.012 178.992 204.924 178.464 203.26 177.824C200.348 176.704 198.3 175.568 197.116 174.416C195.932 173.264 195.34 171.84 195.34 170.144C195.34 168.16 196.14 166.56 197.74 165.344C199.372 164.128 201.532 163.52 204.22 163.52C206.012 163.52 207.628 163.872 209.068 164.576C210.508 165.248 211.676 166.224 212.572 167.504L209.02 170.144C207.9 168.768 206.38 168.08 204.46 168.08C203.5 168.08 202.748 168.256 202.204 168.608C201.692 168.928 201.436 169.408 201.436 170.048C201.436 170.496 201.548 170.864 201.772 171.152C201.996 171.44 202.428 171.744 203.068 172.064C203.708 172.384 204.732 172.816 206.14 173.36C208.028 174.096 209.484 174.816 210.508 175.52C211.564 176.192 212.3 176.944 212.716 177.776C213.164 178.576 213.388 179.552 213.388 180.704C213.388 182.24 212.972 183.6 212.14 184.784C211.34 185.936 210.204 186.848 208.732 187.52C207.26 188.16 205.564 188.48 203.644 188.48ZM223.727 188.48C221.679 188.48 220.111 187.936 219.023 186.848C217.967 185.728 217.439 184.128 217.439 182.048V152.384H223.535V182.144C223.535 182.848 223.711 183.376 224.063 183.728C224.447 184.048 225.007 184.208 225.743 184.208C226.479 184.208 227.391 184 228.479 183.584L229.391 186.848C227.951 187.936 226.063 188.48 223.727 188.48ZM252.216 178.256H235.512C236.024 181.648 237.992 183.344 241.416 183.344C242.824 183.344 244.04 183.104 245.064 182.624C246.12 182.144 247.144 181.344 248.136 180.224L251.448 183.392C250.52 184.928 249.112 186.16 247.224 187.088C245.368 188.016 243.32 188.48 241.08 188.48C237.336 188.48 234.424 187.392 232.344 185.216C230.264 183.008 229.224 179.968 229.224 176.096C229.224 172.192 230.264 169.12 232.344 166.88C234.456 164.64 237.352 163.52 241.032 163.52C244.552 163.52 247.288 164.624 249.24 166.832C251.224 169.04 252.216 172.112 252.216 176.048V178.256ZM246.216 173.792C246.216 172.16 245.736 170.88 244.776 169.952C243.848 168.992 242.552 168.512 240.888 168.512C239.384 168.512 238.168 169.008 237.24 170C236.312 170.96 235.72 172.32 235.464 174.08H246.216V173.792ZM266.471 188.48C264.007 188.48 262.087 187.808 260.711 186.464C259.335 185.12 258.647 183.232 258.647 180.8V168.56H254.279V164H258.647V157.808L264.599 156.08H264.791V164H271.751V168.56H264.791V179.888C264.791 181.264 265.111 182.272 265.751 182.912C266.391 183.552 267.367 183.872 268.679 183.872C269.927 183.872 271.095 183.68 272.183 183.296L272.471 187.472C271.031 188.144 269.031 188.48 266.471 188.48ZM286.627 188.48C284.163 188.48 282.243 187.808 280.867 186.464C279.491 185.12 278.803 183.232 278.803 180.8V168.56H274.435V164H278.803V157.808L284.755 156.08H284.947V164H291.907V168.56H284.947V179.888C284.947 181.264 285.267 182.272 285.907 182.912C286.547 183.552 287.523 183.872 288.835 183.872C290.083 183.872 291.251 183.68 292.339 183.296L292.627 187.472C291.187 188.144 289.187 188.48 286.627 188.48ZM318.544 178.256H301.84C302.352 181.648 304.32 183.344 307.744 183.344C309.152 183.344 310.368 183.104 311.392 182.624C312.448 182.144 313.472 181.344 314.464 180.224L317.776 183.392C316.848 184.928 315.44 186.16 313.552 187.088C311.696 188.016 309.648 188.48 307.408 188.48C303.664 188.48 300.752 187.392 298.672 185.216C296.592 183.008 295.552 179.968 295.552 176.096C295.552 172.192 296.592 169.12 298.672 166.88C300.784 164.64 303.68 163.52 307.36 163.52C310.88 163.52 313.616 164.624 315.568 166.832C317.552 169.04 318.544 172.112 318.544 176.048V178.256ZM312.544 173.792C312.544 172.16 312.064 170.88 311.104 169.952C310.176 168.992 308.88 168.512 307.216 168.512C305.712 168.512 304.496 169.008 303.568 170C302.64 170.96 302.048 172.32 301.792 174.08H312.544V173.792ZM322.623 169.856C322.623 167.136 322.575 165.184 322.479 164H328.287C328.415 165.248 328.479 166.656 328.479 168.224V168.704H328.671C329.279 167.136 330.351 165.888 331.887 164.96C333.423 164 335.183 163.52 337.167 163.52C337.551 163.52 338.031 163.568 338.607 163.664V168.512C338.479 168.448 338.095 168.416 337.455 168.416C335.919 168.416 334.479 168.832 333.135 169.664C331.823 170.496 330.767 171.616 329.967 173.024C329.167 174.4 328.767 175.888 328.767 177.488V188H322.623V169.856Z" fill="white"/>
<path d="M105.48 226.2C104.427 226.2 103.473 225.987 102.62 225.56C101.78 225.133 101.093 224.52 100.56 223.72L102.22 222.12C102.66 222.64 103.193 223.067 103.82 223.4C104.447 223.733 105.033 223.9 105.58 223.9C106.193 223.9 106.687 223.76 107.06 223.48C107.433 223.2 107.62 222.833 107.62 222.38C107.62 222.047 107.56 221.773 107.44 221.56C107.32 221.347 107.093 221.133 106.76 220.92C106.427 220.693 105.88 220.393 105.12 220.02C104.12 219.527 103.333 219.067 102.76 218.64C102.187 218.213 101.76 217.753 101.48 217.26C101.213 216.753 101.08 216.167 101.08 215.5C101.08 214.767 101.273 214.12 101.66 213.56C102.047 213 102.593 212.567 103.3 212.26C104.007 211.953 104.82 211.8 105.74 211.8C106.753 211.8 107.647 211.993 108.42 212.38C109.207 212.767 109.78 213.3 110.14 213.98L108.32 215.34C107.653 214.513 106.833 214.1 105.86 214.1C105.247 214.1 104.773 214.22 104.44 214.46C104.107 214.7 103.94 215.04 103.94 215.48C103.94 215.747 104.02 215.987 104.18 216.2C104.353 216.413 104.66 216.647 105.1 216.9C105.54 217.153 106.2 217.487 107.08 217.9C107.933 218.3 108.6 218.7 109.08 219.1C109.573 219.5 109.927 219.947 110.14 220.44C110.353 220.933 110.46 221.52 110.46 222.2C110.46 223 110.253 223.707 109.84 224.32C109.44 224.92 108.86 225.387 108.1 225.72C107.353 226.04 106.48 226.2 105.48 226.2ZM115.476 226.2C114.329 226.2 113.456 225.813 112.856 225.04C112.269 224.267 111.976 223.133 111.976 221.64V216H114.536V221.66C114.536 222.513 114.676 223.14 114.956 223.54C115.236 223.94 115.669 224.14 116.256 224.14C116.962 224.14 117.542 223.873 117.996 223.34C118.449 222.793 118.676 222.12 118.676 221.32V216H121.236V223.46C121.236 224.14 121.289 224.987 121.396 226H118.976C118.869 225.4 118.809 224.813 118.796 224.24H118.756C118.516 224.84 118.096 225.32 117.496 225.68C116.909 226.027 116.236 226.2 115.476 226.2ZM128.627 226.2C128.04 226.2 127.473 226.06 126.927 225.78C126.393 225.5 125.973 225.133 125.667 224.68H125.627C125.627 225.32 125.62 225.76 125.607 226H123.207C123.247 225.613 123.267 224.727 123.267 223.34V211.16H125.807V217.02H125.847C126.42 216.207 127.387 215.8 128.747 215.8C130.027 215.8 131.027 216.247 131.747 217.14C132.48 218.033 132.847 219.267 132.847 220.84C132.847 222.507 132.467 223.82 131.707 224.78C130.96 225.727 129.933 226.2 128.627 226.2ZM128.127 224.24C128.833 224.24 129.373 223.953 129.747 223.38C130.12 222.793 130.307 221.96 130.307 220.88C130.307 219.853 130.12 219.067 129.747 218.52C129.373 217.973 128.833 217.7 128.127 217.7C127.46 217.7 126.907 217.913 126.467 218.34C126.027 218.767 125.807 219.307 125.807 219.96V222.02C125.807 222.687 126.013 223.227 126.427 223.64C126.853 224.04 127.42 224.24 128.127 224.24ZM137.599 226.2C136.732 226.2 135.966 226.027 135.299 225.68C134.646 225.333 134.186 224.873 133.919 224.3L135.499 223.2C135.739 223.533 136.046 223.8 136.419 224C136.792 224.2 137.172 224.3 137.559 224.3C138.012 224.3 138.386 224.187 138.679 223.96C138.972 223.72 139.119 223.427 139.119 223.08C139.119 222.8 139.012 222.58 138.799 222.42C138.586 222.247 138.132 222.027 137.439 221.76C136.226 221.293 135.372 220.82 134.879 220.34C134.386 219.86 134.139 219.267 134.139 218.56C134.139 217.733 134.472 217.067 135.139 216.56C135.819 216.053 136.719 215.8 137.839 215.8C138.586 215.8 139.259 215.947 139.859 216.24C140.459 216.52 140.946 216.927 141.319 217.46L139.839 218.56C139.372 217.987 138.739 217.7 137.939 217.7C137.539 217.7 137.226 217.773 136.999 217.92C136.786 218.053 136.679 218.253 136.679 218.52C136.679 218.707 136.726 218.86 136.819 218.98C136.912 219.1 137.092 219.227 137.359 219.36C137.626 219.493 138.052 219.673 138.639 219.9C139.426 220.207 140.032 220.507 140.459 220.8C140.899 221.08 141.206 221.393 141.379 221.74C141.566 222.073 141.659 222.48 141.659 222.96C141.659 223.6 141.486 224.167 141.139 224.66C140.806 225.14 140.332 225.52 139.719 225.8C139.106 226.067 138.399 226.2 137.599 226.2ZM147.727 226.2C146.18 226.2 144.96 225.74 144.067 224.82C143.187 223.887 142.747 222.613 142.747 221C142.747 219.373 143.187 218.1 144.067 217.18C144.96 216.26 146.18 215.8 147.727 215.8C148.66 215.8 149.474 215.973 150.167 216.32C150.86 216.667 151.394 217.16 151.767 217.8L150.227 219.14C149.974 218.7 149.634 218.36 149.207 218.12C148.794 217.88 148.34 217.76 147.847 217.76C147.047 217.76 146.42 218.047 145.967 218.62C145.514 219.193 145.287 219.987 145.287 221C145.287 222.013 145.514 222.807 145.967 223.38C146.42 223.953 147.047 224.24 147.847 224.24C148.34 224.24 148.794 224.12 149.207 223.88C149.62 223.627 149.96 223.287 150.227 222.86L151.767 224.2C151.394 224.84 150.86 225.333 150.167 225.68C149.474 226.027 148.66 226.2 147.727 226.2ZM153.131 218.44C153.131 217.307 153.111 216.493 153.071 216H155.491C155.544 216.52 155.571 217.107 155.571 217.76V217.96H155.651C155.904 217.307 156.351 216.787 156.991 216.4C157.631 216 158.364 215.8 159.191 215.8C159.351 215.8 159.551 215.82 159.791 215.86V217.88C159.737 217.853 159.577 217.84 159.311 217.84C158.671 217.84 158.071 218.013 157.511 218.36C156.964 218.707 156.524 219.173 156.191 219.76C155.857 220.333 155.691 220.953 155.691 221.62V226H153.131V218.44ZM162.72 214.84C162.227 214.84 161.833 214.707 161.54 214.44C161.247 214.16 161.1 213.793 161.1 213.34C161.1 212.887 161.247 212.527 161.54 212.26C161.833 211.98 162.227 211.84 162.72 211.84C163.213 211.84 163.607 211.98 163.9 212.26C164.207 212.527 164.36 212.887 164.36 213.34C164.36 213.793 164.213 214.16 163.92 214.44C163.627 214.707 163.227 214.84 162.72 214.84ZM161.46 216H164V226H161.46V216ZM171.869 226.2C171.282 226.2 170.715 226.06 170.169 225.78C169.635 225.5 169.215 225.133 168.909 224.68H168.869C168.869 225.32 168.862 225.76 168.849 226H166.449C166.489 225.613 166.509 224.727 166.509 223.34V211.16H169.049V217.02H169.089C169.662 216.207 170.629 215.8 171.989 215.8C173.269 215.8 174.269 216.247 174.989 217.14C175.722 218.033 176.089 219.267 176.089 220.84C176.089 222.507 175.709 223.82 174.949 224.78C174.202 225.727 173.175 226.2 171.869 226.2ZM171.369 224.24C172.075 224.24 172.615 223.953 172.989 223.38C173.362 222.793 173.549 221.96 173.549 220.88C173.549 219.853 173.362 219.067 172.989 218.52C172.615 217.973 172.075 217.7 171.369 217.7C170.702 217.7 170.149 217.913 169.709 218.34C169.269 218.767 169.049 219.307 169.049 219.96V222.02C169.049 222.687 169.255 223.227 169.669 223.64C170.095 224.04 170.662 224.24 171.369 224.24ZM186.841 221.94H179.881C180.094 223.353 180.914 224.06 182.341 224.06C182.928 224.06 183.434 223.96 183.861 223.76C184.301 223.56 184.728 223.227 185.141 222.76L186.521 224.08C186.134 224.72 185.548 225.233 184.761 225.62C183.988 226.007 183.134 226.2 182.201 226.2C180.641 226.2 179.428 225.747 178.561 224.84C177.694 223.92 177.261 222.653 177.261 221.04C177.261 219.413 177.694 218.133 178.561 217.2C179.441 216.267 180.648 215.8 182.181 215.8C183.648 215.8 184.788 216.26 185.601 217.18C186.428 218.1 186.841 219.38 186.841 221.02V221.94ZM184.341 220.08C184.341 219.4 184.141 218.867 183.741 218.48C183.354 218.08 182.814 217.88 182.121 217.88C181.494 217.88 180.988 218.087 180.601 218.5C180.214 218.9 179.968 219.467 179.861 220.2H184.341V220.08ZM197.449 226.2C196.422 226.2 195.622 225.92 195.049 225.36C194.476 224.8 194.189 224.013 194.189 223V217.9H192.369V216H194.189V213.42L196.669 212.7H196.749V216H199.649V217.9H196.749V222.62C196.749 223.193 196.882 223.613 197.149 223.88C197.416 224.147 197.822 224.28 198.369 224.28C198.889 224.28 199.376 224.2 199.829 224.04L199.949 225.78C199.349 226.06 198.516 226.2 197.449 226.2ZM205.702 226.2C204.089 226.2 202.829 225.74 201.922 224.82C201.015 223.9 200.562 222.627 200.562 221C200.562 219.373 201.015 218.1 201.922 217.18C202.829 216.26 204.089 215.8 205.702 215.8C207.315 215.8 208.575 216.26 209.482 217.18C210.402 218.1 210.862 219.373 210.862 221C210.862 222.627 210.402 223.9 209.482 224.82C208.575 225.74 207.315 226.2 205.702 226.2ZM205.702 224.3C206.515 224.3 207.155 224.007 207.622 223.42C208.089 222.833 208.322 222.027 208.322 221C208.322 219.973 208.089 219.167 207.622 218.58C207.155 217.993 206.515 217.7 205.702 217.7C204.889 217.7 204.249 217.993 203.782 218.58C203.329 219.167 203.102 219.973 203.102 221C203.102 222.027 203.329 222.833 203.782 223.42C204.249 224.007 204.889 224.3 205.702 224.3ZM221.492 226.2C220.465 226.2 219.665 225.92 219.092 225.36C218.519 224.8 218.232 224.013 218.232 223V217.9H216.412V216H218.232V213.42L220.712 212.7H220.792V216H223.692V217.9H220.792V222.62C220.792 223.193 220.925 223.613 221.192 223.88C221.459 224.147 221.865 224.28 222.412 224.28C222.932 224.28 223.419 224.2 223.872 224.04L223.992 225.78C223.392 226.06 222.559 226.2 221.492 226.2ZM225.53 211.16H228.09V217.18C228.397 216.753 228.824 216.42 229.37 216.18C229.93 215.927 230.537 215.8 231.19 215.8C232.324 215.8 233.23 216.173 233.91 216.92C234.604 217.667 234.95 218.693 234.95 220V226H232.39V220.18C232.39 219.407 232.224 218.8 231.89 218.36C231.557 217.92 231.097 217.7 230.51 217.7C229.777 217.7 229.19 217.96 228.75 218.48C228.31 218.987 228.09 219.68 228.09 220.56V226H225.53V211.16ZM246.138 221.94H239.178C239.391 223.353 240.211 224.06 241.638 224.06C242.225 224.06 242.731 223.96 243.158 223.76C243.598 223.56 244.025 223.227 244.438 222.76L245.818 224.08C245.431 224.72 244.845 225.233 244.058 225.62C243.285 226.007 242.431 226.2 241.498 226.2C239.938 226.2 238.725 225.747 237.858 224.84C236.991 223.92 236.558 222.653 236.558 221.04C236.558 219.413 236.991 218.133 237.858 217.2C238.738 216.267 239.945 215.8 241.478 215.8C242.945 215.8 244.085 216.26 244.898 217.18C245.725 218.1 246.138 219.38 246.138 221.02V221.94ZM243.638 220.08C243.638 219.4 243.438 218.867 243.038 218.48C242.651 218.08 242.111 217.88 241.418 217.88C240.791 217.88 240.285 218.087 239.898 218.5C239.511 218.9 239.265 219.467 239.158 220.2H243.638V220.08ZM256.906 226.2C255.852 226.2 254.899 225.987 254.046 225.56C253.206 225.133 252.519 224.52 251.986 223.72L253.646 222.12C254.086 222.64 254.619 223.067 255.246 223.4C255.872 223.733 256.459 223.9 257.006 223.9C257.619 223.9 258.112 223.76 258.486 223.48C258.859 223.2 259.046 222.833 259.046 222.38C259.046 222.047 258.986 221.773 258.866 221.56C258.746 221.347 258.519 221.133 258.186 220.92C257.852 220.693 257.306 220.393 256.546 220.02C255.546 219.527 254.759 219.067 254.186 218.64C253.612 218.213 253.186 217.753 252.906 217.26C252.639 216.753 252.506 216.167 252.506 215.5C252.506 214.767 252.699 214.12 253.086 213.56C253.472 213 254.019 212.567 254.726 212.26C255.432 211.953 256.246 211.8 257.166 211.8C258.179 211.8 259.072 211.993 259.846 212.38C260.632 212.767 261.206 213.3 261.566 213.98L259.746 215.34C259.079 214.513 258.259 214.1 257.286 214.1C256.672 214.1 256.199 214.22 255.866 214.46C255.532 214.7 255.366 215.04 255.366 215.48C255.366 215.747 255.446 215.987 255.606 216.2C255.779 216.413 256.086 216.647 256.526 216.9C256.966 217.153 257.626 217.487 258.506 217.9C259.359 218.3 260.026 218.7 260.506 219.1C260.999 219.5 261.352 219.947 261.566 220.44C261.779 220.933 261.886 221.52 261.886 222.2C261.886 223 261.679 223.707 261.266 224.32C260.866 224.92 260.286 225.387 259.526 225.72C258.779 226.04 257.906 226.2 256.906 226.2ZM272.661 221.94H265.701C265.915 223.353 266.735 224.06 268.161 224.06C268.748 224.06 269.255 223.96 269.681 223.76C270.121 223.56 270.548 223.227 270.961 222.76L272.341 224.08C271.955 224.72 271.368 225.233 270.581 225.62C269.808 226.007 268.955 226.2 268.021 226.2C266.461 226.2 265.248 225.747 264.381 224.84C263.515 223.92 263.081 222.653 263.081 221.04C263.081 219.413 263.515 218.133 264.381 217.2C265.261 216.267 266.468 215.8 268.001 215.8C269.468 215.8 270.608 216.26 271.421 217.18C272.248 218.1 272.661 219.38 272.661 221.02V221.94ZM270.161 220.08C270.161 219.4 269.961 218.867 269.561 218.48C269.175 218.08 268.635 217.88 267.941 217.88C267.315 217.88 266.808 218.087 266.421 218.5C266.035 218.9 265.788 219.467 265.681 220.2H270.161V220.08ZM274.241 218.66C274.241 217.327 274.215 216.44 274.161 216H276.401C276.468 216.533 276.501 217.113 276.501 217.74H276.541C276.755 217.14 277.141 216.667 277.701 216.32C278.261 215.973 278.915 215.8 279.661 215.8C280.381 215.8 280.995 215.96 281.501 216.28C282.008 216.587 282.348 217.013 282.521 217.56C282.788 217.013 283.195 216.587 283.741 216.28C284.288 215.96 284.901 215.8 285.581 215.8C286.688 215.8 287.555 216.16 288.181 216.88C288.821 217.587 289.141 218.567 289.141 219.82V226H286.601V220.1C286.601 219.393 286.448 218.847 286.141 218.46C285.835 218.06 285.415 217.86 284.881 217.86C284.295 217.86 283.821 218.067 283.461 218.48C283.115 218.88 282.941 219.427 282.941 220.12V226H280.421V220.18C280.421 219.447 280.275 218.88 279.981 218.48C279.688 218.067 279.275 217.86 278.741 217.86C278.168 217.86 277.695 218.08 277.321 218.52C276.961 218.947 276.781 219.5 276.781 220.18V226H274.241V218.66ZM292.915 214.84C292.422 214.84 292.029 214.707 291.735 214.44C291.442 214.16 291.295 213.793 291.295 213.34C291.295 212.887 291.442 212.527 291.735 212.26C292.029 211.98 292.422 211.84 292.915 211.84C293.409 211.84 293.802 211.98 294.095 212.26C294.402 212.527 294.555 212.887 294.555 213.34C294.555 213.793 294.409 214.16 294.115 214.44C293.822 214.707 293.422 214.84 292.915 214.84ZM291.655 216H294.195V226H291.655V216ZM301.692 212H304.572V217.72H309.952V212H312.812V226H309.952V220.02H304.572V226H301.692V212ZM324.02 216L320.2 226.46C319.786 227.58 319.213 228.42 318.48 228.98C317.76 229.553 316.893 229.84 315.88 229.84C315.346 229.84 314.8 229.767 314.24 229.62V227.6C314.4 227.653 314.6 227.7 314.84 227.74C315.08 227.78 315.293 227.8 315.48 227.8C316.066 227.8 316.566 227.593 316.98 227.18C317.406 226.78 317.786 226.14 318.12 225.26L314.4 216H317.12L319.32 222.4L321.3 216H324.02ZM325.337 218.66C325.337 217.58 325.311 216.693 325.257 216H327.657C327.697 216.4 327.717 216.84 327.717 217.32H327.757C328.091 216.84 328.524 216.467 329.057 216.2C329.591 215.933 330.184 215.8 330.837 215.8C332.104 215.8 333.104 216.267 333.837 217.2C334.571 218.133 334.937 219.407 334.937 221.02C334.937 222.633 334.564 223.9 333.817 224.82C333.084 225.74 332.064 226.2 330.757 226.2C330.117 226.2 329.551 226.093 329.057 225.88C328.564 225.667 328.197 225.367 327.957 224.98H327.897V230.84H325.337V218.66ZM330.197 224.3C330.904 224.3 331.444 224.013 331.817 223.44C332.191 222.853 332.377 222.02 332.377 220.94C332.377 218.82 331.664 217.76 330.237 217.76C329.544 217.76 328.977 217.967 328.537 218.38C328.111 218.78 327.897 219.313 327.897 219.98V222.04C327.897 222.68 328.117 223.22 328.557 223.66C328.997 224.087 329.544 224.3 330.197 224.3ZM336.546 211.16H339.106V217.18C339.413 216.753 339.839 216.42 340.386 216.18C340.946 215.927 341.553 215.8 342.206 215.8C343.339 215.8 344.246 216.173 344.926 216.92C345.619 217.667 345.966 218.693 345.966 220V226H343.406V220.18C343.406 219.407 343.239 218.8 342.906 218.36C342.573 217.92 342.113 217.7 341.526 217.7C340.793 217.7 340.206 217.96 339.766 218.48C339.326 218.987 339.106 219.68 339.106 220.56V226H336.546V211.16ZM357.154 221.94H350.194C350.407 223.353 351.227 224.06 352.654 224.06C353.24 224.06 353.747 223.96 354.174 223.76C354.614 223.56 355.04 223.227 355.454 222.76L356.834 224.08C356.447 224.72 355.86 225.233 355.074 225.62C354.3 226.007 353.447 226.2 352.514 226.2C350.954 226.2 349.74 225.747 348.874 224.84C348.007 223.92 347.574 222.653 347.574 221.04C347.574 219.413 348.007 218.133 348.874 217.2C349.754 216.267 350.96 215.8 352.494 215.8C353.96 215.8 355.1 216.26 355.914 217.18C356.74 218.1 357.154 219.38 357.154 221.02V221.94ZM354.654 220.08C354.654 219.4 354.454 218.867 354.054 218.48C353.667 218.08 353.127 217.88 352.434 217.88C351.807 217.88 351.3 218.087 350.914 218.5C350.527 218.9 350.28 219.467 350.174 220.2H354.654V220.08ZM358.713 218.64C358.713 217.427 358.687 216.547 358.633 216H361.033C361.1 216.56 361.133 217.14 361.133 217.74H361.193C361.433 217.153 361.853 216.687 362.453 216.34C363.067 215.98 363.747 215.8 364.493 215.8C365.64 215.8 366.507 216.187 367.093 216.96C367.68 217.733 367.973 218.873 367.973 220.38V226H365.433V220.36C365.433 219.493 365.293 218.86 365.013 218.46C364.733 218.06 364.287 217.86 363.673 217.86C362.967 217.86 362.387 218.113 361.933 218.62C361.493 219.113 361.273 219.753 361.273 220.54V226H358.713V218.64ZM374.651 218.64C374.651 217.427 374.624 216.547 374.571 216H376.971C377.038 216.56 377.071 217.14 377.071 217.74H377.131C377.371 217.153 377.791 216.687 378.391 216.34C379.004 215.98 379.684 215.8 380.431 215.8C381.578 215.8 382.444 216.187 383.031 216.96C383.618 217.733 383.911 218.873 383.911 220.38V226H381.371V220.36C381.371 219.493 381.231 218.86 380.951 218.46C380.671 218.06 380.224 217.86 379.611 217.86C378.904 217.86 378.324 218.113 377.871 218.62C377.431 219.113 377.211 219.753 377.211 220.54V226H374.651V218.64ZM395.2 221.94H388.24C388.454 223.353 389.274 224.06 390.7 224.06C391.287 224.06 391.794 223.96 392.22 223.76C392.66 223.56 393.087 223.227 393.5 222.76L394.88 224.08C394.494 224.72 393.907 225.233 393.12 225.62C392.347 226.007 391.494 226.2 390.56 226.2C389 226.2 387.787 225.747 386.92 224.84C386.054 223.92 385.62 222.653 385.62 221.04C385.62 219.413 386.054 218.133 386.92 217.2C387.8 216.267 389.007 215.8 390.54 215.8C392.007 215.8 393.147 216.26 393.96 217.18C394.787 218.1 395.2 219.38 395.2 221.02V221.94ZM392.7 220.08C392.7 219.4 392.5 218.867 392.1 218.48C391.714 218.08 391.174 217.88 390.48 217.88C389.854 217.88 389.347 218.087 388.96 218.5C388.574 218.9 388.327 219.467 388.22 220.2H392.7V220.08ZM409.7 216L407.14 226H404.9L402.9 218.76L400.9 226H398.64L396.08 216H398.74L400 222.22L401.76 216H404.02L405.78 222.22L407.04 216H409.7ZM414.181 226.2C413.314 226.2 412.548 226.027 411.881 225.68C411.228 225.333 410.768 224.873 410.501 224.3L412.081 223.2C412.321 223.533 412.628 223.8 413.001 224C413.374 224.2 413.754 224.3 414.141 224.3C414.594 224.3 414.968 224.187 415.261 223.96C415.554 223.72 415.701 223.427 415.701 223.08C415.701 222.8 415.594 222.58 415.381 222.42C415.168 222.247 414.714 222.027 414.021 221.76C412.808 221.293 411.954 220.82 411.461 220.34C410.968 219.86 410.721 219.267 410.721 218.56C410.721 217.733 411.054 217.067 411.721 216.56C412.401 216.053 413.301 215.8 414.421 215.8C415.168 215.8 415.841 215.947 416.441 216.24C417.041 216.52 417.528 216.927 417.901 217.46L416.421 218.56C415.954 217.987 415.321 217.7 414.521 217.7C414.121 217.7 413.808 217.773 413.581 217.92C413.368 218.053 413.261 218.253 413.261 218.52C413.261 218.707 413.308 218.86 413.401 218.98C413.494 219.1 413.674 219.227 413.941 219.36C414.208 219.493 414.634 219.673 415.221 219.9C416.008 220.207 416.614 220.507 417.041 220.8C417.481 221.08 417.788 221.393 417.961 221.74C418.148 222.073 418.241 222.48 418.241 222.96C418.241 223.6 418.068 224.167 417.721 224.66C417.388 225.14 416.914 225.52 416.301 225.8C415.688 226.067 414.981 226.2 414.181 226.2ZM422.549 226.2C421.696 226.2 421.042 225.973 420.589 225.52C420.149 225.053 419.929 224.387 419.929 223.52V211.16H422.469V223.56C422.469 223.853 422.542 224.073 422.689 224.22C422.849 224.353 423.082 224.42 423.389 224.42C423.696 224.42 424.076 224.333 424.529 224.16L424.909 225.52C424.309 225.973 423.522 226.2 422.549 226.2ZM434.419 221.94H427.459C427.673 223.353 428.493 224.06 429.919 224.06C430.506 224.06 431.013 223.96 431.439 223.76C431.879 223.56 432.306 223.227 432.719 222.76L434.099 224.08C433.713 224.72 433.126 225.233 432.339 225.62C431.566 226.007 430.713 226.2 429.779 226.2C428.219 226.2 427.006 225.747 426.139 224.84C425.273 223.92 424.839 222.653 424.839 221.04C424.839 219.413 425.273 218.133 426.139 217.2C427.019 216.267 428.226 215.8 429.759 215.8C431.226 215.8 432.366 216.26 433.179 217.18C434.006 218.1 434.419 219.38 434.419 221.02V221.94ZM431.919 220.08C431.919 219.4 431.719 218.867 431.319 218.48C430.933 218.08 430.393 217.88 429.699 217.88C429.073 217.88 428.566 218.087 428.179 218.5C427.793 218.9 427.546 219.467 427.439 220.2H431.919V220.08ZM440.359 226.2C439.332 226.2 438.532 225.92 437.959 225.36C437.386 224.8 437.099 224.013 437.099 223V217.9H435.279V216H437.099V213.42L439.579 212.7H439.659V216H442.559V217.9H439.659V222.62C439.659 223.193 439.792 223.613 440.059 223.88C440.326 224.147 440.732 224.28 441.279 224.28C441.799 224.28 442.286 224.2 442.739 224.04L442.859 225.78C442.259 226.06 441.426 226.2 440.359 226.2ZM448.758 226.2C447.731 226.2 446.931 225.92 446.358 225.36C445.784 224.8 445.498 224.013 445.498 223V217.9H443.678V216H445.498V213.42L447.978 212.7H448.058V216H450.958V217.9H448.058V222.62C448.058 223.193 448.191 223.613 448.458 223.88C448.724 224.147 449.131 224.28 449.678 224.28C450.198 224.28 450.684 224.2 451.138 224.04L451.258 225.78C450.658 226.06 449.824 226.2 448.758 226.2ZM462.056 221.94H455.096C455.309 223.353 456.129 224.06 457.556 224.06C458.143 224.06 458.649 223.96 459.076 223.76C459.516 223.56 459.943 223.227 460.356 222.76L461.736 224.08C461.349 224.72 460.763 225.233 459.976 225.62C459.203 226.007 458.349 226.2 457.416 226.2C455.856 226.2 454.643 225.747 453.776 224.84C452.909 223.92 452.476 222.653 452.476 221.04C452.476 219.413 452.909 218.133 453.776 217.2C454.656 216.267 455.863 215.8 457.396 215.8C458.863 215.8 460.003 216.26 460.816 217.18C461.643 218.1 462.056 219.38 462.056 221.02V221.94ZM459.556 220.08C459.556 219.4 459.356 218.867 458.956 218.48C458.569 218.08 458.029 217.88 457.336 217.88C456.709 217.88 456.203 218.087 455.816 218.5C455.429 218.9 455.183 219.467 455.076 220.2H459.556V220.08ZM463.756 218.44C463.756 217.307 463.736 216.493 463.696 216H466.116C466.169 216.52 466.196 217.107 466.196 217.76V217.96H466.276C466.529 217.307 466.976 216.787 467.616 216.4C468.256 216 468.989 215.8 469.816 215.8C469.976 215.8 470.176 215.82 470.416 215.86V217.88C470.362 217.853 470.202 217.84 469.936 217.84C469.296 217.84 468.696 218.013 468.136 218.36C467.589 218.707 467.149 219.173 466.816 219.76C466.482 220.333 466.316 220.953 466.316 221.62V226H463.756V218.44ZM105.32 252.2C104.293 252.2 103.493 251.92 102.92 251.36C102.347 250.8 102.06 250.013 102.06 249V243.9H100.24V242H102.06V239.42L104.54 238.7H104.62V242H107.52V243.9H104.62V248.62C104.62 249.193 104.753 249.613 105.02 249.88C105.287 250.147 105.693 250.28 106.24 250.28C106.76 250.28 107.247 250.2 107.7 250.04L107.82 251.78C107.22 252.06 106.387 252.2 105.32 252.2ZM113.573 252.2C111.96 252.2 110.7 251.74 109.793 250.82C108.886 249.9 108.433 248.627 108.433 247C108.433 245.373 108.886 244.1 109.793 243.18C110.7 242.26 111.96 241.8 113.573 241.8C115.186 241.8 116.446 242.26 117.353 243.18C118.273 244.1 118.733 245.373 118.733 247C118.733 248.627 118.273 249.9 117.353 250.82C116.446 251.74 115.186 252.2 113.573 252.2ZM113.573 250.3C114.386 250.3 115.026 250.007 115.493 249.42C115.96 248.833 116.193 248.027 116.193 247C116.193 245.973 115.96 245.167 115.493 244.58C115.026 243.993 114.386 243.7 113.573 243.7C112.76 243.7 112.12 243.993 111.653 244.58C111.2 245.167 110.973 245.973 110.973 247C110.973 248.027 111.2 248.833 111.653 249.42C112.12 250.007 112.76 250.3 113.573 250.3ZM130.443 252.2C129.856 252.2 129.29 252.06 128.743 251.78C128.21 251.5 127.79 251.133 127.483 250.68H127.443C127.443 251.32 127.436 251.76 127.423 252H125.023C125.063 251.613 125.083 250.727 125.083 249.34V237.16H127.623V243.02H127.663C128.236 242.207 129.203 241.8 130.563 241.8C131.843 241.8 132.843 242.247 133.563 243.14C134.296 244.033 134.663 245.267 134.663 246.84C134.663 248.507 134.283 249.82 133.523 250.78C132.776 251.727 131.75 252.2 130.443 252.2ZM129.943 250.24C130.65 250.24 131.19 249.953 131.563 249.38C131.936 248.793 132.123 247.96 132.123 246.88C132.123 245.853 131.936 245.067 131.563 244.52C131.19 243.973 130.65 243.7 129.943 243.7C129.276 243.7 128.723 243.913 128.283 244.34C127.843 244.767 127.623 245.307 127.623 245.96V248.02C127.623 248.687 127.83 249.227 128.243 249.64C128.67 250.04 129.236 250.24 129.943 250.24ZM145.415 247.94H138.455C138.669 249.353 139.489 250.06 140.915 250.06C141.502 250.06 142.009 249.96 142.435 249.76C142.875 249.56 143.302 249.227 143.715 248.76L145.095 250.08C144.709 250.72 144.122 251.233 143.335 251.62C142.562 252.007 141.709 252.2 140.775 252.2C139.215 252.2 138.002 251.747 137.135 250.84C136.269 249.92 135.835 248.653 135.835 247.04C135.835 245.413 136.269 244.133 137.135 243.2C138.015 242.267 139.222 241.8 140.755 241.8C142.222 241.8 143.362 242.26 144.175 243.18C145.002 244.1 145.415 245.38 145.415 247.02V247.94ZM142.915 246.08C142.915 245.4 142.715 244.867 142.315 244.48C141.929 244.08 141.389 243.88 140.695 243.88C140.069 243.88 139.562 244.087 139.175 244.5C138.789 244.9 138.542 245.467 138.435 246.2H142.915V246.08ZM155.163 252.2C154.016 252.2 153.143 251.813 152.543 251.04C151.956 250.267 151.663 249.133 151.663 247.64V242H154.223V247.66C154.223 248.513 154.363 249.14 154.643 249.54C154.923 249.94 155.356 250.14 155.943 250.14C156.65 250.14 157.23 249.873 157.683 249.34C158.136 248.793 158.363 248.12 158.363 247.32V242H160.923V249.46C160.923 250.14 160.976 250.987 161.083 252H158.663C158.556 251.4 158.496 250.813 158.483 250.24H158.443C158.203 250.84 157.783 251.32 157.183 251.68C156.596 252.027 155.923 252.2 155.163 252.2ZM162.974 244.66C162.974 243.58 162.947 242.693 162.894 242H165.294C165.334 242.4 165.354 242.84 165.354 243.32H165.394C165.727 242.84 166.161 242.467 166.694 242.2C167.227 241.933 167.821 241.8 168.474 241.8C169.741 241.8 170.741 242.267 171.474 243.2C172.207 244.133 172.574 245.407 172.574 247.02C172.574 248.633 172.201 249.9 171.454 250.82C170.721 251.74 169.701 252.2 168.394 252.2C167.754 252.2 167.187 252.093 166.694 251.88C166.201 251.667 165.834 251.367 165.594 250.98H165.534V256.84H162.974V244.66ZM167.834 250.3C168.541 250.3 169.081 250.013 169.454 249.44C169.827 248.853 170.014 248.02 170.014 246.94C170.014 244.82 169.301 243.76 167.874 243.76C167.181 243.76 166.614 243.967 166.174 244.38C165.747 244.78 165.534 245.313 165.534 245.98V248.04C165.534 248.68 165.754 249.22 166.194 249.66C166.634 250.087 167.181 250.3 167.834 250.3ZM177.983 252.2C176.676 252.2 175.643 251.727 174.883 250.78C174.136 249.82 173.763 248.507 173.763 246.84C173.763 245.827 173.936 244.94 174.283 244.18C174.629 243.42 175.123 242.833 175.763 242.42C176.416 242.007 177.176 241.8 178.043 241.8C178.629 241.8 179.143 241.9 179.583 242.1C180.036 242.3 180.429 242.607 180.763 243.02H180.803V237.16H183.343V249.34C183.343 250.727 183.363 251.613 183.403 252H181.003C180.989 251.773 180.983 251.333 180.983 250.68H180.943C180.636 251.133 180.209 251.5 179.663 251.78C179.129 252.06 178.569 252.2 177.983 252.2ZM178.483 250.24C179.189 250.24 179.749 250.04 180.163 249.64C180.589 249.227 180.803 248.687 180.803 248.02V245.96C180.803 245.307 180.583 244.767 180.143 244.34C179.703 243.913 179.149 243.7 178.483 243.7C177.776 243.7 177.236 243.973 176.863 244.52C176.489 245.067 176.303 245.853 176.303 246.88C176.303 247.96 176.489 248.793 176.863 249.38C177.236 249.953 177.776 250.24 178.483 250.24ZM188.395 252.2C187.742 252.2 187.155 252.067 186.635 251.8C186.115 251.52 185.708 251.14 185.415 250.66C185.122 250.167 184.975 249.62 184.975 249.02C184.975 247.993 185.382 247.207 186.195 246.66C187.008 246.113 188.168 245.84 189.675 245.84H191.235V245.42C191.235 244.887 191.075 244.48 190.755 244.2C190.448 243.907 190.008 243.76 189.435 243.76C188.835 243.76 188.262 243.867 187.715 244.08C187.168 244.293 186.722 244.587 186.375 244.96L185.255 243.48C185.802 242.96 186.448 242.553 187.195 242.26C187.942 241.953 188.715 241.8 189.515 241.8C190.848 241.8 191.895 242.113 192.655 242.74C193.415 243.367 193.795 244.233 193.795 245.34V249.9C193.795 250.207 193.815 250.567 193.855 250.98C193.908 251.393 193.968 251.733 194.035 252H191.775C191.695 251.827 191.635 251.66 191.595 251.5C191.555 251.327 191.522 251.093 191.495 250.8H191.455C190.695 251.733 189.675 252.2 188.395 252.2ZM189.015 250.28C189.655 250.28 190.182 250.12 190.595 249.8C191.022 249.467 191.235 249.047 191.235 248.54V247.54H189.595C188.915 247.54 188.388 247.667 188.015 247.92C187.655 248.173 187.475 248.54 187.475 249.02C187.475 249.42 187.608 249.733 187.875 249.96C188.155 250.173 188.535 250.28 189.015 250.28ZM200.281 252.2C199.254 252.2 198.454 251.92 197.881 251.36C197.308 250.8 197.021 250.013 197.021 249V243.9H195.201V242H197.021V239.42L199.501 238.7H199.581V242H202.481V243.9H199.581V248.62C199.581 249.193 199.714 249.613 199.981 249.88C200.248 250.147 200.654 250.28 201.201 250.28C201.721 250.28 202.208 250.2 202.661 250.04L202.781 251.78C202.181 252.06 201.348 252.2 200.281 252.2ZM213.579 247.94H206.619C206.833 249.353 207.653 250.06 209.079 250.06C209.666 250.06 210.173 249.96 210.599 249.76C211.039 249.56 211.466 249.227 211.879 248.76L213.259 250.08C212.873 250.72 212.286 251.233 211.499 251.62C210.726 252.007 209.873 252.2 208.939 252.2C207.379 252.2 206.166 251.747 205.299 250.84C204.433 249.92 203.999 248.653 203.999 247.04C203.999 245.413 204.433 244.133 205.299 243.2C206.179 242.267 207.386 241.8 208.919 241.8C210.386 241.8 211.526 242.26 212.339 243.18C213.166 244.1 213.579 245.38 213.579 247.02V247.94ZM211.079 246.08C211.079 245.4 210.879 244.867 210.479 244.48C210.093 244.08 209.553 243.88 208.859 243.88C208.233 243.88 207.726 244.087 207.339 244.5C206.953 244.9 206.706 245.467 206.599 246.2H211.079V246.08ZM218.959 252.2C217.653 252.2 216.619 251.727 215.859 250.78C215.113 249.82 214.739 248.507 214.739 246.84C214.739 245.827 214.913 244.94 215.259 244.18C215.606 243.42 216.099 242.833 216.739 242.42C217.393 242.007 218.153 241.8 219.019 241.8C219.606 241.8 220.119 241.9 220.559 242.1C221.013 242.3 221.406 242.607 221.739 243.02H221.779V237.16H224.319V249.34C224.319 250.727 224.339 251.613 224.379 252H221.979C221.966 251.773 221.959 251.333 221.959 250.68H221.919C221.613 251.133 221.186 251.5 220.639 251.78C220.106 252.06 219.546 252.2 218.959 252.2ZM219.459 250.24C220.166 250.24 220.726 250.04 221.139 249.64C221.566 249.227 221.779 248.687 221.779 248.02V245.96C221.779 245.307 221.559 244.767 221.119 244.34C220.679 243.913 220.126 243.7 219.459 243.7C218.753 243.7 218.213 243.973 217.839 244.52C217.466 245.067 217.279 245.853 217.279 246.88C217.279 247.96 217.466 248.793 217.839 249.38C218.213 249.953 218.753 250.24 219.459 250.24ZM243.9 242L241.34 252H239.1L237.1 244.76L235.1 252H232.84L230.28 242H232.94L234.2 248.22L235.96 242H238.22L239.98 248.22L241.24 242H243.9ZM246.88 240.84C246.387 240.84 245.993 240.707 245.7 240.44C245.407 240.16 245.26 239.793 245.26 239.34C245.26 238.887 245.407 238.527 245.7 238.26C245.993 237.98 246.387 237.84 246.88 237.84C247.373 237.84 247.767 237.98 248.06 238.26C248.367 238.527 248.52 238.887 248.52 239.34C248.52 239.793 248.373 240.16 248.08 240.44C247.787 240.707 247.387 240.84 246.88 240.84ZM245.62 242H248.16V252H245.62V242ZM254.949 252.2C253.922 252.2 253.122 251.92 252.549 251.36C251.976 250.8 251.689 250.013 251.689 249V243.9H249.869V242H251.689V239.42L254.169 238.7H254.249V242H257.149V243.9H254.249V248.62C254.249 249.193 254.382 249.613 254.649 249.88C254.916 250.147 255.322 250.28 255.869 250.28C256.389 250.28 256.876 250.2 257.329 250.04L257.449 251.78C256.849 252.06 256.016 252.2 254.949 252.2ZM258.987 237.16H261.547V243.18C261.854 242.753 262.281 242.42 262.827 242.18C263.387 241.927 263.994 241.8 264.647 241.8C265.781 241.8 266.687 242.173 267.367 242.92C268.061 243.667 268.407 244.693 268.407 246V252H265.847V246.18C265.847 245.407 265.681 244.8 265.347 244.36C265.014 243.92 264.554 243.7 263.967 243.7C263.234 243.7 262.647 243.96 262.207 244.48C261.767 244.987 261.547 245.68 261.547 246.56V252H258.987V237.16ZM279.363 252.2C278.336 252.2 277.536 251.92 276.963 251.36C276.39 250.8 276.103 250.013 276.103 249V243.9H274.283V242H276.103V239.42L278.583 238.7H278.663V242H281.563V243.9H278.663V248.62C278.663 249.193 278.796 249.613 279.063 249.88C279.33 250.147 279.736 250.28 280.283 250.28C280.803 250.28 281.29 250.2 281.743 250.04L281.863 251.78C281.263 252.06 280.43 252.2 279.363 252.2ZM283.401 237.16H285.961V243.18C286.268 242.753 286.695 242.42 287.241 242.18C287.801 241.927 288.408 241.8 289.061 241.8C290.195 241.8 291.101 242.173 291.781 242.92C292.475 243.667 292.821 244.693 292.821 246V252H290.261V246.18C290.261 245.407 290.095 244.8 289.761 244.36C289.428 243.92 288.968 243.7 288.381 243.7C287.648 243.7 287.061 243.96 286.621 244.48C286.181 244.987 285.961 245.68 285.961 246.56V252H283.401V237.16ZM304.009 247.94H297.049C297.262 249.353 298.082 250.06 299.509 250.06C300.096 250.06 300.602 249.96 301.029 249.76C301.469 249.56 301.896 249.227 302.309 248.76L303.689 250.08C303.302 250.72 302.716 251.233 301.929 251.62C301.156 252.007 300.302 252.2 299.369 252.2C297.809 252.2 296.596 251.747 295.729 250.84C294.862 249.92 294.429 248.653 294.429 247.04C294.429 245.413 294.862 244.133 295.729 243.2C296.609 242.267 297.816 241.8 299.349 241.8C300.816 241.8 301.956 242.26 302.769 243.18C303.596 244.1 304.009 245.38 304.009 247.02V247.94ZM301.509 246.08C301.509 245.4 301.309 244.867 300.909 244.48C300.522 244.08 299.982 243.88 299.289 243.88C298.662 243.88 298.156 244.087 297.769 244.5C297.382 244.9 297.136 245.467 297.029 246.2H301.509V246.08ZM319.517 247.94H312.557C312.77 249.353 313.59 250.06 315.017 250.06C315.604 250.06 316.11 249.96 316.537 249.76C316.977 249.56 317.404 249.227 317.817 248.76L319.197 250.08C318.81 250.72 318.224 251.233 317.437 251.62C316.664 252.007 315.81 252.2 314.877 252.2C313.317 252.2 312.104 251.747 311.237 250.84C310.37 249.92 309.937 248.653 309.937 247.04C309.937 245.413 310.37 244.133 311.237 243.2C312.117 242.267 313.324 241.8 314.857 241.8C316.324 241.8 317.464 242.26 318.277 243.18C319.104 244.1 319.517 245.38 319.517 247.02V247.94ZM317.017 246.08C317.017 245.4 316.817 244.867 316.417 244.48C316.03 244.08 315.49 243.88 314.797 243.88C314.17 243.88 313.664 244.087 313.277 244.5C312.89 244.9 312.644 245.467 312.537 246.2H317.017V246.08ZM325.657 252.2C324.11 252.2 322.89 251.74 321.997 250.82C321.117 249.887 320.677 248.613 320.677 247C320.677 245.373 321.117 244.1 321.997 243.18C322.89 242.26 324.11 241.8 325.657 241.8C326.59 241.8 327.403 241.973 328.097 242.32C328.79 242.667 329.323 243.16 329.697 243.8L328.157 245.14C327.903 244.7 327.563 244.36 327.137 244.12C326.723 243.88 326.27 243.76 325.777 243.76C324.977 243.76 324.35 244.047 323.897 244.62C323.443 245.193 323.217 245.987 323.217 247C323.217 248.013 323.443 248.807 323.897 249.38C324.35 249.953 324.977 250.24 325.777 250.24C326.27 250.24 326.723 250.12 327.137 249.88C327.55 249.627 327.89 249.287 328.157 248.86L329.697 250.2C329.323 250.84 328.79 251.333 328.097 251.68C327.403 252.027 326.59 252.2 325.657 252.2ZM335.76 252.2C334.147 252.2 332.887 251.74 331.98 250.82C331.074 249.9 330.62 248.627 330.62 247C330.62 245.373 331.074 244.1 331.98 243.18C332.887 242.26 334.147 241.8 335.76 241.8C337.374 241.8 338.634 242.26 339.54 243.18C340.46 244.1 340.92 245.373 340.92 247C340.92 248.627 340.46 249.9 339.54 250.82C338.634 251.74 337.374 252.2 335.76 252.2ZM335.76 250.3C336.574 250.3 337.214 250.007 337.68 249.42C338.147 248.833 338.38 248.027 338.38 247C338.38 245.973 338.147 245.167 337.68 244.58C337.214 243.993 336.574 243.7 335.76 243.7C334.947 243.7 334.307 243.993 333.84 244.58C333.387 245.167 333.16 245.973 333.16 247C333.16 248.027 333.387 248.833 333.84 249.42C334.307 250.007 334.947 250.3 335.76 250.3ZM345.783 252.2C344.916 252.2 344.149 252.027 343.483 251.68C342.829 251.333 342.369 250.873 342.103 250.3L343.683 249.2C343.923 249.533 344.229 249.8 344.603 250C344.976 250.2 345.356 250.3 345.743 250.3C346.196 250.3 346.569 250.187 346.863 249.96C347.156 249.72 347.303 249.427 347.303 249.08C347.303 248.8 347.196 248.58 346.983 248.42C346.769 248.247 346.316 248.027 345.623 247.76C344.409 247.293 343.556 246.82 343.063 246.34C342.569 245.86 342.323 245.267 342.323 244.56C342.323 243.733 342.656 243.067 343.323 242.56C344.003 242.053 344.903 241.8 346.023 241.8C346.769 241.8 347.443 241.947 348.043 242.24C348.643 242.52 349.129 242.927 349.503 243.46L348.023 244.56C347.556 243.987 346.923 243.7 346.123 243.7C345.723 243.7 345.409 243.773 345.183 243.92C344.969 244.053 344.863 244.253 344.863 244.52C344.863 244.707 344.909 244.86 345.003 244.98C345.096 245.1 345.276 245.227 345.543 245.36C345.809 245.493 346.236 245.673 346.823 245.9C347.609 246.207 348.216 246.507 348.643 246.8C349.083 247.08 349.389 247.393 349.563 247.74C349.749 248.073 349.843 248.48 349.843 248.96C349.843 249.6 349.669 250.167 349.323 250.66C348.989 251.14 348.516 251.52 347.903 251.8C347.289 252.067 346.583 252.2 345.783 252.2ZM360.231 242L356.411 252.46C355.997 253.58 355.424 254.42 354.691 254.98C353.971 255.553 353.104 255.84 352.091 255.84C351.557 255.84 351.011 255.767 350.451 255.62V253.6C350.611 253.653 350.811 253.7 351.051 253.74C351.291 253.78 351.504 253.8 351.691 253.8C352.277 253.8 352.777 253.593 353.191 253.18C353.617 252.78 353.997 252.14 354.331 251.26L350.611 242H353.331L355.531 248.4L357.511 242H360.231ZM364.708 252.2C363.842 252.2 363.075 252.027 362.408 251.68C361.755 251.333 361.295 250.873 361.028 250.3L362.608 249.2C362.848 249.533 363.155 249.8 363.528 250C363.902 250.2 364.282 250.3 364.668 250.3C365.122 250.3 365.495 250.187 365.788 249.96C366.082 249.72 366.228 249.427 366.228 249.08C366.228 248.8 366.122 248.58 365.908 248.42C365.695 248.247 365.242 248.027 364.548 247.76C363.335 247.293 362.482 246.82 361.988 246.34C361.495 245.86 361.248 245.267 361.248 244.56C361.248 243.733 361.582 243.067 362.248 242.56C362.928 242.053 363.828 241.8 364.948 241.8C365.695 241.8 366.368 241.947 366.968 242.24C367.568 242.52 368.055 242.927 368.428 243.46L366.948 244.56C366.482 243.987 365.848 243.7 365.048 243.7C364.648 243.7 364.335 243.773 364.108 243.92C363.895 244.053 363.788 244.253 363.788 244.52C363.788 244.707 363.835 244.86 363.928 244.98C364.022 245.1 364.202 245.227 364.468 245.36C364.735 245.493 365.162 245.673 365.748 245.9C366.535 246.207 367.142 246.507 367.568 246.8C368.008 247.08 368.315 247.393 368.488 247.74C368.675 248.073 368.768 248.48 368.768 248.96C368.768 249.6 368.595 250.167 368.248 250.66C367.915 251.14 367.442 251.52 366.828 251.8C366.215 252.067 365.508 252.2 364.708 252.2ZM374.636 252.2C373.61 252.2 372.81 251.92 372.236 251.36C371.663 250.8 371.376 250.013 371.376 249V243.9H369.556V242H371.376V239.42L373.856 238.7H373.936V242H376.836V243.9H373.936V248.62C373.936 249.193 374.07 249.613 374.336 249.88C374.603 250.147 375.01 250.28 375.556 250.28C376.076 250.28 376.563 250.2 377.016 250.04L377.136 251.78C376.536 252.06 375.703 252.2 374.636 252.2ZM387.935 247.94H380.975C381.188 249.353 382.008 250.06 383.435 250.06C384.022 250.06 384.528 249.96 384.955 249.76C385.395 249.56 385.822 249.227 386.235 248.76L387.615 250.08C387.228 250.72 386.642 251.233 385.855 251.62C385.082 252.007 384.228 252.2 383.295 252.2C381.735 252.2 380.522 251.747 379.655 250.84C378.788 249.92 378.355 248.653 378.355 247.04C378.355 245.413 378.788 244.133 379.655 243.2C380.535 242.267 381.742 241.8 383.275 241.8C384.742 241.8 385.882 242.26 386.695 243.18C387.522 244.1 387.935 245.38 387.935 247.02V247.94ZM385.435 246.08C385.435 245.4 385.235 244.867 384.835 244.48C384.448 244.08 383.908 243.88 383.215 243.88C382.588 243.88 382.082 244.087 381.695 244.5C381.308 244.9 381.062 245.467 380.955 246.2H385.435V246.08ZM389.515 244.66C389.515 243.327 389.488 242.44 389.435 242H391.675C391.741 242.533 391.775 243.113 391.775 243.74H391.815C392.028 243.14 392.415 242.667 392.975 242.32C393.535 241.973 394.188 241.8 394.935 241.8C395.655 241.8 396.268 241.96 396.775 242.28C397.281 242.587 397.621 243.013 397.795 243.56C398.061 243.013 398.468 242.587 399.015 242.28C399.561 241.96 400.175 241.8 400.855 241.8C401.961 241.8 402.828 242.16 403.455 242.88C404.095 243.587 404.415 244.567 404.415 245.82V252H401.875V246.1C401.875 245.393 401.721 244.847 401.415 244.46C401.108 244.06 400.688 243.86 400.155 243.86C399.568 243.86 399.095 244.067 398.735 244.48C398.388 244.88 398.215 245.427 398.215 246.12V252H395.695V246.18C395.695 245.447 395.548 244.88 395.255 244.48C394.961 244.067 394.548 243.86 394.015 243.86C393.441 243.86 392.968 244.08 392.595 244.52C392.235 244.947 392.055 245.5 392.055 246.18V252H389.515V244.66ZM408.389 252.18C407.895 252.18 407.489 252.02 407.169 251.7C406.849 251.38 406.689 250.973 406.689 250.48C406.689 249.973 406.849 249.56 407.169 249.24C407.489 248.92 407.895 248.76 408.389 248.76C408.882 248.76 409.282 248.92 409.589 249.24C409.909 249.56 410.069 249.973 410.069 250.48C410.069 250.973 409.909 251.38 409.589 251.7C409.282 252.02 408.882 252.18 408.389 252.18Z" fill="#919191"/>
</g>
<defs>
<filter id="filter0_b_8_1038" x="-31.2" y="-31.2" width="1294.4" height="462.4" filterUnits="userSpaceOnUse" color-interpolation-filters="sRGB">
<feFlood flood-opacity="0" result="BackgroundImageFix"/>
<feGaussianBlur in="BackgroundImageFix" stdDeviation="15.6"/>
<feComposite in2="SourceAlpha" operator="in" result="effect1_backgroundBlur_8_1038"/>
<feBlend mode="normal" in="SourceGraphic" in2="effect1_backgroundBlur_8_1038" result="shape"/>
</filter>
<filter id="filter1_f_8_1038" x="556.2" y="136.2" width="1229.6" height="793.6" filterUnits="userSpaceOnUse" color-interpolation-filters="sRGB">
<feFlood flood-opacity="0" result="BackgroundImageFix"/>
<feBlend mode="normal" in="SourceGraphic" in2="BackgroundImageFix" result="shape"/>
<feGaussianBlur stdDeviation="155.9" result="effect1_foregroundBlur_8_1038"/>
</filter>
<filter id="filter2_f_8_1038" x="44.2" y="17.1998" width="1683.96" height="933.738" filterUnits="userSpaceOnUse" color-interpolation-filters="sRGB">
<feFlood flood-opacity="0" result="BackgroundImageFix"/>
<feBlend mode="normal" in="SourceGraphic" in2="BackgroundImageFix" result="shape"/>
<feGaussianBlur stdDeviation="155.9" result="effect1_foregroundBlur_8_1038"/>
</filter>
<filter id="filter3_d_8_1038" x="346.14" y="331.09" width="1097.32" height="256.961" filterUnits="userSpaceOnUse" color-interpolation-filters="sRGB">
<feFlood flood-opacity="0" result="BackgroundImageFix"/>
<feColorMatrix in="SourceAlpha" type="matrix" values="0 0 0 0 0 0 0 0 0 0 0 0 0 0 0 0 0 0 127 0" result="hardAlpha"/>
<feOffset/>
<feGaussianBlur stdDeviation="13.55"/>
<feComposite in2="hardAlpha" operator="out"/>
<feColorMatrix type="matrix" values="0 0 0 0 0 0 0 0 0 0 0 0 0 0 0 0 0 0 0.25 0"/>
<feBlend mode="normal" in2="BackgroundImageFix" result="effect1_dropShadow_8_1038"/>
<feBlend mode="normal" in="SourceGraphic" in2="effect1_dropShadow_8_1038" result="shape"/>
</filter>
<filter id="filter4_d_8_1038" x="291.98" y="327.93" width="946.54" height="315.144" filterUnits="userSpaceOnUse" color-interpolation-filters="sRGB">
<feFlood flood-opacity="0" result="BackgroundImageFix"/>
<feColorMatrix in="SourceAlpha" type="matrix" values="0 0 0 0 0 0 0 0 0 0 0 0 0 0 0 0 0 0 127 0" result="hardAlpha"/>
<feOffset/>
<feGaussianBlur stdDeviation="40.7"/>
<feComposite in2="hardAlpha" operator="out"/>
<feColorMatrix type="matrix" values="0 0 0 0 0 0 0 0 0 0 0 0 0 0 0 0 0 0 0.25 0"/>
<feBlend mode="normal" in2="BackgroundImageFix" result="effect1_dropShadow_8_1038"/>
<feBlend mode="normal" in="SourceGraphic" in2="effect1_dropShadow_8_1038" result="shape"/>
</filter>
<filter id="filter5_d_8_1038" x="783" y="235" width="99" height="54" filterUnits="userSpaceOnUse" color-interpolation-filters="sRGB">
<feFlood flood-opacity="0" result="BackgroundImageFix"/>
<feColorMatrix in="SourceAlpha" type="matrix" values="0 0 0 0 0 0 0 0 0 0 0 0 0 0 0 0 0 0 127 0" result="hardAlpha"/>
<feOffset dy="3"/>
<feGaussianBlur stdDeviation="2"/>
<feComposite in2="hardAlpha" operator="out"/>
<feColorMatrix type="matrix" values="0 0 0 0 0.403922 0 0 0 0 0.901961 0 0 0 0 0.847059 0 0 0 0.6 0"/>
<feBlend mode="normal" in2="BackgroundImageFix" result="effect1_dropShadow_8_1038"/>
<feBlend mode="normal" in="SourceGraphic" in2="effect1_dropShadow_8_1038" result="shape"/>
</filter>
<clipPath id="clip0_8_1038">
<rect width="1232" height="400" fill="white"/>
</clipPath>
</defs>
</svg>
