<svg width="158" height="49" viewBox="0 0 158 49" fill="none" xmlns="http://www.w3.org/2000/svg">
    <g filter="url(#filter0_d_8_1046)">
    <rect x="4.5" y="1.5" width="149" height="40" rx="9.5" stroke="#979DAA" shape-rendering="crispEdges"/>
    <path d="M23.384 28.16C22.5413 28.16 21.7787 27.9893 21.096 27.648C20.424 27.3067 19.8747 26.816 19.448 26.176L20.776 24.896C21.128 25.312 21.5547 25.6533 22.056 25.92C22.5573 26.1867 23.0267 26.32 23.464 26.32C23.9547 26.32 24.3493 26.208 24.648 25.984C24.9467 25.76 25.096 25.4667 25.096 25.104C25.096 24.8373 25.048 24.6187 24.952 24.448C24.856 24.2773 24.6747 24.1067 24.408 23.936C24.1413 23.7547 23.704 23.5147 23.096 23.216C22.296 22.8213 21.6667 22.4533 21.208 22.112C20.7493 21.7707 20.408 21.4027 20.184 21.008C19.9707 20.6027 19.864 20.1333 19.864 19.6C19.864 19.0133 20.0187 18.496 20.328 18.048C20.6373 17.6 21.0747 17.2533 21.64 17.008C22.2053 16.7627 22.856 16.64 23.592 16.64C24.4027 16.64 25.1173 16.7947 25.736 17.104C26.3653 17.4133 26.824 17.84 27.112 18.384L25.656 19.472C25.1227 18.8107 24.4667 18.48 23.688 18.48C23.1973 18.48 22.8187 18.576 22.552 18.768C22.2853 18.96 22.152 19.232 22.152 19.584C22.152 19.7973 22.216 19.9893 22.344 20.16C22.4827 20.3307 22.728 20.5173 23.08 20.72C23.432 20.9227 23.96 21.1893 24.664 21.52C25.3467 21.84 25.88 22.16 26.264 22.48C26.6587 22.8 26.9413 23.1573 27.112 23.552C27.2827 23.9467 27.368 24.416 27.368 24.96C27.368 25.6 27.2027 26.1653 26.872 26.656C26.552 27.136 26.088 27.5093 25.48 27.776C24.8827 28.032 24.184 28.16 23.384 28.16ZM32.0685 28.16C31.2472 28.16 30.6072 27.936 30.1485 27.488C29.6898 27.04 29.4605 26.4107 29.4605 25.6V21.52H28.0045V20H29.4605V17.936L31.4445 17.36H31.5085V20H33.8285V21.52H31.5085V25.296C31.5085 25.7547 31.6152 26.0907 31.8285 26.304C32.0418 26.5173 32.3672 26.624 32.8045 26.624C33.2205 26.624 33.6098 26.56 33.9725 26.432L34.0685 27.824C33.5885 28.048 32.9218 28.16 32.0685 28.16ZM37.7473 28.16C37.2246 28.16 36.7553 28.0533 36.3393 27.84C35.9233 27.616 35.5979 27.312 35.3633 26.928C35.1286 26.5333 35.0113 26.096 35.0113 25.616C35.0113 24.7947 35.3366 24.1653 35.9873 23.728C36.6379 23.2907 37.5659 23.072 38.7713 23.072H40.0193V22.736C40.0193 22.3093 39.8913 21.984 39.6353 21.76C39.3899 21.5253 39.0379 21.408 38.5793 21.408C38.0993 21.408 37.6406 21.4933 37.2033 21.664C36.7659 21.8347 36.4086 22.0693 36.1313 22.368L35.2353 21.184C35.6726 20.768 36.1899 20.4427 36.7873 20.208C37.3846 19.9627 38.0033 19.84 38.6432 19.84C39.7099 19.84 40.5473 20.0907 41.1553 20.592C41.7633 21.0933 42.0673 21.7867 42.0673 22.672V26.32C42.0673 26.5653 42.0833 26.8533 42.1153 27.184C42.1579 27.5147 42.2059 27.7867 42.2593 28H40.4513C40.3873 27.8613 40.3393 27.728 40.3073 27.6C40.2753 27.4613 40.2486 27.2747 40.2273 27.04H40.1953C39.5873 27.7867 38.7713 28.16 37.7473 28.16ZM38.2433 26.624C38.7553 26.624 39.1766 26.496 39.5073 26.24C39.8486 25.9733 40.0193 25.6373 40.0193 25.232V24.432H38.7073C38.1633 24.432 37.7419 24.5333 37.4433 24.736C37.1553 24.9387 37.0113 25.232 37.0113 25.616C37.0113 25.936 37.1179 26.1867 37.3313 26.368C37.5553 26.5387 37.8593 26.624 38.2433 26.624ZM43.864 21.952C43.864 21.0453 43.848 20.3947 43.816 20H45.752C45.7947 20.416 45.816 20.8853 45.816 21.408V21.568H45.88C46.0827 21.0453 46.44 20.6293 46.952 20.32C47.464 20 48.0507 19.84 48.712 19.84C48.84 19.84 49 19.856 49.192 19.888V21.504C49.1493 21.4827 49.0213 21.472 48.808 21.472C48.296 21.472 47.816 21.6107 47.368 21.888C46.9307 22.1653 46.5787 22.5387 46.312 23.008C46.0453 23.4667 45.912 23.9627 45.912 24.496V28H43.864V21.952ZM53.6154 28.16C52.794 28.16 52.154 27.936 51.6954 27.488C51.2367 27.04 51.0074 26.4107 51.0074 25.6V21.52H49.5514V20H51.0074V17.936L52.9914 17.36H53.0554V20H55.3754V21.52H53.0554V25.296C53.0554 25.7547 53.162 26.0907 53.3754 26.304C53.5887 26.5173 53.914 26.624 54.3514 26.624C54.7674 26.624 55.1567 26.56 55.5194 26.432L55.6154 27.824C55.1354 28.048 54.4687 28.16 53.6154 28.16ZM60.9005 16.8H64.5325C65.8232 16.8 66.8045 17.04 67.4765 17.52C68.1485 17.9893 68.4845 18.6827 68.4845 19.6C68.4845 20.1333 68.3618 20.592 68.1165 20.976C67.8712 21.36 67.4872 21.6853 66.9645 21.952V22C67.6472 22.256 68.1378 22.5973 68.4365 23.024C68.7458 23.4507 68.9005 24.0107 68.9005 24.704C68.9005 25.7707 68.5858 26.5867 67.9565 27.152C67.3378 27.7173 66.4312 28 65.2365 28H60.9005V16.8ZM64.7405 21.264C65.1885 21.264 65.5352 21.1413 65.7805 20.896C66.0365 20.64 66.1645 20.288 66.1645 19.84C66.1645 19.4027 66.0205 19.0827 65.7325 18.88C65.4552 18.6773 65.0232 18.576 64.4365 18.576H63.2045V21.264H64.7405ZM65.0605 26.224C65.5618 26.224 65.9458 26.08 66.2125 25.792C66.4898 25.504 66.6285 25.0933 66.6285 24.56C66.6285 23.9947 66.4632 23.584 66.1325 23.328C65.8018 23.072 65.2685 22.944 64.5325 22.944H63.2045V26.224H65.0605ZM73.0836 28.16C72.1663 28.16 71.4676 27.8507 70.9876 27.232C70.5183 26.6133 70.2836 25.7067 70.2836 24.512V20H72.3316V24.528C72.3316 25.2107 72.4436 25.712 72.6676 26.032C72.8916 26.352 73.2383 26.512 73.7076 26.512C74.273 26.512 74.737 26.2987 75.0996 25.872C75.4623 25.4347 75.6436 24.896 75.6436 24.256V20H77.6916V25.968C77.6916 26.512 77.7343 27.1893 77.8196 28H75.8836C75.7983 27.52 75.7503 27.0507 75.7396 26.592H75.7076C75.5156 27.072 75.1796 27.456 74.6996 27.744C74.2303 28.0213 73.6916 28.16 73.0836 28.16ZM80.6604 19.072C80.2657 19.072 79.951 18.9653 79.7164 18.752C79.4817 18.528 79.3644 18.2347 79.3644 17.872C79.3644 17.5093 79.4817 17.2213 79.7164 17.008C79.951 16.784 80.2657 16.672 80.6604 16.672C81.055 16.672 81.3697 16.784 81.6044 17.008C81.8497 17.2213 81.9724 17.5093 81.9724 17.872C81.9724 18.2347 81.855 18.528 81.6204 18.752C81.3857 18.9653 81.0657 19.072 80.6604 19.072ZM79.6524 20H81.6844V28H79.6524V20ZM85.8674 28.16C85.1847 28.16 84.662 27.9787 84.2994 27.616C83.9474 27.2427 83.7714 26.7093 83.7714 26.016V16.128H85.8034V26.048C85.8034 26.2827 85.862 26.4587 85.9794 26.576C86.1074 26.6827 86.294 26.736 86.5394 26.736C86.7847 26.736 87.0887 26.6667 87.4514 26.528L87.7554 27.616C87.2754 27.9787 86.646 28.16 85.8674 28.16ZM91.1674 28.16C90.122 28.16 89.2954 27.7813 88.6874 27.024C88.09 26.256 87.7914 25.2053 87.7914 23.872C87.7914 23.0613 87.93 22.352 88.2074 21.744C88.4847 21.136 88.8794 20.6667 89.3914 20.336C89.914 20.0053 90.522 19.84 91.2154 19.84C91.6847 19.84 92.0954 19.92 92.4474 20.08C92.81 20.24 93.1247 20.4853 93.3914 20.816H93.4234V16.128H95.4554V25.872C95.4554 26.9813 95.4714 27.6907 95.5034 28H93.5834C93.5727 27.8187 93.5674 27.4667 93.5674 26.944H93.5354C93.29 27.3067 92.9487 27.6 92.5114 27.824C92.0847 28.048 91.6367 28.16 91.1674 28.16ZM91.5674 26.592C92.1327 26.592 92.5807 26.432 92.9114 26.112C93.2527 25.7813 93.4234 25.3493 93.4234 24.816V23.168C93.4234 22.6453 93.2474 22.2133 92.8954 21.872C92.5434 21.5307 92.1007 21.36 91.5674 21.36C91.002 21.36 90.57 21.5787 90.2714 22.016C89.9727 22.4533 89.8234 23.0827 89.8234 23.904C89.8234 24.768 89.9727 25.4347 90.2714 25.904C90.57 26.3627 91.002 26.592 91.5674 26.592ZM98.4573 19.072C98.0626 19.072 97.7479 18.9653 97.5133 18.752C97.2786 18.528 97.1613 18.2347 97.1613 17.872C97.1613 17.5093 97.2786 17.2213 97.5133 17.008C97.7479 16.784 98.0626 16.672 98.4573 16.672C98.8519 16.672 99.1666 16.784 99.4013 17.008C99.6466 17.2213 99.7693 17.5093 99.7693 17.872C99.7693 18.2347 99.6519 18.528 99.4173 18.752C99.1826 18.9653 98.8626 19.072 98.4573 19.072ZM97.4493 20H99.4813V28H97.4493V20ZM101.408 22.112C101.408 21.1413 101.387 20.4373 101.344 20H103.264C103.318 20.448 103.344 20.912 103.344 21.392H103.392C103.584 20.9227 103.92 20.5493 104.4 20.272C104.891 19.984 105.435 19.84 106.032 19.84C106.95 19.84 107.643 20.1493 108.112 20.768C108.582 21.3867 108.816 22.2987 108.816 23.504V28H106.784V23.488C106.784 22.7947 106.672 22.288 106.448 21.968C106.224 21.648 105.867 21.488 105.376 21.488C104.811 21.488 104.347 21.6907 103.984 22.096C103.632 22.4907 103.456 23.0027 103.456 23.632V28H101.408V22.112ZM117.768 20V27.68C117.768 29.0347 117.432 30.0533 116.76 30.736C116.088 31.4293 115.091 31.776 113.768 31.776C113.149 31.776 112.563 31.7013 112.008 31.552C111.464 31.4027 110.979 31.1893 110.552 30.912L111.24 29.52C111.624 29.712 112.029 29.8613 112.456 29.968C112.883 30.0853 113.288 30.144 113.672 30.144C114.397 30.144 114.936 29.9147 115.288 29.456C115.64 29.008 115.816 28.3253 115.816 27.408V27.152C115.603 27.44 115.309 27.664 114.936 27.824C114.563 27.9733 114.12 28.048 113.608 28.048C112.499 28.048 111.635 27.6853 111.016 26.96C110.408 26.2347 110.104 25.2107 110.104 23.888C110.104 22.608 110.397 21.616 110.984 20.912C111.571 20.1973 112.397 19.84 113.464 19.84C114.573 19.84 115.379 20.2293 115.88 21.008H115.912L116.072 20H117.768ZM115.736 23.504C115.736 22.8107 115.587 22.2827 115.288 21.92C114.989 21.5467 114.557 21.36 113.992 21.36C113.395 21.36 112.936 21.584 112.616 22.032C112.296 22.4693 112.136 23.104 112.136 23.936C112.136 24.768 112.291 25.3973 112.6 25.824C112.92 26.2507 113.384 26.464 113.992 26.464C114.557 26.464 114.989 26.2987 115.288 25.968C115.587 25.6267 115.736 25.1467 115.736 24.528V23.504Z" fill="#919191"/>
    <g clip-path="url(#clip0_8_1046)">
    <path d="M135.875 17.75C135.875 17.5842 135.809 17.4253 135.692 17.3081C135.575 17.1908 135.416 17.125 135.25 17.125H130.25C130.084 17.125 129.925 17.1908 129.808 17.3081C129.691 17.4253 129.625 17.5842 129.625 17.75C129.625 17.9158 129.691 18.0747 129.808 18.1919C129.925 18.3092 130.084 18.375 130.25 18.375H133.741L127.523 24.5938C127.409 24.7116 127.346 24.8695 127.347 25.0334C127.349 25.1972 127.414 25.354 127.53 25.4699C127.646 25.5858 127.803 25.6515 127.967 25.6529C128.13 25.6543 128.288 25.5913 128.406 25.4775L134.625 19.2587V22.75C134.625 22.9158 134.691 23.0747 134.808 23.1919C134.925 23.3092 135.084 23.375 135.25 23.375C135.416 23.375 135.575 23.3092 135.692 23.1919C135.809 23.0747 135.875 22.9158 135.875 22.75V17.75Z" fill="#919191"/>
    </g>
    </g>
    <defs>
    <filter id="filter0_d_8_1046" x="0" y="0" width="158" height="49" filterUnits="userSpaceOnUse" color-interpolation-filters="sRGB">
    <feFlood flood-opacity="0" result="BackgroundImageFix"/>
    <feColorMatrix in="SourceAlpha" type="matrix" values="0 0 0 0 0 0 0 0 0 0 0 0 0 0 0 0 0 0 127 0" result="hardAlpha"/>
    <feOffset dy="3"/>
    <feGaussianBlur stdDeviation="2"/>
    <feComposite in2="hardAlpha" operator="out"/>
    <feColorMatrix type="matrix" values="0 0 0 0 0.403922 0 0 0 0 0.901961 0 0 0 0 0.847059 0 0 0 0.6 0"/>
    <feBlend mode="normal" in2="BackgroundImageFix" result="effect1_dropShadow_8_1046"/>
    <feBlend mode="normal" in="SourceGraphic" in2="effect1_dropShadow_8_1046" result="shape"/>
    </filter>
    <clipPath id="clip0_8_1046">
    <rect width="15" height="15" fill="white" transform="matrix(-1 0 0 1 139 14)"/>
    </clipPath>
    </defs>
    </svg>
    