<svg width="202" height="40" viewBox="0 0 202 40" fill="none" xmlns="http://www.w3.org/2000/svg">
<path d="M3.792 1.76H0.288V0.799999H8.448V1.76H4.976V12H3.792V1.76ZM8.846 0.127999H9.95V5.392C10.206 4.92267 10.5793 4.54933 11.07 4.272C11.5713 3.984 12.1153 3.84 12.702 3.84C13.6407 3.84 14.3607 4.14933 14.862 4.768C15.3633 5.38667 15.614 6.27733 15.614 7.44V12H14.51V7.424C14.51 6.54933 14.3393 5.88267 13.998 5.424C13.6673 4.95467 13.1873 4.72 12.558 4.72C12.0673 4.72 11.6247 4.848 11.23 5.104C10.8353 5.34933 10.5207 5.696 10.286 6.144C10.062 6.58133 9.95 7.07733 9.95 7.632V12H8.846V0.127999ZM23.257 8.448H17.433C17.497 9.33333 17.7477 10.016 18.185 10.496C18.633 10.976 19.2357 11.216 19.993 11.216C20.473 11.216 20.9103 11.1147 21.305 10.912C21.6997 10.6987 22.025 10.4053 22.281 10.032L22.937 10.656C22.6277 11.136 22.2117 11.5093 21.689 11.776C21.177 12.032 20.601 12.16 19.961 12.16C18.8197 12.16 17.9237 11.7973 17.273 11.072C16.633 10.336 16.313 9.31733 16.313 8.016C16.313 6.71467 16.6277 5.696 17.257 4.96C17.897 4.21333 18.777 3.84 19.897 3.84C20.953 3.84 21.7743 4.19733 22.361 4.912C22.9583 5.62667 23.257 6.624 23.257 7.904V8.448ZM22.233 7.456C22.233 6.624 22.0197 5.968 21.593 5.488C21.1663 4.99733 20.5903 4.752 19.865 4.752C19.1397 4.752 18.5637 4.99733 18.137 5.488C17.721 5.97867 17.4863 6.67733 17.433 7.584H22.233V7.456ZM27.2704 0.799999H33.7344V1.792H28.4544V5.6H33.1744V6.608H28.4544V11.008H33.7344V12H27.2704V0.799999ZM36.6128 7.936L34.0528 4H35.3008L37.1888 7.136L39.0608 4H40.3408L37.7648 7.936L40.5328 12H39.2528L37.1888 8.64L35.1088 12H33.8448L36.6128 7.936ZM44.0116 12.16C42.8596 12.16 41.9583 11.7973 41.3076 11.072C40.6676 10.336 40.3476 9.312 40.3476 8C40.3476 6.688 40.6676 5.66933 41.3076 4.944C41.9583 4.208 42.8596 3.84 44.0116 3.84C44.6623 3.84 45.2383 3.968 45.7396 4.224C46.241 4.46933 46.641 4.83733 46.9396 5.328L46.2676 5.952C46.033 5.568 45.7183 5.27467 45.3236 5.072C44.929 4.85867 44.5023 4.752 44.0436 4.752C43.233 4.752 42.5983 5.04 42.1396 5.616C41.6916 6.18133 41.4676 6.976 41.4676 8C41.4676 9.01333 41.6916 9.808 42.1396 10.384C42.5983 10.96 43.233 11.248 44.0436 11.248C44.5023 11.248 44.929 11.1467 45.3236 10.944C45.7183 10.7307 46.033 10.432 46.2676 10.048L46.9396 10.672C46.641 11.1627 46.241 11.536 45.7396 11.792C45.2383 12.0373 44.6623 12.16 44.0116 12.16ZM47.3204 0.127999H48.4244V5.392C48.6804 4.92267 49.0537 4.54933 49.5444 4.272C50.0457 3.984 50.5897 3.84 51.1764 3.84C52.115 3.84 52.835 4.14933 53.3364 4.768C53.8377 5.38667 54.0884 6.27733 54.0884 7.44V12H52.9844V7.424C52.9844 6.54933 52.8137 5.88267 52.4724 5.424C52.1417 4.95467 51.6617 4.72 51.0324 4.72C50.5417 4.72 50.099 4.848 49.7044 5.104C49.3097 5.34933 48.995 5.696 48.7604 6.144C48.5364 6.58133 48.4244 7.07733 48.4244 7.632V12H47.3204V0.127999ZM57.5554 12.16C56.7767 12.16 56.1367 11.936 55.6354 11.488C55.134 11.0293 54.8834 10.4427 54.8834 9.728C54.8834 8.93867 55.1767 8.32533 55.7634 7.888C56.3607 7.44 57.1927 7.216 58.2594 7.216H60.0514V6.784C60.0514 6.12267 59.8807 5.62133 59.5394 5.28C59.2087 4.928 58.718 4.752 58.0674 4.752C57.5874 4.752 57.1447 4.85867 56.7394 5.072C56.3447 5.27467 56.0247 5.57333 55.7794 5.968L55.1714 5.264C55.5127 4.80533 55.934 4.45333 56.4354 4.208C56.9367 3.96267 57.502 3.84 58.1314 3.84C59.102 3.84 59.8487 4.08533 60.3714 4.576C60.9047 5.06667 61.1714 5.76 61.1714 6.656V10.496C61.1714 10.8907 61.23 11.392 61.3474 12H60.3874C60.3127 11.7653 60.2434 11.3707 60.1794 10.816H60.1474C59.8487 11.2427 59.4754 11.5733 59.0274 11.808C58.5794 12.0427 58.0887 12.16 57.5554 12.16ZM57.6674 11.264C58.094 11.264 58.4887 11.1787 58.8514 11.008C59.214 10.8373 59.502 10.608 59.7154 10.32C59.9394 10.0213 60.0514 9.70667 60.0514 9.376V8.064H58.2114C57.4967 8.064 56.942 8.208 56.5474 8.496C56.1634 8.784 55.9714 9.19467 55.9714 9.728C55.9714 10.1867 56.126 10.56 56.4354 10.848C56.7447 11.1253 57.1554 11.264 57.6674 11.264ZM62.4156 5.984C62.4156 5.04533 62.3996 4.384 62.3676 4H63.3756C63.4183 4.36267 63.4396 4.86933 63.4396 5.52H63.4876C63.7223 5.008 64.0903 4.60267 64.5916 4.304C65.093 3.99467 65.6423 3.84 66.2396 3.84C67.1676 3.84 67.8663 4.144 68.3356 4.752C68.805 5.36 69.0396 6.26133 69.0396 7.456V12H67.9356V7.44C67.9356 6.53333 67.781 5.86133 67.4716 5.424C67.1623 4.976 66.693 4.752 66.0636 4.752C65.5836 4.752 65.1516 4.88 64.7676 5.136C64.3836 5.38133 64.0796 5.72267 63.8556 6.16C63.6423 6.59733 63.5356 7.088 63.5356 7.632V12H62.4156V5.984ZM76.6704 4V11.76C76.6704 13.0187 76.361 13.9733 75.7424 14.624C75.1344 15.2747 74.2437 15.6 73.0704 15.6C72.0144 15.6 71.0704 15.3707 70.2384 14.912L70.6064 14.064C71.0224 14.2667 71.4224 14.4107 71.8064 14.496C72.1904 14.592 72.601 14.64 73.0384 14.64C73.913 14.64 74.5637 14.3893 74.9904 13.888C75.417 13.3973 75.6304 12.6347 75.6304 11.6V10.8C75.3957 11.216 75.0544 11.5467 74.6064 11.792C74.169 12.0267 73.6677 12.144 73.1024 12.144C72.057 12.144 71.2304 11.7653 70.6224 11.008C70.025 10.24 69.7264 9.18933 69.7264 7.856C69.7264 6.61867 70.025 5.64267 70.6224 4.928C71.2304 4.20267 72.0517 3.84 73.0864 3.84C73.6304 3.84 74.1157 3.95733 74.5424 4.192C74.9797 4.42667 75.321 4.76267 75.5664 5.2H75.5984L75.7584 4H76.6704ZM75.5664 7.456C75.5664 6.61333 75.353 5.94667 74.9264 5.456C74.5104 4.96533 73.945 4.72 73.2304 4.72C72.4944 4.72 71.913 5.00267 71.4864 5.568C71.0597 6.13333 70.8464 6.90667 70.8464 7.888C70.8464 8.93333 71.0544 9.75467 71.4704 10.352C71.897 10.9387 72.4837 11.232 73.2304 11.232C73.9557 11.232 74.5264 11.0133 74.9424 10.576C75.3584 10.128 75.5664 9.52 75.5664 8.752V7.456ZM84.3358 8.448H78.5118C78.5758 9.33333 78.8264 10.016 79.2638 10.496C79.7118 10.976 80.3144 11.216 81.0718 11.216C81.5518 11.216 81.9891 11.1147 82.3838 10.912C82.7784 10.6987 83.1038 10.4053 83.3598 10.032L84.0158 10.656C83.7064 11.136 83.2904 11.5093 82.7678 11.776C82.2558 12.032 81.6798 12.16 81.0398 12.16C79.8984 12.16 79.0024 11.7973 78.3518 11.072C77.7118 10.336 77.3918 9.31733 77.3918 8.016C77.3918 6.71467 77.7064 5.696 78.3358 4.96C78.9758 4.21333 79.8558 3.84 80.9758 3.84C82.0318 3.84 82.8531 4.19733 83.4398 4.912C84.0371 5.62667 84.3358 6.624 84.3358 7.904V8.448ZM83.3118 7.456C83.3118 6.624 83.0984 5.968 82.6718 5.488C82.2451 4.99733 81.6691 4.752 80.9438 4.752C80.2184 4.752 79.6424 4.99733 79.2158 5.488C78.7998 5.97867 78.5651 6.67733 78.5118 7.584H83.3118V7.456ZM88.0131 5.984C88.0131 5.04533 87.9971 4.384 87.9651 4H88.9731C89.0158 4.36267 89.0371 4.86933 89.0371 5.52H89.0851C89.3198 5.008 89.6878 4.60267 90.1891 4.304C90.6905 3.99467 91.2398 3.84 91.8371 3.84C92.7651 3.84 93.4638 4.144 93.9331 4.752C94.4025 5.36 94.6371 6.26133 94.6371 7.456V12H93.5331V7.44C93.5331 6.53333 93.3785 5.86133 93.0691 5.424C92.7598 4.976 92.2905 4.752 91.6611 4.752C91.1811 4.752 90.7491 4.88 90.3651 5.136C89.9811 5.38133 89.6771 5.72267 89.4531 6.16C89.2398 6.59733 89.1331 7.088 89.1331 7.632V12H88.0131V5.984ZM102.284 8.448H96.4599C96.5239 9.33333 96.7745 10.016 97.2119 10.496C97.6599 10.976 98.2625 11.216 99.0199 11.216C99.4999 11.216 99.9372 11.1147 100.332 10.912C100.727 10.6987 101.052 10.4053 101.308 10.032L101.964 10.656C101.655 11.136 101.239 11.5093 100.716 11.776C100.204 12.032 99.6279 12.16 98.9879 12.16C97.8465 12.16 96.9505 11.7973 96.2999 11.072C95.6599 10.336 95.3399 9.31733 95.3399 8.016C95.3399 6.71467 95.6545 5.696 96.2839 4.96C96.9239 4.21333 97.8039 3.84 98.9239 3.84C99.9799 3.84 100.801 4.19733 101.388 4.912C101.985 5.62667 102.284 6.624 102.284 7.904V8.448ZM101.26 7.456C101.26 6.624 101.047 5.968 100.62 5.488C100.193 4.99733 99.6172 4.752 98.8919 4.752C98.1665 4.752 97.5905 4.99733 97.1639 5.488C96.7479 5.97867 96.5132 6.67733 96.4599 7.584H101.26V7.456ZM109.48 8.448H103.656C103.72 9.33333 103.971 10.016 104.408 10.496C104.856 10.976 105.459 11.216 106.216 11.216C106.696 11.216 107.133 11.1147 107.528 10.912C107.923 10.6987 108.248 10.4053 108.504 10.032L109.16 10.656C108.851 11.136 108.435 11.5093 107.912 11.776C107.4 12.032 106.824 12.16 106.184 12.16C105.043 12.16 104.147 11.7973 103.496 11.072C102.856 10.336 102.536 9.31733 102.536 8.016C102.536 6.71467 102.851 5.696 103.48 4.96C104.12 4.21333 105 3.84 106.12 3.84C107.176 3.84 107.997 4.19733 108.584 4.912C109.181 5.62667 109.48 6.624 109.48 7.904V8.448ZM108.456 7.456C108.456 6.624 108.243 5.968 107.816 5.488C107.389 4.99733 106.813 4.752 106.088 4.752C105.363 4.752 104.787 4.99733 104.36 5.488C103.944 5.97867 103.709 6.67733 103.656 7.584H108.456V7.456ZM113.06 12.16C112.026 12.16 111.21 11.776 110.612 11.008C110.015 10.24 109.716 9.18933 109.716 7.856C109.716 6.61867 110.02 5.64267 110.628 4.928C111.236 4.20267 112.058 3.84 113.092 3.84C113.604 3.84 114.068 3.952 114.484 4.176C114.9 4.4 115.252 4.73067 115.54 5.168H115.572V0.127999H116.66V10.016C116.66 10.9653 116.676 11.6267 116.708 12H115.716C115.684 11.552 115.668 11.104 115.668 10.656H115.636C115.391 11.1147 115.034 11.4827 114.564 11.76C114.106 12.0267 113.604 12.16 113.06 12.16ZM113.172 11.248C113.887 11.248 114.463 11.024 114.9 10.576C115.338 10.128 115.556 9.536 115.556 8.8V7.408C115.556 6.58667 115.338 5.936 114.9 5.456C114.474 4.96533 113.903 4.72 113.188 4.72C112.452 4.72 111.876 5.00267 111.46 5.568C111.044 6.12267 110.836 6.896 110.836 7.888C110.836 8.93333 111.044 9.75467 111.46 10.352C111.876 10.9493 112.447 11.248 113.172 11.248ZM124.326 8.448H118.502C118.566 9.33333 118.816 10.016 119.254 10.496C119.702 10.976 120.304 11.216 121.062 11.216C121.542 11.216 121.979 11.1147 122.374 10.912C122.768 10.6987 123.094 10.4053 123.35 10.032L124.006 10.656C123.696 11.136 123.28 11.5093 122.758 11.776C122.246 12.032 121.67 12.16 121.03 12.16C119.888 12.16 118.992 11.7973 118.342 11.072C117.702 10.336 117.382 9.31733 117.382 8.016C117.382 6.71467 117.696 5.696 118.326 4.96C118.966 4.21333 119.846 3.84 120.966 3.84C122.022 3.84 122.843 4.19733 123.43 4.912C124.027 5.62667 124.326 6.624 124.326 7.904V8.448ZM123.302 7.456C123.302 6.624 123.088 5.968 122.662 5.488C122.235 4.99733 121.659 4.752 120.934 4.752C120.208 4.752 119.632 4.99733 119.206 5.488C118.79 5.97867 118.555 6.67733 118.502 7.584H123.302V7.456ZM127.906 12.16C126.871 12.16 126.055 11.776 125.458 11.008C124.861 10.24 124.562 9.18933 124.562 7.856C124.562 6.61867 124.866 5.64267 125.474 4.928C126.082 4.20267 126.903 3.84 127.938 3.84C128.45 3.84 128.914 3.952 129.33 4.176C129.746 4.4 130.098 4.73067 130.386 5.168H130.418V0.127999H131.506V10.016C131.506 10.9653 131.522 11.6267 131.554 12H130.562C130.53 11.552 130.514 11.104 130.514 10.656H130.482C130.237 11.1147 129.879 11.4827 129.41 11.76C128.951 12.0267 128.45 12.16 127.906 12.16ZM128.018 11.248C128.733 11.248 129.309 11.024 129.746 10.576C130.183 10.128 130.402 9.536 130.402 8.8V7.408C130.402 6.58667 130.183 5.936 129.746 5.456C129.319 4.96533 128.749 4.72 128.034 4.72C127.298 4.72 126.722 5.00267 126.306 5.568C125.89 6.12267 125.682 6.896 125.682 7.888C125.682 8.93333 125.89 9.75467 126.306 10.352C126.722 10.9493 127.293 11.248 128.018 11.248ZM139.013 12.16C138.245 12.16 137.573 11.9893 136.997 11.648C136.431 11.3067 135.994 10.8213 135.685 10.192C135.375 9.56267 135.221 8.832 135.221 8C135.221 7.168 135.375 6.43733 135.685 5.808C135.994 5.17867 136.431 4.69333 136.997 4.352C137.573 4.01067 138.245 3.84 139.013 3.84C139.781 3.84 140.447 4.01067 141.013 4.352C141.589 4.69333 142.031 5.17867 142.341 5.808C142.65 6.43733 142.805 7.168 142.805 8C142.805 8.832 142.65 9.56267 142.341 10.192C142.031 10.8213 141.589 11.3067 141.013 11.648C140.447 11.9893 139.781 12.16 139.013 12.16ZM139.013 11.28C139.834 11.28 140.485 10.9867 140.965 10.4C141.455 9.80267 141.701 9.00267 141.701 8C141.701 6.99733 141.455 6.20267 140.965 5.616C140.485 5.01867 139.834 4.72 139.013 4.72C138.191 4.72 137.535 5.01867 137.045 5.616C136.565 6.20267 136.325 6.99733 136.325 8C136.325 9.00267 136.565 9.80267 137.045 10.4C137.535 10.9867 138.191 11.28 139.013 11.28ZM143.489 5.984C143.489 5.04533 143.473 4.384 143.441 4H144.449C144.492 4.36267 144.513 4.86933 144.513 5.52H144.561C144.796 5.008 145.164 4.60267 145.665 4.304C146.167 3.99467 146.716 3.84 147.313 3.84C148.241 3.84 148.94 4.144 149.409 4.752C149.879 5.36 150.113 6.26133 150.113 7.456V12H149.009V7.44C149.009 6.53333 148.855 5.86133 148.545 5.424C148.236 4.976 147.767 4.752 147.137 4.752C146.657 4.752 146.225 4.88 145.841 5.136C145.457 5.38133 145.153 5.72267 144.929 6.16C144.716 6.59733 144.609 7.088 144.609 7.632V12H143.489V5.984ZM157.201 6.256L153.969 0.799999H155.345L157.921 5.408L160.481 0.799999H161.873L158.625 6.256L162.033 12H160.673L157.921 7.2L155.169 12H153.793L157.201 6.256ZM163.551 2.448C163.295 2.448 163.087 2.37333 162.927 2.224C162.778 2.07467 162.703 1.87733 162.703 1.632C162.703 1.376 162.778 1.17333 162.927 1.024C163.087 0.874666 163.295 0.799999 163.551 0.799999C163.807 0.799999 164.01 0.874666 164.159 1.024C164.319 1.17333 164.399 1.376 164.399 1.632C164.399 1.87733 164.319 2.07467 164.159 2.224C164.01 2.37333 163.807 2.448 163.551 2.448ZM162.991 4H164.111V12H162.991V4ZM168.884 12.16C168.116 12.16 167.444 11.9893 166.868 11.648C166.303 11.3067 165.866 10.8213 165.556 10.192C165.247 9.56267 165.092 8.832 165.092 8C165.092 7.168 165.247 6.43733 165.556 5.808C165.866 5.17867 166.303 4.69333 166.868 4.352C167.444 4.01067 168.116 3.84 168.884 3.84C169.652 3.84 170.319 4.01067 170.884 4.352C171.46 4.69333 171.903 5.17867 172.212 5.808C172.522 6.43733 172.676 7.168 172.676 8C172.676 8.832 172.522 9.56267 172.212 10.192C171.903 10.8213 171.46 11.3067 170.884 11.648C170.319 11.9893 169.652 12.16 168.884 12.16ZM168.884 11.28C169.706 11.28 170.356 10.9867 170.836 10.4C171.327 9.80267 171.572 9.00267 171.572 8C171.572 6.99733 171.327 6.20267 170.836 5.616C170.356 5.01867 169.706 4.72 168.884 4.72C168.063 4.72 167.407 5.01867 166.916 5.616C166.436 6.20267 166.196 6.99733 166.196 8C166.196 9.00267 166.436 9.80267 166.916 10.4C167.407 10.9867 168.063 11.28 168.884 11.28ZM173.361 5.984C173.361 5.04533 173.345 4.384 173.313 4H174.321C174.364 4.36267 174.385 4.86933 174.385 5.52H174.433C174.668 5.008 175.036 4.60267 175.537 4.304C176.039 3.99467 176.588 3.84 177.185 3.84C178.113 3.84 178.812 4.144 179.281 4.752C179.751 5.36 179.985 6.26133 179.985 7.456V12H178.881V7.44C178.881 6.53333 178.727 5.86133 178.417 5.424C178.108 4.976 177.639 4.752 177.009 4.752C176.529 4.752 176.097 4.88 175.713 5.136C175.329 5.38133 175.025 5.72267 174.801 6.16C174.588 6.59733 174.481 7.088 174.481 7.632V12H173.361V5.984ZM181.984 12.16C181.717 12.16 181.499 12.0747 181.328 11.904C181.168 11.7227 181.088 11.4933 181.088 11.216C181.088 10.9387 181.168 10.7147 181.328 10.544C181.499 10.3733 181.717 10.288 181.984 10.288C182.251 10.288 182.464 10.3733 182.624 10.544C182.784 10.7147 182.864 10.9387 182.864 11.216C182.864 11.4933 182.784 11.7227 182.624 11.904C182.464 12.0747 182.251 12.16 181.984 12.16ZM1.376 24.8H7.84V25.792H2.56V29.6H7.28V30.608H2.56V35.008H7.84V36H1.376V24.8ZM15.0064 28L11.9984 36H10.9584L7.95037 28H9.10238L11.4864 34.72L13.8544 28H15.0064ZM21.4601 32.448H15.6361C15.7001 33.3333 15.9508 34.016 16.3881 34.496C16.8361 34.976 17.4388 35.216 18.1961 35.216C18.6761 35.216 19.1135 35.1147 19.5081 34.912C19.9028 34.6987 20.2281 34.4053 20.4841 34.032L21.1401 34.656C20.8308 35.136 20.4148 35.5093 19.8921 35.776C19.3801 36.032 18.8041 36.16 18.1641 36.16C17.0228 36.16 16.1268 35.7973 15.4761 35.072C14.8361 34.336 14.5161 33.3173 14.5161 32.016C14.5161 30.7147 14.8308 29.696 15.4601 28.96C16.1001 28.2133 16.9801 27.84 18.1001 27.84C19.1561 27.84 19.9775 28.1973 20.5641 28.912C21.1615 29.6267 21.4601 30.624 21.4601 31.904V32.448ZM20.4361 31.456C20.4361 30.624 20.2228 29.968 19.7961 29.488C19.3695 28.9973 18.7935 28.752 18.0681 28.752C17.3428 28.752 16.7668 28.9973 16.3401 29.488C15.9241 29.9787 15.6895 30.6773 15.6361 31.584H20.4361V31.456ZM22.2564 29.952C22.2564 29.0453 22.2404 28.3947 22.2084 28H23.2324C23.275 28.416 23.2964 28.8853 23.2964 29.408V29.6H23.3284C23.531 29.0347 23.8457 28.6027 24.2724 28.304C24.7097 27.9947 25.2164 27.84 25.7924 27.84C25.9844 27.84 26.139 27.856 26.2564 27.888V28.816C26.0857 28.7947 25.9097 28.784 25.7284 28.784C25.291 28.784 24.891 28.9173 24.5284 29.184C24.1657 29.4507 23.8777 29.8187 23.6644 30.288C23.4617 30.7573 23.3604 31.2747 23.3604 31.84V36H22.2564V29.952ZM32.4801 28L29.6481 36.064C29.2535 37.1627 28.7788 37.9733 28.2241 38.496C27.6801 39.0293 27.0295 39.296 26.2721 39.296C25.9841 39.296 25.7281 39.264 25.5041 39.2V38.368C25.6855 38.4213 25.8935 38.448 26.1281 38.448C26.6935 38.448 27.1681 38.24 27.5521 37.824C27.9468 37.408 28.3415 36.6827 28.7361 35.648L25.7601 28H26.9601L29.2321 34.448L31.2641 28H32.4801ZM35.444 36.16C34.7613 36.16 34.2333 35.9467 33.86 35.52C33.4867 35.0827 33.3 34.4693 33.3 33.68V28.88H31.86V28H33.3V25.84L34.34 25.504H34.404V28H36.66V28.88H34.404V33.536C34.404 34.1333 34.5053 34.5707 34.708 34.848C34.9107 35.1147 35.2307 35.248 35.668 35.248C36.0947 35.248 36.452 35.184 36.74 35.056L36.836 35.904C36.484 36.0747 36.02 36.16 35.444 36.16ZM37.6085 24.128H38.7125V29.392C38.9685 28.9227 39.3418 28.5493 39.8325 28.272C40.3338 27.984 40.8778 27.84 41.4645 27.84C42.4032 27.84 43.1232 28.1493 43.6245 28.768C44.1258 29.3867 44.3765 30.2773 44.3765 31.44V36H43.2725V31.424C43.2725 30.5493 43.1018 29.8827 42.7605 29.424C42.4298 28.9547 41.9498 28.72 41.3205 28.72C40.8298 28.72 40.3872 28.848 39.9925 29.104C39.5978 29.3493 39.2832 29.696 39.0485 30.144C38.8245 30.5813 38.7125 31.0773 38.7125 31.632V36H37.6085V24.128ZM46.3555 26.448C46.0995 26.448 45.8915 26.3733 45.7315 26.224C45.5822 26.0747 45.5075 25.8773 45.5075 25.632C45.5075 25.376 45.5822 25.1733 45.7315 25.024C45.8915 24.8747 46.0995 24.8 46.3555 24.8C46.6115 24.8 46.8142 24.8747 46.9635 25.024C47.1235 25.1733 47.2035 25.376 47.2035 25.632C47.2035 25.8773 47.1235 26.0747 46.9635 26.224C46.8142 26.3733 46.6115 26.448 46.3555 26.448ZM45.7955 28H46.9155V36H45.7955V28ZM48.3287 29.984C48.3287 29.0453 48.3127 28.384 48.2807 28H49.2887C49.3314 28.3627 49.3527 28.8693 49.3527 29.52H49.4007C49.6354 29.008 50.0034 28.6027 50.5047 28.304C51.0061 27.9947 51.5554 27.84 52.1528 27.84C53.0808 27.84 53.7794 28.144 54.2488 28.752C54.7181 29.36 54.9528 30.2613 54.9528 31.456V36H53.8488V31.44C53.8488 30.5333 53.6941 29.8613 53.3847 29.424C53.0754 28.976 52.6061 28.752 51.9767 28.752C51.4967 28.752 51.0647 28.88 50.6807 29.136C50.2967 29.3813 49.9927 29.7227 49.7687 30.16C49.5554 30.5973 49.4487 31.088 49.4487 31.632V36H48.3287V29.984ZM62.5835 28V35.76C62.5835 37.0187 62.2742 37.9733 61.6555 38.624C61.0475 39.2747 60.1568 39.6 58.9835 39.6C57.9275 39.6 56.9835 39.3707 56.1515 38.912L56.5195 38.064C56.9355 38.2667 57.3355 38.4107 57.7195 38.496C58.1035 38.592 58.5142 38.64 58.9515 38.64C59.8262 38.64 60.4768 38.3893 60.9035 37.888C61.3302 37.3973 61.5435 36.6347 61.5435 35.6V34.8C61.3088 35.216 60.9675 35.5467 60.5195 35.792C60.0822 36.0267 59.5808 36.144 59.0155 36.144C57.9702 36.144 57.1435 35.7653 56.5355 35.008C55.9382 34.24 55.6395 33.1893 55.6395 31.856C55.6395 30.6187 55.9382 29.6427 56.5355 28.928C57.1435 28.2027 57.9648 27.84 58.9995 27.84C59.5435 27.84 60.0288 27.9573 60.4555 28.192C60.8928 28.4267 61.2342 28.7627 61.4795 29.2H61.5115L61.6715 28H62.5835ZM61.4795 31.456C61.4795 30.6133 61.2662 29.9467 60.8395 29.456C60.4235 28.9653 59.8582 28.72 59.1435 28.72C58.4075 28.72 57.8262 29.0027 57.3995 29.568C56.9728 30.1333 56.7595 30.9067 56.7595 31.888C56.7595 32.9333 56.9675 33.7547 57.3835 34.352C57.8102 34.9387 58.3968 35.232 59.1435 35.232C59.8688 35.232 60.4395 35.0133 60.8555 34.576C61.2715 34.128 61.4795 33.52 61.4795 32.752V31.456ZM69.066 36.16C68.2873 36.16 67.6473 35.936 67.146 35.488C66.6447 35.0293 66.394 34.4427 66.394 33.728C66.394 32.9387 66.6873 32.3253 67.274 31.888C67.8713 31.44 68.7033 31.216 69.77 31.216H71.562V30.784C71.562 30.1227 71.3913 29.6213 71.05 29.28C70.7193 28.928 70.2287 28.752 69.578 28.752C69.098 28.752 68.6553 28.8587 68.25 29.072C67.8553 29.2747 67.5353 29.5733 67.29 29.968L66.682 29.264C67.0233 28.8053 67.4447 28.4533 67.946 28.208C68.4473 27.9627 69.0127 27.84 69.642 27.84C70.6127 27.84 71.3593 28.0853 71.882 28.576C72.4153 29.0667 72.682 29.76 72.682 30.656V34.496C72.682 34.8907 72.7407 35.392 72.858 36H71.898C71.8233 35.7653 71.754 35.3707 71.69 34.816H71.658C71.3593 35.2427 70.986 35.5733 70.538 35.808C70.09 36.0427 69.5993 36.16 69.066 36.16ZM69.178 35.264C69.6047 35.264 69.9993 35.1787 70.362 35.008C70.7247 34.8373 71.0127 34.608 71.226 34.32C71.45 34.0213 71.562 33.7067 71.562 33.376V32.064H69.722C69.0073 32.064 68.4527 32.208 68.058 32.496C67.674 32.784 67.482 33.1947 67.482 33.728C67.482 34.1867 67.6367 34.56 67.946 34.848C68.2553 35.1253 68.666 35.264 69.178 35.264ZM83.2063 28L81.2063 36H80.1823L78.1343 29.168L76.0703 36H75.0463L73.0623 28H74.2303L75.6223 34.56L77.6063 28H78.6463L80.6303 34.56L82.0223 28H83.2063ZM89.9626 32.448H84.1386C84.2026 33.3333 84.4533 34.016 84.8906 34.496C85.3386 34.976 85.9413 35.216 86.6986 35.216C87.1786 35.216 87.616 35.1147 88.0106 34.912C88.4053 34.6987 88.7306 34.4053 88.9866 34.032L89.6426 34.656C89.3333 35.136 88.9173 35.5093 88.3946 35.776C87.8826 36.032 87.3066 36.16 86.6666 36.16C85.5253 36.16 84.6293 35.7973 83.9786 35.072C83.3386 34.336 83.0186 33.3173 83.0186 32.016C83.0186 30.7147 83.3333 29.696 83.9626 28.96C84.6026 28.2133 85.4826 27.84 86.6026 27.84C87.6586 27.84 88.48 28.1973 89.0666 28.912C89.664 29.6267 89.9626 30.624 89.9626 31.904V32.448ZM88.9386 31.456C88.9386 30.624 88.7253 29.968 88.2986 29.488C87.872 28.9973 87.296 28.752 86.5706 28.752C85.8453 28.752 85.2693 28.9973 84.8426 29.488C84.4266 29.9787 84.192 30.6773 84.1386 31.584H88.9386V31.456ZM93.0554 36.16C92.49 36.16 91.9727 36.0427 91.5034 35.808C91.0447 35.5733 90.714 35.264 90.5114 34.88L91.2474 34.368C91.4394 34.6667 91.6954 34.896 92.0154 35.056C92.3354 35.2053 92.698 35.28 93.1034 35.28C93.5834 35.28 93.978 35.1413 94.2874 34.864C94.5967 34.576 94.7514 34.2133 94.7514 33.776C94.7514 33.424 94.6234 33.1307 94.3674 32.896C94.122 32.6507 93.69 32.4107 93.0714 32.176C92.186 31.8453 91.562 31.504 91.1994 31.152C90.8474 30.8 90.6714 30.3627 90.6714 29.84C90.6714 29.2427 90.906 28.7627 91.3754 28.4C91.8447 28.0267 92.4687 27.84 93.2474 27.84C93.7487 27.84 94.2074 27.952 94.6234 28.176C95.05 28.4 95.3647 28.704 95.5674 29.088L94.8634 29.6C94.5007 29.0133 93.9567 28.72 93.2314 28.72C92.8047 28.72 92.4527 28.8213 92.1754 29.024C91.9087 29.2267 91.7754 29.488 91.7754 29.808C91.7754 30.1173 91.9087 30.384 92.1754 30.608C92.442 30.8213 92.938 31.0613 93.6634 31.328C94.4527 31.6373 95.018 31.9787 95.3594 32.352C95.7007 32.7253 95.8714 33.1893 95.8714 33.744C95.8714 34.4693 95.6154 35.056 95.1034 35.504C94.5914 35.9413 93.9087 36.16 93.0554 36.16ZM99.9062 36.16C99.1382 36.16 98.4662 35.9893 97.8902 35.648C97.3249 35.3067 96.8876 34.8213 96.5782 34.192C96.2689 33.5627 96.1142 32.832 96.1142 32C96.1142 31.168 96.2689 30.4373 96.5782 29.808C96.8876 29.1787 97.3249 28.6933 97.8902 28.352C98.4662 28.0107 99.1382 27.84 99.9062 27.84C100.674 27.84 101.341 28.0107 101.906 28.352C102.482 28.6933 102.925 29.1787 103.234 29.808C103.544 30.4373 103.698 31.168 103.698 32C103.698 32.832 103.544 33.5627 103.234 34.192C102.925 34.8213 102.482 35.3067 101.906 35.648C101.341 35.9893 100.674 36.16 99.9062 36.16ZM99.9062 35.28C100.728 35.28 101.378 34.9867 101.858 34.4C102.349 33.8027 102.594 33.0027 102.594 32C102.594 30.9973 102.349 30.2027 101.858 29.616C101.378 29.0187 100.728 28.72 99.9062 28.72C99.0849 28.72 98.4289 29.0187 97.9382 29.616C97.4582 30.2027 97.2182 30.9973 97.2182 32C97.2182 33.0027 97.4582 33.8027 97.9382 34.4C98.4289 34.9867 99.0849 35.28 99.9062 35.28ZM104.399 29.984C104.399 29.2587 104.378 28.5973 104.335 28H105.327C105.359 28.2987 105.375 28.7733 105.375 29.424H105.423C105.658 28.9333 105.999 28.5493 106.447 28.272C106.906 27.984 107.412 27.84 107.967 27.84C108.543 27.84 109.034 27.9947 109.439 28.304C109.855 28.6027 110.132 29.0187 110.271 29.552C110.484 29.0293 110.826 28.6133 111.295 28.304C111.775 27.9947 112.308 27.84 112.895 27.84C113.77 27.84 114.452 28.128 114.943 28.704C115.434 29.2693 115.679 30.0533 115.679 31.056V36H114.575V31.12C114.575 30.352 114.41 29.7653 114.079 29.36C113.748 28.9547 113.274 28.752 112.655 28.752C112.058 28.752 111.562 28.9813 111.167 29.44C110.772 29.888 110.575 30.4533 110.575 31.136V36H109.487V31.216C109.487 29.5733 108.884 28.752 107.679 28.752C107.295 28.752 106.932 28.864 106.591 29.088C106.26 29.312 105.994 29.616 105.791 30C105.599 30.3733 105.503 30.768 105.503 31.184V36H104.399V29.984ZM123.341 32.448H117.517C117.581 33.3333 117.832 34.016 118.269 34.496C118.717 34.976 119.32 35.216 120.077 35.216C120.557 35.216 120.995 35.1147 121.389 34.912C121.784 34.6987 122.109 34.4053 122.365 34.032L123.021 34.656C122.712 35.136 122.296 35.5093 121.773 35.776C121.261 36.032 120.685 36.16 120.045 36.16C118.904 36.16 118.008 35.7973 117.357 35.072C116.717 34.336 116.397 33.3173 116.397 32.016C116.397 30.7147 116.712 29.696 117.341 28.96C117.981 28.2133 118.861 27.84 119.981 27.84C121.037 27.84 121.859 28.1973 122.445 28.912C123.043 29.6267 123.341 30.624 123.341 31.904V32.448ZM122.317 31.456C122.317 30.624 122.104 29.968 121.677 29.488C121.251 28.9973 120.675 28.752 119.949 28.752C119.224 28.752 118.648 28.9973 118.221 29.488C117.805 29.9787 117.571 30.6773 117.517 31.584H122.317V31.456ZM129.355 36.16C128.576 36.16 127.936 35.936 127.435 35.488C126.933 35.0293 126.683 34.4427 126.683 33.728C126.683 32.9387 126.976 32.3253 127.563 31.888C128.16 31.44 128.992 31.216 130.059 31.216H131.851V30.784C131.851 30.1227 131.68 29.6213 131.339 29.28C131.008 28.928 130.517 28.752 129.867 28.752C129.387 28.752 128.944 28.8587 128.539 29.072C128.144 29.2747 127.824 29.5733 127.579 29.968L126.971 29.264C127.312 28.8053 127.733 28.4533 128.235 28.208C128.736 27.9627 129.301 27.84 129.931 27.84C130.901 27.84 131.648 28.0853 132.171 28.576C132.704 29.0667 132.971 29.76 132.971 30.656V34.496C132.971 34.8907 133.029 35.392 133.147 36H132.187C132.112 35.7653 132.043 35.3707 131.979 34.816H131.947C131.648 35.2427 131.275 35.5733 130.827 35.808C130.379 36.0427 129.888 36.16 129.355 36.16ZM129.467 35.264C129.893 35.264 130.288 35.1787 130.651 35.008C131.013 34.8373 131.301 34.608 131.515 34.32C131.739 34.0213 131.851 33.7067 131.851 33.376V32.064H130.011C129.296 32.064 128.741 32.208 128.347 32.496C127.963 32.784 127.771 33.1947 127.771 33.728C127.771 34.1867 127.925 34.56 128.235 34.848C128.544 35.1253 128.955 35.264 129.467 35.264ZM136.919 36.16C136.236 36.16 135.708 35.9467 135.335 35.52C134.962 35.0827 134.775 34.4693 134.775 33.68V28.88H133.335V28H134.775V25.84L135.815 25.504H135.879V28H138.135V28.88H135.879V33.536C135.879 34.1333 135.98 34.5707 136.183 34.848C136.386 35.1147 136.706 35.248 137.143 35.248C137.57 35.248 137.927 35.184 138.215 35.056L138.311 35.904C137.959 36.0747 137.495 36.16 136.919 36.16ZM145.421 36.16C144.653 36.16 143.981 35.9893 143.405 35.648C142.839 35.3067 142.402 34.8213 142.093 34.192C141.783 33.5627 141.629 32.832 141.629 32C141.629 31.168 141.783 30.4373 142.093 29.808C142.402 29.1787 142.839 28.6933 143.405 28.352C143.981 28.0107 144.653 27.84 145.421 27.84C146.189 27.84 146.855 28.0107 147.421 28.352C147.997 28.6933 148.439 29.1787 148.749 29.808C149.058 30.4373 149.213 31.168 149.213 32C149.213 32.832 149.058 33.5627 148.749 34.192C148.439 34.8213 147.997 35.3067 147.421 35.648C146.855 35.9893 146.189 36.16 145.421 36.16ZM145.421 35.28C146.242 35.28 146.893 34.9867 147.373 34.4C147.863 33.8027 148.109 33.0027 148.109 32C148.109 30.9973 147.863 30.2027 147.373 29.616C146.893 29.0187 146.242 28.72 145.421 28.72C144.599 28.72 143.943 29.0187 143.453 29.616C142.973 30.2027 142.733 30.9973 142.733 32C142.733 33.0027 142.973 33.8027 143.453 34.4C143.943 34.9867 144.599 35.28 145.421 35.28ZM149.897 29.984C149.897 29.0453 149.881 28.384 149.849 28H150.857C150.9 28.3627 150.921 28.8693 150.921 29.52H150.969C151.204 29.008 151.572 28.6027 152.073 28.304C152.575 27.9947 153.124 27.84 153.721 27.84C154.649 27.84 155.348 28.144 155.817 28.752C156.287 29.36 156.521 30.2613 156.521 31.456V36H155.417V31.44C155.417 30.5333 155.263 29.8613 154.953 29.424C154.644 28.976 154.175 28.752 153.545 28.752C153.065 28.752 152.633 28.88 152.249 29.136C151.865 29.3813 151.561 29.7227 151.337 30.16C151.124 30.5973 151.017 31.088 151.017 31.632V36H149.897V29.984ZM164.168 32.448H158.344C158.408 33.3333 158.659 34.016 159.096 34.496C159.544 34.976 160.147 35.216 160.904 35.216C161.384 35.216 161.822 35.1147 162.216 34.912C162.611 34.6987 162.936 34.4053 163.192 34.032L163.848 34.656C163.539 35.136 163.123 35.5093 162.6 35.776C162.088 36.032 161.512 36.16 160.872 36.16C159.731 36.16 158.835 35.7973 158.184 35.072C157.544 34.336 157.224 33.3173 157.224 32.016C157.224 30.7147 157.539 29.696 158.168 28.96C158.808 28.2133 159.688 27.84 160.808 27.84C161.864 27.84 162.686 28.1973 163.272 28.912C163.87 29.6267 164.168 30.624 164.168 31.904V32.448ZM163.144 31.456C163.144 30.624 162.931 29.968 162.504 29.488C162.078 28.9973 161.502 28.752 160.776 28.752C160.051 28.752 159.475 28.9973 159.048 29.488C158.632 29.9787 158.398 30.6773 158.344 31.584H163.144V31.456ZM167.878 29.984C167.878 29.3013 167.856 28.64 167.814 28H168.822C168.854 28.384 168.87 28.832 168.87 29.344H168.902C169.115 28.9067 169.462 28.5493 169.942 28.272C170.432 27.984 170.955 27.84 171.51 27.84C172.544 27.84 173.355 28.208 173.942 28.944C174.528 29.68 174.822 30.6987 174.822 32C174.822 32.832 174.683 33.5627 174.406 34.192C174.128 34.8213 173.734 35.3067 173.222 35.648C172.72 35.9893 172.134 36.16 171.462 36.16C170.918 36.16 170.427 36.0427 169.99 35.808C169.552 35.5627 169.232 35.2373 169.03 34.832H168.982V39.872H167.878V29.984ZM171.334 35.28C172.059 35.28 172.635 34.9813 173.062 34.384C173.499 33.776 173.718 32.9653 173.718 31.952C173.718 30.9493 173.51 30.1653 173.094 29.6C172.678 29.0347 172.096 28.752 171.35 28.752C170.656 28.752 170.086 28.9813 169.638 29.44C169.2 29.8987 168.982 30.4853 168.982 31.2V32.592C168.982 33.4027 169.195 34.0533 169.622 34.544C170.059 35.0347 170.63 35.28 171.334 35.28ZM177.287 36.16C176.209 36.16 175.671 35.4933 175.671 34.16V24.128H176.791V34.144C176.791 34.5707 176.849 34.8693 176.967 35.04C177.095 35.2107 177.313 35.296 177.623 35.296C177.836 35.296 178.092 35.2373 178.391 35.12L178.583 35.808C178.199 36.0427 177.767 36.16 177.287 36.16ZM181.512 36.16C180.733 36.16 180.093 35.936 179.592 35.488C179.09 35.0293 178.84 34.4427 178.84 33.728C178.84 32.9387 179.133 32.3253 179.72 31.888C180.317 31.44 181.149 31.216 182.216 31.216H184.008V30.784C184.008 30.1227 183.837 29.6213 183.496 29.28C183.165 28.928 182.674 28.752 182.024 28.752C181.544 28.752 181.101 28.8587 180.696 29.072C180.301 29.2747 179.981 29.5733 179.736 29.968L179.128 29.264C179.469 28.8053 179.89 28.4533 180.392 28.208C180.893 27.9627 181.458 27.84 182.088 27.84C183.058 27.84 183.805 28.0853 184.328 28.576C184.861 29.0667 185.128 29.76 185.128 30.656V34.496C185.128 34.8907 185.186 35.392 185.304 36H184.344C184.269 35.7653 184.2 35.3707 184.136 34.816H184.104C183.805 35.2427 183.432 35.5733 182.984 35.808C182.536 36.0427 182.045 36.16 181.512 36.16ZM181.624 35.264C182.05 35.264 182.445 35.1787 182.808 35.008C183.17 34.8373 183.458 34.608 183.672 34.32C183.896 34.0213 184.008 33.7067 184.008 33.376V32.064H182.168C181.453 32.064 180.898 32.208 180.504 32.496C180.12 32.784 179.928 33.1947 179.928 33.728C179.928 34.1867 180.082 34.56 180.392 34.848C180.701 35.1253 181.112 35.264 181.624 35.264ZM189.588 36.16C188.436 36.16 187.535 35.7973 186.884 35.072C186.244 34.336 185.924 33.312 185.924 32C185.924 30.688 186.244 29.6693 186.884 28.944C187.535 28.208 188.436 27.84 189.588 27.84C190.239 27.84 190.815 27.968 191.316 28.224C191.817 28.4693 192.217 28.8373 192.516 29.328L191.844 29.952C191.609 29.568 191.295 29.2747 190.9 29.072C190.505 28.8587 190.079 28.752 189.62 28.752C188.809 28.752 188.175 29.04 187.716 29.616C187.268 30.1813 187.044 30.976 187.044 32C187.044 33.0133 187.268 33.808 187.716 34.384C188.175 34.96 188.809 35.248 189.62 35.248C190.079 35.248 190.505 35.1467 190.9 34.944C191.295 34.7307 191.609 34.432 191.844 34.048L192.516 34.672C192.217 35.1627 191.817 35.536 191.316 35.792C190.815 36.0373 190.239 36.16 189.588 36.16ZM199.393 32.448H193.569C193.633 33.3333 193.883 34.016 194.321 34.496C194.769 34.976 195.371 35.216 196.129 35.216C196.609 35.216 197.046 35.1147 197.441 34.912C197.835 34.6987 198.161 34.4053 198.417 34.032L199.073 34.656C198.763 35.136 198.347 35.5093 197.825 35.776C197.313 36.032 196.737 36.16 196.097 36.16C194.955 36.16 194.059 35.7973 193.409 35.072C192.769 34.336 192.449 33.3173 192.449 32.016C192.449 30.7147 192.763 29.696 193.393 28.96C194.033 28.2133 194.913 27.84 196.033 27.84C197.089 27.84 197.91 28.1973 198.497 28.912C199.094 29.6267 199.393 30.624 199.393 31.904V32.448ZM198.369 31.456C198.369 30.624 198.155 29.968 197.729 29.488C197.302 28.9973 196.726 28.752 196.001 28.752C195.275 28.752 194.699 28.9973 194.273 29.488C193.857 29.9787 193.622 30.6773 193.569 31.584H198.369V31.456ZM200.457 36.16C200.19 36.16 199.971 36.0747 199.801 35.904C199.641 35.7227 199.561 35.4933 199.561 35.216C199.561 34.9387 199.641 34.7147 199.801 34.544C199.971 34.3733 200.19 34.288 200.457 34.288C200.723 34.288 200.937 34.3733 201.097 34.544C201.257 34.7147 201.337 34.9387 201.337 35.216C201.337 35.4933 201.257 35.7227 201.097 35.904C200.937 36.0747 200.723 36.16 200.457 36.16Z" fill="#A9A9A9"/>
</svg>
