<svg width="479" height="151" viewBox="0 0 479 151" fill="none" xmlns="http://www.w3.org/2000/svg">
    <path d="M0.944 1.4H15.27C19.8713 1.4 23.3127 2.34733 25.594 4.242C27.8753 6.098 29.016 8.92067 29.016 12.71C29.016 15.378 28.4553 17.6593 27.334 19.554C26.2127 21.4487 24.5887 22.8213 22.462 23.672V23.788C23.1967 24.3293 23.7573 24.8513 24.144 25.354C24.5693 25.818 24.9173 26.3593 25.188 26.978L31.162 42H22.288L17.648 29.646C17.184 28.4087 16.5847 27.5967 15.85 27.21C15.1153 26.7847 13.8393 26.572 12.022 26.572H9.296V42H0.944V1.4ZM14.4 19.96C16.5267 19.96 18.1313 19.438 19.214 18.394C20.3353 17.3113 20.896 15.7453 20.896 13.696C20.896 9.94533 18.692 8.07 14.284 8.07H9.296V19.96H14.4ZM33.1748 1.4H60.1448V8.07H41.5268V17.35H58.1148V24.02H41.5268V35.33H60.1448V42H33.1748V1.4ZM63.9895 1.4H91.2496V8.07H72.3415V18.916H89.9735V25.586H72.3415V42H63.9895V1.4ZM110.228 42.58C105.047 42.58 101.122 41.188 98.4542 38.404C95.8249 35.62 94.5102 31.5407 94.5102 26.166V1.4H102.862V26.05C102.862 32.6233 105.318 35.91 110.228 35.91C115.178 35.91 117.652 32.6233 117.652 26.05V1.4H126.004V26.166C126.004 31.5407 124.67 35.62 122.002 38.404C119.334 41.188 115.41 42.58 110.228 42.58ZM131.057 1.4H145.383C149.984 1.4 153.425 2.34733 155.707 4.242C157.988 6.098 159.129 8.92067 159.129 12.71C159.129 15.378 158.568 17.6593 157.447 19.554C156.325 21.4487 154.701 22.8213 152.575 23.672V23.788C153.309 24.3293 153.87 24.8513 154.257 25.354C154.682 25.818 155.03 26.3593 155.301 26.978L161.275 42H152.401L147.761 29.646C147.297 28.4087 146.697 27.5967 145.963 27.21C145.228 26.7847 143.952 26.572 142.135 26.572H139.409V42H131.057V1.4ZM144.513 19.96C146.639 19.96 148.244 19.438 149.327 18.394C150.448 17.3113 151.009 15.7453 151.009 13.696C151.009 9.94533 148.805 8.07 144.397 8.07H139.409V19.96H144.513ZM163.287 1.4H176.453C181.132 1.4 184.689 2.27 187.125 4.01C189.561 5.71133 190.779 8.22467 190.779 11.55C190.779 13.4833 190.335 15.146 189.445 16.538C188.556 17.93 187.164 19.1093 185.269 20.076V20.25C187.744 21.178 189.523 22.4153 190.605 23.962C191.727 25.5087 192.287 27.5387 192.287 30.052C192.287 33.9187 191.147 36.8767 188.865 38.926C186.623 40.9753 183.336 42 179.005 42H163.287V1.4ZM177.207 17.582C178.831 17.582 180.088 17.1373 180.977 16.248C181.905 15.32 182.369 14.044 182.369 12.42C182.369 10.8347 181.847 9.67467 180.803 8.94C179.798 8.20533 178.232 7.838 176.105 7.838H171.639V17.582H177.207ZM178.367 35.562C180.185 35.562 181.577 35.04 182.543 33.996C183.549 32.952 184.051 31.4633 184.051 29.53C184.051 27.4807 183.452 25.992 182.253 25.064C181.055 24.136 179.121 23.672 176.453 23.672H171.639V35.562H178.367ZM197.417 1.4H205.711V42H197.417V1.4ZM224.517 42.58C221.463 42.58 218.698 41.9613 216.223 40.724C213.787 39.4867 211.796 37.708 210.249 35.388L215.063 30.748C216.339 32.256 217.886 33.4933 219.703 34.46C221.521 35.4267 223.222 35.91 224.807 35.91C226.586 35.91 228.017 35.504 229.099 34.692C230.182 33.88 230.723 32.8167 230.723 31.502C230.723 30.5353 230.549 29.7427 230.201 29.124C229.853 28.5053 229.196 27.8867 228.229 27.268C227.263 26.6107 225.677 25.7407 223.473 24.658C220.573 23.2273 218.292 21.8933 216.629 20.656C214.967 19.4187 213.729 18.0847 212.917 16.654C212.144 15.1847 211.757 13.4833 211.757 11.55C211.757 9.42333 212.318 7.548 213.439 5.924C214.561 4.3 216.146 3.04333 218.195 2.154C220.245 1.26466 222.603 0.819998 225.271 0.819998C228.21 0.819998 230.801 1.38066 233.043 2.502C235.325 3.62333 236.987 5.17 238.031 7.142L232.753 11.086C230.82 8.68866 228.442 7.49 225.619 7.49C223.841 7.49 222.468 7.838 221.501 8.534C220.535 9.23 220.051 10.216 220.051 11.492C220.051 12.2653 220.283 12.9613 220.747 13.58C221.25 14.1987 222.139 14.8753 223.415 15.61C224.691 16.3447 226.605 17.3113 229.157 18.51C231.632 19.67 233.565 20.83 234.957 21.99C236.388 23.15 237.413 24.4453 238.031 25.876C238.65 27.3067 238.959 29.008 238.959 30.98C238.959 33.3 238.36 35.3493 237.161 37.128C236.001 38.868 234.319 40.2213 232.115 41.188C229.95 42.116 227.417 42.58 224.517 42.58ZM242.195 1.4H250.547V17.988H266.149V1.4H274.443V42H266.149V24.658H250.547V42H242.195V1.4ZM281.309 1.4H289.603V42H281.309V1.4ZM329.115 1.4V42H321.401L304.755 15.32V42H296.461V1.4H304.523L320.821 27.674V1.4H329.115ZM365.783 19.96V42H359.461L358.707 39.738C356.078 41.6327 353.023 42.58 349.543 42.58C344.169 42.58 339.993 40.7433 337.015 37.07C334.038 33.3967 332.549 28.2733 332.549 21.7C332.549 17.4853 333.323 13.812 334.869 10.68C336.416 7.50933 338.601 5.07333 341.423 3.372C344.246 1.67067 347.552 0.819998 351.341 0.819998C354.628 0.819998 357.489 1.458 359.925 2.734C362.4 3.97133 364.198 5.71133 365.319 7.954L360.563 12.13C359.597 10.622 358.321 9.48133 356.735 8.708C355.189 7.896 353.41 7.49 351.399 7.49C347.997 7.49 345.387 8.708 343.569 11.144C341.791 13.58 340.901 17.0987 340.901 21.7C340.901 26.5333 341.733 30.2067 343.395 32.72C345.058 35.1947 347.475 36.432 350.645 36.432C353.197 36.432 355.498 35.8133 357.547 34.576V25.876H348.731V19.96H365.783ZM390.475 7.548H378.411V1.4H410.891V7.548H398.827V42H390.475V7.548ZM413.376 1.4H421.728V17.988H437.33V1.4H445.624V42H437.33V24.658H421.728V42H413.376V1.4ZM451.214 1.4H478.184V8.07H459.566V17.35H476.154V24.02H459.566V35.33H478.184V42H451.214V1.4ZM0.944 55.4H15.27C19.8713 55.4 23.3127 56.3473 25.594 58.242C27.8753 60.098 29.016 62.9207 29.016 66.71C29.016 69.378 28.4553 71.6593 27.334 73.554C26.2127 75.4487 24.5887 76.8213 22.462 77.672V77.788C23.1967 78.3293 23.7573 78.8513 24.144 79.354C24.5693 79.818 24.9173 80.3593 25.188 80.978L31.162 96H22.288L17.648 83.646C17.184 82.4087 16.5847 81.5967 15.85 81.21C15.1153 80.7847 13.8393 80.572 12.022 80.572H9.296V96H0.944V55.4ZM14.4 73.96C16.5267 73.96 18.1313 73.438 19.214 72.394C20.3353 71.3113 20.896 69.7453 20.896 67.696C20.896 63.9453 18.692 62.07 14.284 62.07H9.296V73.96H14.4ZM33.1748 55.4H60.1448V62.07H41.5268V71.35H58.1148V78.02H41.5268V89.33H60.1448V96H33.1748V55.4ZM85.6235 89.272H71.6455L69.6155 96H60.9155L74.9515 55.4H82.3175L96.3536 96H87.6535L85.6235 89.272ZM83.5935 82.602L78.6635 66.362L73.6755 82.602H83.5935ZM98.8258 55.4H107.178V89.33H126.318V96H98.8258V55.4ZM168.741 55.4V96H160.505V72.104L151.979 96H146.063L137.537 72.104V96H129.301V55.4H138.059L149.021 86.778L159.983 55.4H168.741ZM201.615 96.58C197.865 96.58 194.617 95.7487 191.871 94.086C189.126 92.4233 187.019 90.026 185.549 86.894C184.119 83.762 183.403 80.0307 183.403 75.7C183.403 71.3693 184.119 67.638 185.549 64.506C187.019 61.374 189.126 58.9767 191.871 57.314C194.617 55.6513 197.865 54.82 201.615 54.82C205.405 54.82 208.653 55.6513 211.359 57.314C214.105 58.9767 216.193 61.374 217.623 64.506C219.093 67.638 219.827 71.3693 219.827 75.7C219.827 80.0307 219.093 83.762 217.623 86.894C216.193 90.026 214.105 92.4233 211.359 94.086C208.653 95.7487 205.405 96.58 201.615 96.58ZM201.615 89.968C204.709 89.968 207.125 88.7113 208.865 86.198C210.644 83.646 211.533 80.1467 211.533 75.7C211.533 71.2533 210.644 67.7733 208.865 65.26C207.125 62.708 204.709 61.432 201.615 61.432C198.561 61.432 196.144 62.708 194.365 65.26C192.625 67.7733 191.755 71.2533 191.755 75.7C191.755 80.1467 192.625 83.646 194.365 86.198C196.144 88.7113 198.561 89.968 201.615 89.968ZM223.274 55.4H250.534V62.07H231.626V72.916H249.258V79.586H231.626V96H223.274V55.4ZM0.944 109.4H27.914V116.07H9.296V125.35H25.884V132.02H9.296V143.33H27.914V150H0.944V109.4ZM42.0248 129.236L29.9028 109.4H39.2988L46.8388 122.566L54.3208 109.4H63.7748L51.6528 129.236L64.2968 150H55.0168L46.8388 136.138L38.6608 150H29.3808L42.0248 129.236ZM81.7684 150.58C77.979 150.58 74.6537 149.729 71.7924 148.028C68.9697 146.327 66.785 143.91 65.2384 140.778C63.7304 137.607 62.9764 133.915 62.9764 129.7C62.9764 125.485 63.7304 121.812 65.2384 118.68C66.785 115.509 68.9697 113.073 71.7924 111.372C74.6537 109.671 77.9984 108.82 81.8264 108.82C85.0744 108.82 87.897 109.439 90.2944 110.676C92.7304 111.913 94.5284 113.673 95.6884 115.954L90.9324 120.13C88.883 117.037 85.8864 115.49 81.9424 115.49C78.501 115.49 75.8717 116.708 74.0544 119.144C72.237 121.541 71.3284 125.06 71.3284 129.7C71.3284 134.301 72.2177 137.82 73.9964 140.256C75.775 142.692 78.3464 143.91 81.7104 143.91C85.8864 143.91 88.9604 142.363 90.9324 139.27L95.6884 143.446C94.5284 145.727 92.7304 147.487 90.2944 148.724C87.897 149.961 85.055 150.58 81.7684 150.58ZM98.7692 109.4H107.121V125.988H122.723V109.4H131.017V150H122.723V132.658H107.121V150H98.7692V109.4ZM158.241 143.272H144.263L142.233 150H133.533L147.569 109.4H154.935L168.971 150H160.271L158.241 143.272ZM156.211 136.602L151.281 120.362L146.293 136.602H156.211ZM204.098 109.4V150H196.384L179.738 123.32V150H171.444V109.4H179.506L195.804 135.674V109.4H204.098ZM240.766 127.96V150H234.444L233.69 147.738C231.061 149.633 228.006 150.58 224.526 150.58C219.152 150.58 214.976 148.743 211.998 145.07C209.021 141.397 207.532 136.273 207.532 129.7C207.532 125.485 208.306 121.812 209.852 118.68C211.399 115.509 213.584 113.073 216.406 111.372C219.229 109.671 222.535 108.82 226.324 108.82C229.611 108.82 232.472 109.458 234.908 110.734C237.383 111.971 239.181 113.711 240.302 115.954L235.546 120.13C234.58 118.622 233.304 117.481 231.718 116.708C230.172 115.896 228.393 115.49 226.382 115.49C222.98 115.49 220.37 116.708 218.552 119.144C216.774 121.58 215.884 125.099 215.884 129.7C215.884 134.533 216.716 138.207 218.378 140.72C220.041 143.195 222.458 144.432 225.628 144.432C228.18 144.432 230.481 143.813 232.53 142.576V133.876H223.714V127.96H240.766ZM245.251 109.4H272.221V116.07H253.603V125.35H270.191V132.02H253.603V143.33H272.221V150H245.251V109.4ZM288.014 150.58C284.959 150.58 282.194 149.961 279.72 148.724C277.284 147.487 275.292 145.708 273.746 143.388L278.56 138.748C279.836 140.256 281.382 141.493 283.2 142.46C285.017 143.427 286.718 143.91 288.304 143.91C290.082 143.91 291.513 143.504 292.596 142.692C293.678 141.88 294.22 140.817 294.22 139.502C294.22 138.535 294.046 137.743 293.698 137.124C293.35 136.505 292.692 135.887 291.726 135.268C290.759 134.611 289.174 133.741 286.97 132.658C284.07 131.227 281.788 129.893 280.126 128.656C278.463 127.419 277.226 126.085 276.414 124.654C275.64 123.185 275.254 121.483 275.254 119.55C275.254 117.423 275.814 115.548 276.936 113.924C278.057 112.3 279.642 111.043 281.692 110.154C283.741 109.265 286.1 108.82 288.768 108.82C291.706 108.82 294.297 109.381 296.54 110.502C298.821 111.623 300.484 113.17 301.528 115.142L296.25 119.086C294.316 116.689 291.938 115.49 289.116 115.49C287.337 115.49 285.964 115.838 284.998 116.534C284.031 117.23 283.548 118.216 283.548 119.492C283.548 120.265 283.78 120.961 284.244 121.58C284.746 122.199 285.636 122.875 286.912 123.61C288.188 124.345 290.102 125.311 292.654 126.51C295.128 127.67 297.062 128.83 298.454 129.99C299.884 131.15 300.909 132.445 301.528 133.876C302.146 135.307 302.456 137.008 302.456 138.98C302.456 141.3 301.856 143.349 300.658 145.128C299.498 146.868 297.816 148.221 295.612 149.188C293.446 150.116 290.914 150.58 288.014 150.58Z" fill="white"/>
    </svg>
    