<svg width="139" height="49" viewBox="0 0 139 49" fill="none" xmlns="http://www.w3.org/2000/svg">
    <g filter="url(#filter0_d_8_1052)">
    <rect x="4" y="1" width="131" height="41" rx="10" fill="#5BC0BE"/>
    <rect x="4.5" y="1.5" width="130" height="40" rx="9.5" stroke="#3A506B"/>
    <path d="M17.152 28.16C16.5547 28.16 15.984 28.0587 15.44 27.856C14.9067 27.6533 14.4533 27.3707 14.08 27.008L14.992 25.456C15.2907 25.7333 15.616 25.9467 15.968 26.096C16.32 26.2453 16.6773 26.32 17.04 26.32C17.5627 26.32 17.936 26.1493 18.16 25.808C18.384 25.4667 18.496 24.912 18.496 24.144V16.8H20.8V24.4C20.8 25.6693 20.5013 26.6133 19.904 27.232C19.3067 27.8507 18.3893 28.16 17.152 28.16ZM26.499 28.16C25.2083 28.16 24.2003 27.792 23.475 27.056C22.7497 26.32 22.387 25.3013 22.387 24C22.387 22.6987 22.7497 21.68 23.475 20.944C24.2003 20.208 25.2083 19.84 26.499 19.84C27.7897 19.84 28.7977 20.208 29.523 20.944C30.259 21.68 30.627 22.6987 30.627 24C30.627 25.3013 30.259 26.32 29.523 27.056C28.7977 27.792 27.7897 28.16 26.499 28.16ZM26.499 26.64C27.1497 26.64 27.6617 26.4053 28.035 25.936C28.4083 25.4667 28.595 24.8213 28.595 24C28.595 23.1787 28.4083 22.5333 28.035 22.064C27.6617 21.5947 27.1497 21.36 26.499 21.36C25.8483 21.36 25.3363 21.5947 24.963 22.064C24.6003 22.5333 24.419 23.1787 24.419 24C24.419 24.8213 24.6003 25.4667 24.963 25.936C25.3363 26.4053 25.8483 26.64 26.499 26.64ZM33.3166 19.072C32.922 19.072 32.6073 18.9653 32.3726 18.752C32.138 18.528 32.0206 18.2347 32.0206 17.872C32.0206 17.5093 32.138 17.2213 32.3726 17.008C32.6073 16.784 32.922 16.672 33.3166 16.672C33.7113 16.672 34.026 16.784 34.2606 17.008C34.506 17.2213 34.6286 17.5093 34.6286 17.872C34.6286 18.2347 34.5113 18.528 34.2766 18.752C34.042 18.9653 33.722 19.072 33.3166 19.072ZM32.3086 20H34.3406V28H32.3086V20ZM36.2676 22.112C36.2676 21.1413 36.2463 20.4373 36.2036 20H38.1236C38.177 20.448 38.2036 20.912 38.2036 21.392H38.2516C38.4436 20.9227 38.7796 20.5493 39.2596 20.272C39.7503 19.984 40.2943 19.84 40.8916 19.84C41.809 19.84 42.5023 20.1493 42.9716 20.768C43.441 21.3867 43.6756 22.2987 43.6756 23.504V28H41.6436V23.488C41.6436 22.7947 41.5316 22.288 41.3076 21.968C41.0836 21.648 40.7263 21.488 40.2356 21.488C39.6703 21.488 39.2063 21.6907 38.8436 22.096C38.4916 22.4907 38.3156 23.0027 38.3156 23.632V28H36.2676V22.112ZM61.8496 16.8L59.4976 28H57.3056L55.2576 19.664L53.2096 28H51.0176L48.6656 16.8H51.1136L52.3296 24.208L54.1696 16.8H56.3456L58.1856 24.208L59.4016 16.8H61.8496ZM65.1535 28.16C64.6308 28.16 64.1615 28.0533 63.7455 27.84C63.3295 27.616 63.0042 27.312 62.7695 26.928C62.5348 26.5333 62.4175 26.096 62.4175 25.616C62.4175 24.7947 62.7428 24.1653 63.3935 23.728C64.0442 23.2907 64.9722 23.072 66.1775 23.072H67.4255V22.736C67.4255 22.3093 67.2975 21.984 67.0415 21.76C66.7962 21.5253 66.4442 21.408 65.9855 21.408C65.5055 21.408 65.0468 21.4933 64.6095 21.664C64.1722 21.8347 63.8148 22.0693 63.5375 22.368L62.6415 21.184C63.0788 20.768 63.5962 20.4427 64.1935 20.208C64.7908 19.9627 65.4095 19.84 66.0495 19.84C67.1162 19.84 67.9535 20.0907 68.5615 20.592C69.1695 21.0933 69.4735 21.7867 69.4735 22.672V26.32C69.4735 26.5653 69.4895 26.8533 69.5215 27.184C69.5642 27.5147 69.6122 27.7867 69.6655 28H67.8575C67.7935 27.8613 67.7455 27.728 67.7135 27.6C67.6815 27.4613 67.6548 27.2747 67.6335 27.04H67.6015C66.9935 27.7867 66.1775 28.16 65.1535 28.16ZM65.6495 26.624C66.1615 26.624 66.5828 26.496 66.9135 26.24C67.2548 25.9733 67.4255 25.6373 67.4255 25.232V24.432H66.1135C65.5695 24.432 65.1482 24.5333 64.8495 24.736C64.5615 24.9387 64.4175 25.232 64.4175 25.616C64.4175 25.936 64.5242 26.1867 64.7375 26.368C64.9615 26.5387 65.2655 26.624 65.6495 26.624ZM72.5823 19.072C72.1876 19.072 71.8729 18.9653 71.6383 18.752C71.4036 18.528 71.2863 18.2347 71.2863 17.872C71.2863 17.5093 71.4036 17.2213 71.6383 17.008C71.8729 16.784 72.1876 16.672 72.5823 16.672C72.9769 16.672 73.2916 16.784 73.5263 17.008C73.7716 17.2213 73.8943 17.5093 73.8943 17.872C73.8943 18.2347 73.7769 18.528 73.5423 18.752C73.3076 18.9653 72.9876 19.072 72.5823 19.072ZM71.5743 20H73.6063V28H71.5743V20ZM79.0373 28.16C78.2159 28.16 77.5759 27.936 77.1173 27.488C76.6586 27.04 76.4293 26.4107 76.4293 25.6V21.52H74.9733V20H76.4293V17.936L78.4133 17.36H78.4773V20H80.7973V21.52H78.4773V25.296C78.4773 25.7547 78.5839 26.0907 78.7973 26.304C79.0106 26.5173 79.3359 26.624 79.7733 26.624C80.1893 26.624 80.5786 26.56 80.9413 26.432L81.0373 27.824C80.5573 28.048 79.8906 28.16 79.0373 28.16ZM84.508 28.16C83.8253 28.16 83.3027 27.9787 82.94 27.616C82.588 27.2427 82.412 26.7093 82.412 26.016V16.128H84.444V26.048C84.444 26.2827 84.5027 26.4587 84.62 26.576C84.748 26.6827 84.9347 26.736 85.18 26.736C85.4253 26.736 85.7293 26.6667 86.092 26.528L86.396 27.616C85.916 27.9787 85.2867 28.16 84.508 28.16ZM88.4885 19.072C88.0938 19.072 87.7792 18.9653 87.5445 18.752C87.3098 18.528 87.1925 18.2347 87.1925 17.872C87.1925 17.5093 87.3098 17.2213 87.5445 17.008C87.7792 16.784 88.0938 16.672 88.4885 16.672C88.8832 16.672 89.1978 16.784 89.4325 17.008C89.6778 17.2213 89.8005 17.5093 89.8005 17.872C89.8005 18.2347 89.6832 18.528 89.4485 18.752C89.2138 18.9653 88.8938 19.072 88.4885 19.072ZM87.4805 20H89.5125V28H87.4805V20ZM94.0635 28.16C93.3702 28.16 92.7568 28.0213 92.2235 27.744C91.7008 27.4667 91.3328 27.0987 91.1195 26.64L92.3835 25.76C92.5755 26.0267 92.8208 26.24 93.1195 26.4C93.4182 26.56 93.7222 26.64 94.0315 26.64C94.3942 26.64 94.6928 26.5493 94.9275 26.368C95.1622 26.176 95.2795 25.9413 95.2795 25.664C95.2795 25.44 95.1942 25.264 95.0235 25.136C94.8528 24.9973 94.4902 24.8213 93.9355 24.608C92.9648 24.2347 92.2822 23.856 91.8875 23.472C91.4928 23.088 91.2955 22.6133 91.2955 22.048C91.2955 21.3867 91.5622 20.8533 92.0955 20.448C92.6395 20.0427 93.3595 19.84 94.2555 19.84C94.8528 19.84 95.3915 19.9573 95.8715 20.192C96.3515 20.416 96.7408 20.7413 97.0395 21.168L95.8555 22.048C95.4822 21.5893 94.9755 21.36 94.3355 21.36C94.0155 21.36 93.7648 21.4187 93.5835 21.536C93.4128 21.6427 93.3275 21.8027 93.3275 22.016C93.3275 22.1653 93.3648 22.288 93.4395 22.384C93.5142 22.48 93.6582 22.5813 93.8715 22.688C94.0848 22.7947 94.4262 22.9387 94.8955 23.12C95.5248 23.3653 96.0102 23.6053 96.3515 23.84C96.7035 24.064 96.9488 24.3147 97.0875 24.592C97.2368 24.8587 97.3115 25.184 97.3115 25.568C97.3115 26.08 97.1728 26.5333 96.8955 26.928C96.6288 27.312 96.2502 27.616 95.7595 27.84C95.2688 28.0533 94.7035 28.16 94.0635 28.16ZM102.006 28.16C101.185 28.16 100.545 27.936 100.086 27.488C99.6273 27.04 99.398 26.4107 99.398 25.6V21.52H97.942V20H99.398V17.936L101.382 17.36H101.446V20H103.766V21.52H101.446V25.296C101.446 25.7547 101.553 26.0907 101.766 26.304C101.979 26.5173 102.305 26.624 102.742 26.624C103.158 26.624 103.547 26.56 103.91 26.432L104.006 27.824C103.526 28.048 102.859 28.16 102.006 28.16Z" fill="#040404"/>
    <g clip-path="url(#clip0_8_1052)">
    <path d="M121.875 17.75C121.875 17.5842 121.809 17.4253 121.692 17.3081C121.575 17.1908 121.416 17.125 121.25 17.125H116.25C116.084 17.125 115.925 17.1908 115.808 17.3081C115.691 17.4253 115.625 17.5842 115.625 17.75C115.625 17.9158 115.691 18.0747 115.808 18.1919C115.925 18.3092 116.084 18.375 116.25 18.375H119.741L113.523 24.5938C113.409 24.7116 113.346 24.8695 113.347 25.0334C113.349 25.1972 113.414 25.354 113.53 25.4699C113.646 25.5858 113.803 25.6515 113.967 25.6529C114.13 25.6543 114.288 25.5913 114.406 25.4775L120.625 19.2587V22.75C120.625 22.9158 120.691 23.0747 120.808 23.1919C120.925 23.3092 121.084 23.375 121.25 23.375C121.416 23.375 121.575 23.3092 121.692 23.1919C121.809 23.0747 121.875 22.9158 121.875 22.75V17.75Z" fill="#040404"/>
    </g>
    </g>
    <defs>
    <filter id="filter0_d_8_1052" x="0" y="0" width="139" height="49" filterUnits="userSpaceOnUse" color-interpolation-filters="sRGB">
    <feFlood flood-opacity="0" result="BackgroundImageFix"/>
    <feColorMatrix in="SourceAlpha" type="matrix" values="0 0 0 0 0 0 0 0 0 0 0 0 0 0 0 0 0 0 127 0" result="hardAlpha"/>
    <feOffset dy="3"/>
    <feGaussianBlur stdDeviation="2"/>
    <feComposite in2="hardAlpha" operator="out"/>
    <feColorMatrix type="matrix" values="0 0 0 0 0.403922 0 0 0 0 0.901961 0 0 0 0 0.847059 0 0 0 0.6 0"/>
    <feBlend mode="normal" in2="BackgroundImageFix" result="effect1_dropShadow_8_1052"/>
    <feBlend mode="normal" in="SourceGraphic" in2="effect1_dropShadow_8_1052" result="shape"/>
    </filter>
    <clipPath id="clip0_8_1052">
    <rect width="15" height="15" fill="white" transform="matrix(-1 0 0 1 125 14)"/>
    </clipPath>
    </defs>
    </svg>
    